FrauncesItalic.ufo
<glyph name="exclam" format="2">
  <advance width="526"/>
  <unicode hex="0021"/>
  <outline>
    <contour>
      <point x="546.0" y="1406.0"/>
      <point x="592.0" y="1446.0"/>
      <point x="666.0" y="1446.0" type="curve" smooth="yes"/>
      <point x="728.0" y="1446.0"/>
      <point x="752.0" y="1408.0"/>
      <point x="752.0" y="1362.0" type="curve" smooth="yes"/>
      <point x="752.0" y="1338.0"/>
      <point x="746.0" y="1320.0"/>
      <point x="730.0" y="1272.0" type="curve" smooth="yes"/>
      <point x="446.0" y="452.0" type="line" smooth="yes"/>
      <point x="434.0" y="418.0"/>
      <point x="416.0" y="400.0"/>
      <point x="392.0" y="400.0" type="curve" smooth="yes"/>
      <point x="368.0" y="400.0"/>
      <point x="360.0" y="418.0"/>
      <point x="366.0" y="456.0" type="curve" smooth="yes"/>
      <point x="508.0" y="1270.0" type="line" smooth="yes"/>
      <point x="512.0" y="1296.0"/>
      <point x="516.0" y="1314.0"/>
      <point x="522.0" y="1332.0" type="curve" smooth="yes"/>
    </contour>
    <contour>
      <point x="265.9" y="-29.99" type="curve" smooth="yes"/>
      <point x="344.272" y="-29.99"/>
      <point x="443.16999999999996" y="95.36521428571429"/>
      <point x="443.16999999999996" y="216.32199999999997" type="curve" smooth="yes"/>
      <point x="443.16999999999996" y="261.106"/>
      <point x="409.582" y="292.828"/>
      <point x="368.53" y="292.828" type="curve" smooth="yes"/>
      <point x="284.56" y="292.828"/>
      <point x="189.39399999999998" y="160.69502702702704"/>
      <point x="189.39399999999998" y="48.382" type="curve" smooth="yes"/>
      <point x="189.39399999999998" y="3.598"/>
      <point x="222.98199999999997" y="-29.99"/>
    </contour>
  </outline>
</glyph>
<glyph name="numbersign" format="2">
  <advance width="1196"/>
  <unicode hex="0023"/>
  <outline>
    <contour>
      <point x="554.0" y="614.0" type="curve" smooth="yes"/>
      <point x="398.0" y="194.0"/>
      <point x="308.0" y="126.0"/>
      <point x="292.0" y="52.0" type="curve" smooth="yes"/>
      <point x="280.0" y="2.0"/>
      <point x="304.0" y="-32.0"/>
      <point x="348.0" y="-32.0" type="curve" smooth="yes"/>
      <point x="382.0" y="-32.0"/>
      <point x="430.0" y="-14.0"/>
      <point x="452.0" y="48.0" type="curve" smooth="yes"/>
      <point x="482.0" y="116.0"/>
      <point x="472.0" y="190.0"/>
      <point x="632.0" y="614.0" type="curve" smooth="yes"/>
      <point x="786.0" y="1028.0"/>
      <point x="872.0" y="1100.0"/>
      <point x="890.0" y="1176.0" type="curve" smooth="yes"/>
      <point x="900.0" y="1226.0"/>
      <point x="882.0" y="1258.0"/>
      <point x="840.0" y="1258.0" type="curve" smooth="yes"/>
      <point x="790.0" y="1258.0"/>
      <point x="748.0" y="1234.0"/>
      <point x="722.0" y="1172.0" type="curve" smooth="yes"/>
      <point x="688.0" y="1088.0"/>
      <point x="734.0" y="1094.0"/>
    </contour>
    <contour>
      <point x="904.0" y="614.0" type="curve" smooth="yes"/>
      <point x="750.0" y="196.0"/>
      <point x="658.0" y="126.0"/>
      <point x="642.0" y="52.0" type="curve" smooth="yes"/>
      <point x="630.0" y="2.0"/>
      <point x="654.0" y="-32.0"/>
      <point x="698.0" y="-32.0" type="curve" smooth="yes"/>
      <point x="732.0" y="-32.0"/>
      <point x="780.0" y="-14.0"/>
      <point x="804.0" y="48.0" type="curve" smooth="yes"/>
      <point x="834.0" y="116.0"/>
      <point x="826.0" y="192.0"/>
      <point x="982.0" y="614.0" type="curve" smooth="yes"/>
      <point x="1136.0" y="1028.0"/>
      <point x="1222.0" y="1100.0"/>
      <point x="1240.0" y="1176.0" type="curve" smooth="yes"/>
      <point x="1250.0" y="1226.0"/>
      <point x="1232.0" y="1258.0"/>
      <point x="1190.0" y="1258.0" type="curve" smooth="yes"/>
      <point x="1138.0" y="1258.0"/>
      <point x="1098.0" y="1234.0"/>
      <point x="1074.0" y="1172.0" type="curve" smooth="yes"/>
      <point x="1038.0" y="1090.0"/>
      <point x="1072.0" y="1062.0"/>
    </contour>
    <contour>
      <point x="806.0" y="740.0" type="curve" smooth="yes"/>
      <point x="1114.0" y="740.0"/>
      <point x="1156.0" y="700.0"/>
      <point x="1210.0" y="700.0" type="curve" smooth="yes"/>
      <point x="1274.0" y="700.0"/>
      <point x="1314.0" y="742.0"/>
      <point x="1326.0" y="784.0" type="curve" smooth="yes"/>
      <point x="1336.0" y="820.0"/>
      <point x="1318.0" y="856.0"/>
      <point x="1260.0" y="856.0" type="curve" smooth="yes"/>
      <point x="1210.0" y="856.0"/>
      <point x="1140.0" y="814.0"/>
      <point x="826.0" y="816.0" type="curve" smooth="yes"/>
      <point x="522.0" y="816.0"/>
      <point x="478.0" y="858.0"/>
      <point x="426.0" y="858.0" type="curve" smooth="yes"/>
      <point x="362.0" y="858.0"/>
      <point x="324.0" y="824.0"/>
      <point x="314.0" y="786.0" type="curve" smooth="yes"/>
      <point x="302.0" y="738.0"/>
      <point x="324.0" y="706.0"/>
      <point x="386.0" y="704.0" type="curve" smooth="yes"/>
      <point x="436.0" y="702.0"/>
      <point x="502.0" y="740.0"/>
    </contour>
    <contour>
      <point x="692.0" y="406.0" type="curve" smooth="yes"/>
      <point x="1000.0" y="406.0"/>
      <point x="1042.0" y="368.0"/>
      <point x="1096.0" y="368.0" type="curve" smooth="yes"/>
      <point x="1160.0" y="368.0"/>
      <point x="1202.0" y="410.0"/>
      <point x="1214.0" y="452.0" type="curve" smooth="yes"/>
      <point x="1222.0" y="488.0"/>
      <point x="1204.0" y="524.0"/>
      <point x="1144.0" y="524.0" type="curve" smooth="yes"/>
      <point x="1096.0" y="524.0"/>
      <point x="1030.0" y="482.0"/>
      <point x="714.0" y="484.0" type="curve" smooth="yes"/>
      <point x="410.0" y="484.0"/>
      <point x="364.0" y="526.0"/>
      <point x="310.0" y="526.0" type="curve" smooth="yes"/>
      <point x="248.0" y="526.0"/>
      <point x="212.0" y="492.0"/>
      <point x="202.0" y="454.0" type="curve" smooth="yes"/>
      <point x="188.0" y="406.0"/>
      <point x="210.0" y="374.0"/>
      <point x="272.0" y="372.0" type="curve" smooth="yes"/>
      <point x="324.0" y="370.0"/>
      <point x="386.0" y="406.0"/>
    </contour>
  </outline>
</glyph>
<glyph name="dollar" format="2">
  <advance width="1026"/>
  <unicode hex="0024"/>
  <outline>
    <contour>
      <point x="528.0" y="0.0" type="curve" smooth="yes"/>
      <point x="776.0" y="0.0"/>
      <point x="964.0" y="150.0"/>
      <point x="1014.0" y="334.0" type="curve" smooth="yes"/>
      <point x="1048.0" y="466.0"/>
      <point x="994.0" y="590.0"/>
      <point x="772.0" y="686.0" type="curve" smooth="yes"/>
      <point x="558.0" y="764.0"/>
      <point x="506.0" y="850.0"/>
      <point x="536.0" y="964.0" type="curve" smooth="yes"/>
      <point x="574.0" y="1104.0"/>
      <point x="710.0" y="1186.0"/>
      <point x="848.0" y="1186.0" type="curve" smooth="yes"/>
      <point x="964.0" y="1186.0"/>
      <point x="1018.0" y="1116.0"/>
      <point x="994.0" y="1024.0" type="curve" smooth="yes"/>
      <point x="980.0" y="972.0" type="line" smooth="yes"/>
      <point x="964.0" y="912.0"/>
      <point x="1000.0" y="870.0"/>
      <point x="1054.0" y="870.0" type="curve" smooth="yes"/>
      <point x="1106.0" y="870.0"/>
      <point x="1164.0" y="918.0"/>
      <point x="1180.0" y="978.0" type="curve" smooth="yes"/>
      <point x="1222.0" y="1132.0"/>
      <point x="1086.0" y="1258.0"/>
      <point x="878.0" y="1258.0" type="curve" smooth="yes"/>
      <point x="620.0" y="1258.0"/>
      <point x="404.0" y="1098.0"/>
      <point x="352.0" y="906.0" type="curve" smooth="yes"/>
      <point x="310.0" y="744.0"/>
      <point x="386.0" y="632.0"/>
      <point x="606.0" y="548.0" type="curve" smooth="yes"/>
      <point x="814.0" y="464.0"/>
      <point x="864.0" y="378.0"/>
      <point x="834.0" y="270.0" type="curve" smooth="yes"/>
      <point x="802.0" y="146.0"/>
      <point x="688.0" y="74.0"/>
      <point x="552.0" y="74.0" type="curve" smooth="yes"/>
      <point x="414.0" y="74.0"/>
      <point x="350.0" y="152.0"/>
      <point x="378.0" y="254.0" type="curve" smooth="yes"/>
      <point x="392.0" y="306.0" type="line" smooth="yes"/>
      <point x="408.0" y="368.0"/>
      <point x="376.0" y="408.0"/>
      <point x="322.0" y="408.0" type="curve" smooth="yes"/>
      <point x="268.0" y="408.0"/>
      <point x="210.0" y="362.0"/>
      <point x="194.0" y="300.0" type="curve" smooth="yes"/>
      <point x="150.0" y="136.0"/>
      <point x="300.0" y="0.0"/>
    </contour>
    <contour>
      <point x="650.0" y="590.0" type="line"/>
      <point x="524.0" y="122.0"/>
      <point x="454.0" y="28.0"/>
      <point x="434.0" y="-48.0" type="curve" smooth="yes"/>
      <point x="416.0" y="-112.0"/>
      <point x="448.0" y="-140.0"/>
      <point x="490.0" y="-140.0" type="curve" smooth="yes"/>
      <point x="536.0" y="-140.0"/>
      <point x="574.0" y="-110.0"/>
      <point x="594.0" y="-48.0" type="curve" smooth="yes"/>
      <point x="616.0" y="28.0"/>
      <point x="592.0" y="120.0"/>
      <point x="718.0" y="590.0" type="curve"/>
    </contour>
    <contour>
      <point x="736.0" y="670.0" type="line"/>
      <point x="864.0" y="1148.0"/>
      <point x="934.0" y="1234.0"/>
      <point x="956.0" y="1316.0" type="curve" smooth="yes"/>
      <point x="974.0" y="1378.0"/>
      <point x="938.0" y="1408.0"/>
      <point x="900.0" y="1408.0" type="curve" smooth="yes"/>
      <point x="856.0" y="1408.0"/>
      <point x="812.0" y="1380.0"/>
      <point x="796.0" y="1320.0" type="curve" smooth="yes"/>
      <point x="776.0" y="1248.0"/>
      <point x="802.0" y="1156.0"/>
      <point x="670.0" y="670.0" type="curve"/>
    </contour>
  </outline>
</glyph>
<glyph name="percent" format="2">
  <advance width="1610"/>
  <unicode hex="0025"/>
  <outline>
    <contour>
      <point x="1650.0" y="1160.0" type="curve" smooth="yes"/>
      <point x="1684.0" y="1188.0"/>
      <point x="1702.0" y="1214.0"/>
      <point x="1708.0" y="1240.0" type="curve" smooth="yes"/>
      <point x="1716.0" y="1270.0"/>
      <point x="1698.0" y="1300.0"/>
      <point x="1664.0" y="1300.0" type="curve" smooth="yes"/>
      <point x="1634.0" y="1300.0"/>
      <point x="1604.0" y="1286.0"/>
      <point x="1576.0" y="1256.0" type="curve" smooth="yes"/>
      <point x="1426.0" y="1100.0"/>
      <point x="1114.0" y="790.0"/>
      <point x="1028.0" y="710.0" type="curve" smooth="yes"/>
      <point x="934.0" y="620.0"/>
      <point x="556.0" y="278.0"/>
      <point x="322.0" y="80.0" type="curve" smooth="yes"/>
      <point x="304.0" y="64.0"/>
      <point x="294.0" y="48.0"/>
      <point x="292.0" y="34.0" type="curve" smooth="yes"/>
      <point x="284.0" y="8.0"/>
      <point x="294.0" y="-32.0"/>
      <point x="346.0" y="-32.0" type="curve" smooth="yes"/>
      <point x="374.0" y="-32.0"/>
      <point x="402.0" y="-24.0"/>
      <point x="434.0" y="10.0" type="curve" smooth="yes"/>
      <point x="620.0" y="198.0"/>
      <point x="940.0" y="528.0"/>
      <point x="1076.0" y="656.0" type="curve" smooth="yes"/>
      <point x="1182.0" y="756.0"/>
      <point x="1488.0" y="1024.0"/>
    </contour>
    <contour>
      <point x="754.0" y="1302.0" type="curve" smooth="yes"/>
      <point x="582.0" y="1302.0"/>
      <point x="432.0" y="1158.0"/>
      <point x="396.0" y="952.0" type="curve" smooth="yes"/>
      <point x="358.0" y="742.0"/>
      <point x="456.0" y="594.0"/>
      <point x="628.0" y="594.0" type="curve" smooth="yes"/>
      <point x="802.0" y="594.0"/>
      <point x="954.0" y="742.0"/>
      <point x="992.0" y="952.0" type="curve" smooth="yes"/>
      <point x="1028.0" y="1158.0"/>
      <point x="928.0" y="1302.0"/>
    </contour>
    <contour>
      <point x="824.0" y="906.0" type="curve" smooth="yes"/>
      <point x="800.0" y="770.0"/>
      <point x="732.0" y="676.0"/>
      <point x="662.0" y="676.0" type="curve" smooth="yes"/>
      <point x="570.0" y="676.0"/>
      <point x="528.0" y="804.0"/>
      <point x="560.0" y="990.0" type="curve" smooth="yes"/>
      <point x="584.0" y="1120.0"/>
      <point x="656.0" y="1220.0"/>
      <point x="728.0" y="1220.0" type="curve" smooth="yes"/>
      <point x="818.0" y="1220.0"/>
      <point x="856.0" y="1092.0"/>
    </contour>
    <contour>
      <point x="1368.0" y="678.0" type="curve" smooth="yes"/>
      <point x="1196.0" y="678.0"/>
      <point x="1046.0" y="534.0"/>
      <point x="1010.0" y="328.0" type="curve" smooth="yes"/>
      <point x="972.0" y="118.0"/>
      <point x="1070.0" y="-30.0"/>
      <point x="1242.0" y="-30.0" type="curve" smooth="yes"/>
      <point x="1416.0" y="-30.0"/>
      <point x="1568.0" y="118.0"/>
      <point x="1606.0" y="328.0" type="curve" smooth="yes"/>
      <point x="1642.0" y="534.0"/>
      <point x="1542.0" y="678.0"/>
    </contour>
    <contour>
      <point x="1438.0" y="282.0" type="curve" smooth="yes"/>
      <point x="1414.0" y="146.0"/>
      <point x="1346.0" y="52.0"/>
      <point x="1276.0" y="52.0" type="curve" smooth="yes"/>
      <point x="1184.0" y="52.0"/>
      <point x="1142.0" y="180.0"/>
      <point x="1174.0" y="366.0" type="curve" smooth="yes"/>
      <point x="1198.0" y="496.0"/>
      <point x="1270.0" y="596.0"/>
      <point x="1342.0" y="596.0" type="curve" smooth="yes"/>
      <point x="1432.0" y="596.0"/>
      <point x="1470.0" y="468.0"/>
    </contour>
  </outline>
</glyph>
<glyph name="ampersand" format="2">
  <advance width="1226"/>
  <unicode hex="0026"/>
  <outline>
    <contour>
      <point x="354.0" y="306.0" type="line" smooth="yes"/>
      <point x="77.48111499877172" y="88.31492031818198"/>
      <point x="-38.0" y="-110.0"/>
      <point x="-38.0" y="-320.0" type="curve" smooth="yes"/>
      <point x="-38.0" y="-430.0"/>
      <point x="20.0" y="-490.0"/>
      <point x="94.0" y="-490.0" type="curve" smooth="yes"/>
      <point x="158.0" y="-490.0"/>
      <point x="206.0" y="-438.0"/>
      <point x="206.0" y="-374.0" type="curve" smooth="yes"/>
      <point x="206.0" y="-284.0"/>
      <point x="130.0" y="-246.0"/>
      <point x="130.0" y="-150.0" type="curve" smooth="yes"/>
      <point x="130.0" y="-34.0"/>
      <point x="190.0" y="76.0"/>
      <point x="402.0" y="242.0" type="curve" smooth="yes"/>
      <point x="1062.0" y="756.0" type="line" smooth="yes"/>
      <point x="1312.0" y="952.0"/>
      <point x="1400.0" y="1072.0"/>
      <point x="1400.0" y="1236.0" type="curve" smooth="yes"/>
      <point x="1400.0" y="1358.0"/>
      <point x="1322.9268292682927" y="1430.0"/>
      <point x="1242.0" y="1430.0" type="curve" smooth="yes"/>
      <point x="1176.4905660377358" y="1430.0"/>
      <point x="1130.0" y="1372.0"/>
      <point x="1130.0" y="1320.0" type="curve" smooth="yes"/>
      <point x="1130.0" y="1246.0"/>
      <point x="1220.0" y="1202.0"/>
      <point x="1220.0" y="1108.0" type="curve" smooth="yes"/>
      <point x="1220.0" y="1020.0"/>
      <point x="1166.0" y="946.0"/>
      <point x="1012.0" y="824.0" type="curve" smooth="yes"/>
    </contour>
    <contour>
      <point x="1112.0" y="364.0" type="curve" smooth="yes"/>
      <point x="1112.0" y="232.47058823529412"/>
      <point x="978.0" y="106.0"/>
      <point x="772.0" y="106.0" type="curve" smooth="yes"/>
      <point x="570.0" y="106.0"/>
      <point x="440.0" y="242.29714285714286"/>
      <point x="440.0" y="462.0" type="curve" smooth="yes"/>
      <point x="440.0" y="664.0"/>
      <point x="599.7677419354839" y="828.0"/>
      <point x="742.0" y="828.0" type="curve" smooth="yes"/>
      <point x="856.0" y="828.0"/>
      <point x="894.0" y="760.1917808219179"/>
      <point x="894.0" y="678.0" type="curve" smooth="yes"/>
      <point x="894.0" y="664.5806451612904"/>
      <point x="811.0288023043605" y="561.6573107668077"/>
      <point x="828.0" y="574.0" type="curve" smooth="yes"/>
      <point x="882.0" y="616.0"/>
      <point x="928.0" y="654.0"/>
      <point x="972.0" y="654.0" type="curve" smooth="yes"/>
      <point x="1034.0" y="654.0"/>
      <point x="1074.0" y="696.0"/>
      <point x="1074.0" y="750.0" type="curve" smooth="yes"/>
      <point x="1074.0" y="866.0"/>
      <point x="976.0" y="960.0"/>
      <point x="838.0" y="960.0" type="curve" smooth="yes"/>
      <point x="560.0" y="960.0"/>
      <point x="296.0" y="650.0"/>
      <point x="296.0" y="356.0" type="curve" smooth="yes"/>
      <point x="296.0" y="122.0"/>
      <point x="442.0" y="-30.0"/>
      <point x="690.0" y="-30.0" type="curve" smooth="yes"/>
      <point x="1028.0" y="-30.0"/>
      <point x="1292.0" y="224.0"/>
      <point x="1292.0" y="474.0" type="curve" smooth="yes"/>
      <point x="1292.0" y="566.0"/>
      <point x="1262.0" y="614.0"/>
      <point x="1192.0" y="614.0" type="curve" smooth="yes"/>
      <point x="1122.5263157894738" y="614.0"/>
      <point x="1082.0" y="564.0"/>
      <point x="1082.0" y="502.0" type="curve" smooth="yes"/>
      <point x="1082.0" y="455.48314606741576"/>
      <point x="1112.0" y="426.02247191011236"/>
    </contour>
  </outline>
</glyph>
<glyph name="parenleft" format="2">
  <advance width="790"/>
  <unicode hex="0028"/>
  <outline>
    <contour>
      <point x="336.0" y="574.0" type="curve" smooth="yes"/>
      <point x="212.0" y="112.0"/>
      <point x="372.0" y="-240.0"/>
      <point x="630.0" y="-344.0" type="curve" smooth="yes"/>
      <point x="636.0" y="-346.0"/>
      <point x="640.0" y="-346.0"/>
      <point x="646.0" y="-346.0" type="curve" smooth="yes"/>
      <point x="664.0" y="-346.0"/>
      <point x="680.0" y="-330.0"/>
      <point x="684.0" y="-310.0" type="curve" smooth="yes"/>
      <point x="688.0" y="-298.0"/>
      <point x="686.0" y="-282.0"/>
      <point x="670.0" y="-276.0" type="curve" smooth="yes"/>
      <point x="462.0" y="-166.0"/>
      <point x="396.0" y="142.0"/>
      <point x="512.0" y="574.0" type="curve" smooth="yes"/>
      <point x="628.0" y="1008.0"/>
      <point x="858.0" y="1316.0"/>
      <point x="1126.0" y="1424.0" type="curve" smooth="yes"/>
      <point x="1146.0" y="1432.0"/>
      <point x="1156.0" y="1446.0"/>
      <point x="1160.0" y="1460.0" type="curve" smooth="yes"/>
      <point x="1164.0" y="1478.0"/>
      <point x="1156.0" y="1496.0"/>
      <point x="1138.0" y="1496.0" type="curve" smooth="yes"/>
      <point x="1132.0" y="1496.0"/>
      <point x="1128.0" y="1496.0"/>
      <point x="1122.0" y="1494.0" type="curve" smooth="yes"/>
      <point x="808.0" y="1388.0"/>
      <point x="460.0" y="1038.0"/>
    </contour>
  </outline>
</glyph>
<glyph name="parenright" format="2">
  <advance width="790"/>
  <unicode hex="0029"/>
  <outline>
    <contour>
      <point x="760.0" y="590.0" type="curve" smooth="yes"/>
      <point x="884.0" y="1052.0"/>
      <point x="724.0" y="1404.0"/>
      <point x="466.0" y="1508.0" type="curve" smooth="yes"/>
      <point x="460.0" y="1510.0"/>
      <point x="456.0" y="1510.0"/>
      <point x="450.0" y="1510.0" type="curve" smooth="yes"/>
      <point x="432.0" y="1510.0"/>
      <point x="416.0" y="1494.0"/>
      <point x="412.0" y="1474.0" type="curve" smooth="yes"/>
      <point x="408.0" y="1462.0"/>
      <point x="410.0" y="1446.0"/>
      <point x="426.0" y="1440.0" type="curve" smooth="yes"/>
      <point x="634.0" y="1330.0"/>
      <point x="700.0" y="1022.0"/>
      <point x="584.0" y="590.0" type="curve" smooth="yes"/>
      <point x="468.0" y="156.0"/>
      <point x="238.0" y="-152.0"/>
      <point x="-30.0" y="-260.0" type="curve" smooth="yes"/>
      <point x="-50.0" y="-268.0"/>
      <point x="-60.0" y="-282.0"/>
      <point x="-64.0" y="-296.0" type="curve" smooth="yes"/>
      <point x="-68.0" y="-314.0"/>
      <point x="-60.0" y="-332.0"/>
      <point x="-42.0" y="-332.0" type="curve" smooth="yes"/>
      <point x="-36.0" y="-332.0"/>
      <point x="-32.0" y="-332.0"/>
      <point x="-26.0" y="-330.0" type="curve" smooth="yes"/>
      <point x="288.0" y="-224.0"/>
      <point x="636.0" y="126.0"/>
    </contour>
  </outline>
</glyph>
<glyph name="plus" format="2">
  <advance width="996"/>
  <unicode hex="002B"/>
  <outline>
    <contour>
      <point x="262.0" y="606.0" type="curve" smooth="yes"/>
      <point x="252.0" y="570.0"/>
      <point x="280.0" y="542.0"/>
      <point x="318.0" y="542.0" type="curve" smooth="yes"/>
      <point x="432.0" y="542.0"/>
      <point x="572.0" y="570.0"/>
      <point x="656.0" y="570.0" type="curve" smooth="yes"/>
      <point x="742.0" y="570.0"/>
      <point x="864.0" y="542.0"/>
      <point x="970.0" y="542.0" type="curve" smooth="yes"/>
      <point x="1014.0" y="542.0"/>
      <point x="1048.0" y="570.0"/>
      <point x="1058.0" y="606.0" type="curve" smooth="yes"/>
      <point x="1068.0" y="644.0"/>
      <point x="1046.0" y="674.0"/>
      <point x="1004.0" y="674.0" type="curve" smooth="yes"/>
      <point x="898.0" y="674.0"/>
      <point x="764.0" y="646.0"/>
      <point x="678.0" y="646.0" type="curve" smooth="yes"/>
      <point x="580.0" y="646.0"/>
      <point x="466.0" y="674.0"/>
      <point x="354.0" y="674.0" type="curve" smooth="yes"/>
      <point x="318.0" y="674.0"/>
      <point x="272.0" y="644.0"/>
    </contour>
    <contour>
      <point x="562.0" y="206.0" type="curve" smooth="yes"/>
      <point x="598.0" y="206.0"/>
      <point x="634.0" y="240.0"/>
      <point x="644.0" y="278.0" type="curve" smooth="yes"/>
      <point x="676.0" y="392.0"/>
      <point x="682.0" y="526.0"/>
      <point x="706.0" y="610.0" type="curve" smooth="yes"/>
      <point x="728.0" y="696.0"/>
      <point x="790.0" y="824.0"/>
      <point x="820.0" y="930.0" type="curve" smooth="yes"/>
      <point x="830.0" y="974.0"/>
      <point x="810.0" y="1002.0"/>
      <point x="774.0" y="1002.0" type="curve" smooth="yes"/>
      <point x="736.0" y="1002.0"/>
      <point x="698.0" y="972.0"/>
      <point x="688.0" y="930.0" type="curve" smooth="yes"/>
      <point x="658.0" y="824.0"/>
      <point x="652.0" y="696.0"/>
      <point x="630.0" y="610.0" type="curve" smooth="yes"/>
      <point x="604.0" y="512.0"/>
      <point x="544.0" y="392.0"/>
      <point x="514.0" y="280.0" type="curve" smooth="yes"/>
      <point x="504.0" y="244.0"/>
      <point x="524.0" y="206.0"/>
    </contour>
  </outline>
</glyph>
<glyph name="period" format="2">
  <advance width="550"/>
  <unicode hex="002E"/>
  <outline>
    <contour>
      <point x="300.0" y="-30.0" type="curve" smooth="yes"/>
      <point x="384.0" y="-30.0"/>
      <point x="490.0" y="104.35714285714286"/>
      <point x="490.0" y="234.0" type="curve" smooth="yes"/>
      <point x="490.0" y="282.0"/>
      <point x="454.0" y="316.0"/>
      <point x="410.0" y="316.0" type="curve" smooth="yes"/>
      <point x="320.0" y="316.0"/>
      <point x="218.0" y="174.3783783783784"/>
      <point x="218.0" y="54.0" type="curve" smooth="yes"/>
      <point x="218.0" y="6.0"/>
      <point x="254.0" y="-30.0"/>
    </contour>
  </outline>
</glyph>
<glyph name="slash" format="2">
  <advance width="840"/>
  <unicode hex="002F"/>
  <outline>
    <contour>
      <point x="736.2006661732962" y="1404.0" type="curve" smooth="yes"/>
      <point x="746.6314467916432" y="1428.0"/>
      <point x="751.9904306402657" y="1448.0"/>
      <point x="752.2776177191636" y="1464.0" type="curve" smooth="yes"/>
      <point x="751.5314838012707" y="1506.0"/>
      <point x="721.0340611893422" y="1534.0"/>
      <point x="685.0340611893422" y="1534.0" type="curve" smooth="yes"/>
      <point x="645.0340611893422" y="1534.0"/>
      <point x="619.923788646684" y="1500.0"/>
      <point x="612.2776177191636" y="1464.0" type="curve" smooth="yes"/>
      <point x="558.2569986145921" y="1240.0"/>
      <point x="424.50294748434715" y="808.0"/>
      <point x="383.81314600775016" y="686.0" type="curve" smooth="yes"/>
      <point x="347.2669380706022" y="572.0"/>
      <point x="187.3692934009082" y="132.0"/>
      <point x="103.63586137523464" y="-76.0" type="curve" smooth="yes"/>
      <point x="87.98969044771422" y="-112.0"/>
      <point x="86.0948082142296" y="-134.0"/>
      <point x="86.73582436560707" y="-154.0" type="curve" smooth="yes"/>
      <point x="85.23324697753571" y="-182.0"/>
      <point x="111.19477120460203" y="-212.0"/>
      <point x="145.19477120460203" y="-212.0" type="curve" smooth="yes"/>
      <point x="185.19477120460203" y="-212.0"/>
      <point x="222.16145020781119" y="-186.0"/>
      <point x="238.77430013854075" y="-124.0" type="curve" smooth="yes"/>
      <point x="286.11542731880104" y="90.0"/>
      <point x="403.4386978306991" y="498.0"/>
      <point x="460.31056861967875" y="658.0" type="curve" smooth="yes"/>
      <point x="505.4311507146226" y="804.0"/>
      <point x="647.1467260719339" y="1206.0"/>
    </contour>
  </outline>
</glyph>
<glyph name="one" format="2">
  <advance width="884"/>
  <unicode hex="0031"/>
  <outline>
    <contour>
      <point x="464.0" y="1104.0" type="line" smooth="yes"/>
      <point x="426.0" y="1104.0"/>
      <point x="414.0" y="1124.0"/>
      <point x="420.0" y="1152.0" type="curve" smooth="yes"/>
      <point x="428.0" y="1180.0"/>
      <point x="458.0" y="1202.0"/>
      <point x="498.0" y="1202.0" type="curve" smooth="yes"/>
      <point x="584.0" y="1202.0" type="line" smooth="yes"/>
      <point x="658.0" y="1202.0"/>
      <point x="714.0" y="1212.0"/>
      <point x="778.0" y="1262.0" type="curve" smooth="yes"/>
      <point x="808.0" y="1288.0"/>
      <point x="832.0" y="1300.0"/>
      <point x="864.0" y="1300.0" type="curve" smooth="yes"/>
      <point x="898.0" y="1300.0"/>
      <point x="914.0" y="1282.0"/>
      <point x="902.0" y="1236.0" type="curve" smooth="yes"/>
      <point x="626.0" y="206.0" type="line" smooth="yes"/>
      <point x="610.0" y="150.0"/>
      <point x="640.0" y="108.0"/>
      <point x="696.0" y="104.0" type="curve" smooth="yes"/>
      <point x="812.0" y="96.0" type="line" smooth="yes"/>
      <point x="846.0" y="94.0"/>
      <point x="864.0" y="78.0"/>
      <point x="858.0" y="52.0" type="curve" smooth="yes"/>
      <point x="848.0" y="16.0"/>
      <point x="824.0" y="0.0"/>
      <point x="786.0" y="0.0" type="curve" smooth="yes"/>
      <point x="140.0" y="0.0" type="line" smooth="yes"/>
      <point x="102.0" y="0.0"/>
      <point x="84.0" y="16.0"/>
      <point x="94.0" y="52.0" type="curve" smooth="yes"/>
      <point x="102.0" y="82.0"/>
      <point x="128.0" y="100.0"/>
      <point x="170.0" y="102.0" type="curve" smooth="yes"/>
      <point x="284.0" y="110.0" type="line" smooth="yes"/>
      <point x="348.0" y="114.0"/>
      <point x="412.0" y="148.0"/>
      <point x="428.0" y="206.0" type="curve" smooth="yes"/>
      <point x="638.0" y="990.0" type="line" smooth="yes"/>
      <point x="658.0" y="1070.0"/>
      <point x="628.0" y="1104.0"/>
      <point x="562.0" y="1104.0" type="curve" smooth="yes"/>
    </contour>
  </outline>
</glyph>
<glyph name="two" format="2">
  <advance width="1070"/>
  <unicode hex="0032"/>
  <outline>
    <contour>
      <point x="608.0" y="568.0" type="curve" smooth="yes"/>
      <point x="294.0" y="410.0"/>
      <point x="160.0" y="228.0"/>
      <point x="124.0" y="68.0" type="curve" smooth="yes"/>
      <point x="110.0" y="6.0"/>
      <point x="132.0" y="-30.0"/>
      <point x="186.0" y="-30.0" type="curve" smooth="yes"/>
      <point x="276.0" y="-30.0"/>
      <point x="316.0" y="120.0"/>
      <point x="430.0" y="120.0" type="curve" smooth="yes"/>
      <point x="552.0" y="120.0"/>
      <point x="604.0" y="-30.0"/>
      <point x="746.0" y="-30.0" type="curve" smooth="yes"/>
      <point x="920.0" y="-30.0"/>
      <point x="1030.0" y="88.0"/>
      <point x="1068.0" y="250.0" type="curve" smooth="yes"/>
      <point x="1074.0" y="278.0"/>
      <point x="1070.0" y="302.0"/>
      <point x="1042.0" y="302.0" type="curve" smooth="yes"/>
      <point x="1024.0" y="302.0"/>
      <point x="1004.0" y="294.0"/>
      <point x="982.0" y="256.0" type="curve" smooth="yes"/>
      <point x="950.0" y="202.0"/>
      <point x="914.0" y="178.0"/>
      <point x="844.0" y="178.0" type="curve" smooth="yes"/>
      <point x="732.0" y="178.0"/>
      <point x="658.0" y="276.0"/>
      <point x="498.0" y="276.0" type="curve" smooth="yes"/>
      <point x="346.0" y="276.0"/>
      <point x="248.0" y="172.0"/>
      <point x="222.0" y="64.0" type="curve"/>
      <point x="238.0" y="66.0" type="line"/>
      <point x="274.0" y="224.0"/>
      <point x="370.0" y="344.0"/>
      <point x="678.0" y="496.0" type="curve" smooth="yes"/>
      <point x="996.0" y="650.0"/>
      <point x="1140.0" y="756.0"/>
      <point x="1184.0" y="946.0" type="curve" smooth="yes"/>
      <point x="1228.0" y="1146.0"/>
      <point x="1114.0" y="1300.0"/>
      <point x="870.0" y="1300.0" type="curve" smooth="yes"/>
      <point x="608.0" y="1300.0"/>
      <point x="392.0" y="1104.0"/>
      <point x="362.0" y="968.0" type="curve" smooth="yes"/>
      <point x="340.0" y="880.0"/>
      <point x="376.0" y="830.0"/>
      <point x="446.0" y="830.0" type="curve" smooth="yes"/>
      <point x="498.0" y="830.0"/>
      <point x="570.0" y="884.0"/>
      <point x="588.0" y="960.0" type="curve" smooth="yes"/>
      <point x="606.0" y="1040.0" type="line" smooth="yes"/>
      <point x="628.0" y="1138.0"/>
      <point x="696.0" y="1206.0"/>
      <point x="824.0" y="1206.0" type="curve" smooth="yes"/>
      <point x="940.0" y="1206.0"/>
      <point x="1016.0" y="1118.0"/>
      <point x="976.0" y="948.0" type="curve" smooth="yes"/>
      <point x="938.0" y="776.0"/>
      <point x="830.0" y="684.0"/>
    </contour>
  </outline>
</glyph>
<glyph name="three" format="2">
  <advance width="1030"/>
  <unicode hex="0033"/>
  <outline>
    <contour>
      <point x="666.0" y="654.0" type="line"/>
      <point x="1204.0" y="1136.0" type="line" smooth="yes"/>
      <point x="1246.0" y="1172.0"/>
      <point x="1260.0" y="1192.0"/>
      <point x="1264.0" y="1212.0" type="curve" smooth="yes"/>
      <point x="1274.0" y="1246.0"/>
      <point x="1246.0" y="1270.0"/>
      <point x="1218.0" y="1270.0" type="curve" smooth="yes"/>
      <point x="568.0" y="1270.0" type="line" smooth="yes"/>
      <point x="522.0" y="1270.0"/>
      <point x="488.0" y="1232.0"/>
      <point x="468.0" y="1178.0" type="curve" smooth="yes"/>
      <point x="396.0" y="984.0" type="line" smooth="yes"/>
      <point x="382.0" y="946.0"/>
      <point x="396.0" y="926.0"/>
      <point x="420.0" y="926.0" type="curve" smooth="yes"/>
      <point x="450.0" y="926.0"/>
      <point x="480.0" y="952.0"/>
      <point x="500.0" y="980.0" type="curve" smooth="yes"/>
      <point x="546.0" y="1038.0" type="line" smooth="yes"/>
      <point x="586.0" y="1088.0"/>
      <point x="626.0" y="1106.0"/>
      <point x="682.0" y="1106.0" type="curve" smooth="yes"/>
      <point x="1066.0" y="1106.0" type="line"/>
      <point x="1064.0" y="1144.0" type="line"/>
      <point x="558.0" y="692.0" type="line" smooth="yes"/>
      <point x="542.0" y="678.0"/>
      <point x="530.0" y="662.0"/>
      <point x="524.0" y="644.0" type="curve" smooth="yes"/>
      <point x="518.0" y="616.0"/>
      <point x="534.0" y="596.0"/>
      <point x="564.0" y="596.0" type="curve" smooth="yes"/>
      <point x="634.0" y="596.0" type="line" smooth="yes"/>
      <point x="802.0" y="596.0"/>
      <point x="890.0" y="500.0"/>
      <point x="840.0" y="310.0" type="curve" smooth="yes"/>
      <point x="800.0" y="166.0"/>
      <point x="690.0" y="72.0"/>
      <point x="562.0" y="70.0" type="curve" smooth="yes"/>
      <point x="438.0" y="68.0"/>
      <point x="370.0" y="130.0"/>
      <point x="392.0" y="208.0" type="curve" smooth="yes"/>
      <point x="406.0" y="260.0" type="line" smooth="yes"/>
      <point x="426.0" y="334.0"/>
      <point x="386.0" y="386.0"/>
      <point x="320.0" y="386.0" type="curve" smooth="yes"/>
      <point x="258.0" y="386.0"/>
      <point x="190.0" y="334.0"/>
      <point x="170.0" y="264.0" type="curve" smooth="yes"/>
      <point x="128.0" y="102.0"/>
      <point x="230.0" y="-30.0"/>
      <point x="474.0" y="-30.0" type="curve" smooth="yes"/>
      <point x="732.0" y="-30.0"/>
      <point x="974.0" y="128.0"/>
      <point x="1042.0" y="378.0" type="curve" smooth="yes"/>
      <point x="1100.0" y="596.0"/>
      <point x="962.0" y="700.0"/>
      <point x="702.0" y="700.0" type="curve" smooth="yes"/>
      <point x="696.0" y="700.0"/>
      <point x="664.0" y="700.0"/>
      <point x="656.0" y="700.0" type="curve"/>
    </contour>
  </outline>
</glyph>
<glyph name="four" format="2">
  <advance width="1030"/>
  <unicode hex="0034"/>
  <outline>
    <contour>
      <point x="782.0" y="720.0"/>
      <point x="758.0" y="698.0"/>
      <point x="750.0" y="670.0" type="curve" smooth="yes"/>
      <point x="626.0" y="198.0" type="line" smooth="yes"/>
      <point x="610.0" y="142.0"/>
      <point x="578.0" y="112.0"/>
      <point x="524.0" y="102.0" type="curve" smooth="yes"/>
      <point x="428.0" y="88.0" type="line" smooth="yes"/>
      <point x="388.0" y="82.0"/>
      <point x="364.0" y="70.0"/>
      <point x="356.0" y="40.0" type="curve" smooth="yes"/>
      <point x="350.0" y="12.0"/>
      <point x="364.0" y="0.0"/>
      <point x="410.0" y="0.0" type="curve" smooth="yes"/>
      <point x="900.0" y="0.0" type="line" smooth="yes"/>
      <point x="944.0" y="0.0"/>
      <point x="968.0" y="12.0"/>
      <point x="974.0" y="40.0" type="curve" smooth="yes"/>
      <point x="982.0" y="70.0"/>
      <point x="964.0" y="82.0"/>
      <point x="928.0" y="88.0" type="curve" smooth="yes"/>
      <point x="870.0" y="98.0" type="line" smooth="yes"/>
      <point x="822.0" y="104.0"/>
      <point x="804.0" y="136.0"/>
      <point x="820.0" y="192.0" type="curve" smooth="yes"/>
      <point x="996.0" y="856.0" type="line" smooth="yes"/>
      <point x="1000.0" y="876.0"/>
      <point x="990.0" y="884.0"/>
      <point x="972.0" y="884.0" type="curve" smooth="yes"/>
      <point x="954.0" y="884.0"/>
      <point x="936.0" y="878.0"/>
      <point x="908.0" y="848.0" type="curve" smooth="yes"/>
      <point x="810.0" y="750.0" type="line" smooth="yes"/>
    </contour>
    <contour>
      <point x="552.0" y="824.0" type="curve" smooth="yes"/>
      <point x="200.0" y="478.0" type="line" smooth="yes"/>
      <point x="152.0" y="430.0"/>
      <point x="150.0" y="404.0"/>
      <point x="146.0" y="386.0" type="curve" smooth="yes"/>
      <point x="136.0" y="348.0"/>
      <point x="154.0" y="326.0"/>
      <point x="198.0" y="326.0" type="curve" smooth="yes"/>
      <point x="1002.0" y="326.0" type="line" smooth="yes"/>
      <point x="1040.0" y="326.0"/>
      <point x="1064.0" y="344.0"/>
      <point x="1072.0" y="384.0" type="curve" smooth="yes"/>
      <point x="1080.0" y="416.0"/>
      <point x="1062.0" y="430.0"/>
      <point x="1030.0" y="430.0" type="curve" smooth="yes"/>
      <point x="220.0" y="430.0" type="line"/>
      <point x="236.0" y="370.0" type="line"/>
      <point x="778.0" y="914.0" type="line" smooth="yes"/>
      <point x="880.0" y="1016.0"/>
      <point x="922.0" y="1076.0"/>
      <point x="944.0" y="1156.0" type="curve" smooth="yes"/>
      <point x="966.0" y="1242.0"/>
      <point x="926.0" y="1300.0"/>
      <point x="852.0" y="1300.0" type="curve" smooth="yes"/>
      <point x="762.0" y="1300.0"/>
      <point x="692.0" y="1242.0"/>
      <point x="676.0" y="1178.0" type="curve" smooth="yes"/>
      <point x="656.0" y="1104.0"/>
      <point x="688.0" y="1080.0"/>
      <point x="668.0" y="1010.0" type="curve" smooth="yes"/>
      <point x="646.0" y="928.0"/>
      <point x="604.0" y="876.0"/>
    </contour>
  </outline>
</glyph>
<glyph name="five" format="2">
  <advance width="1034"/>
  <unicode hex="0035"/>
  <outline>
    <contour>
      <point x="182.0" y="254.0" type="curve" smooth="yes"/>
      <point x="148.0" y="100.0"/>
      <point x="278.0" y="-30.0"/>
      <point x="478.0" y="-30.0" type="curve" smooth="yes"/>
      <point x="754.0" y="-30.0"/>
      <point x="1008.0" y="140.0"/>
      <point x="1068.0" y="396.0" type="curve" smooth="yes"/>
      <point x="1122.0" y="630.0"/>
      <point x="990.0" y="788.0"/>
      <point x="740.0" y="788.0" type="curve" smooth="yes"/>
      <point x="610.0" y="788.0"/>
      <point x="481.28135416018483" y="742.5691057315336"/>
      <point x="380.0" y="626.0" type="curve"/>
      <point x="432.0" y="606.0" type="line"/>
      <point x="586.0" y="1170.0" type="line"/>
      <point x="524.0" y="1136.0" type="line"/>
      <point x="559.7625639672701" y="1040.6331627539464"/>
      <point x="672.9736842105262" y="976.0"/>
      <point x="830.0" y="976.0" type="curve" smooth="yes"/>
      <point x="1052.7867298578199" y="976.0"/>
      <point x="1245.8662556411246" y="1105.398150385061"/>
      <point x="1282.0" y="1268.0" type="curve" smooth="yes"/>
      <point x="1288.0" y="1292.0"/>
      <point x="1274.0" y="1302.0"/>
      <point x="1252.0" y="1302.0" type="curve" smooth="yes"/>
      <point x="1228.0" y="1302.0"/>
      <point x="1206.0" y="1286.0"/>
      <point x="1182.0" y="1252.0" type="curve" smooth="yes"/>
      <point x="1118.2898999655017" y="1173.4242099574521"/>
      <point x="1036.2222222222222" y="1146.0"/>
      <point x="936.0" y="1146.0" type="curve" smooth="yes"/>
      <point x="785.1017964071857" y="1146.0"/>
      <point x="704.406779661017" y="1300.0"/>
      <point x="600.0" y="1300.0" type="curve" smooth="yes"/>
      <point x="530.0" y="1300.0"/>
      <point x="494.0" y="1260.0"/>
      <point x="476.0" y="1196.0" type="curve" smooth="yes"/>
      <point x="312.0" y="590.0" type="line" smooth="yes"/>
      <point x="304.0" y="558.0"/>
      <point x="326.0" y="532.0"/>
      <point x="354.0" y="532.0" type="curve" smooth="yes"/>
      <point x="380.0" y="532.0"/>
      <point x="412.0" y="548.0"/>
      <point x="444.0" y="582.0" type="curve" smooth="yes"/>
      <point x="513.066136403557" y="652.9327887387883"/>
      <point x="592.0" y="672.0"/>
      <point x="666.0" y="672.0" type="curve" smooth="yes"/>
      <point x="830.0" y="672.0"/>
      <point x="896.0" y="560.0"/>
      <point x="848.0" y="358.0" type="curve" smooth="yes"/>
      <point x="806.0" y="176.0"/>
      <point x="684.0" y="72.0"/>
      <point x="548.0" y="72.0" type="curve" smooth="yes"/>
      <point x="444.0" y="72.0"/>
      <point x="398.0" y="128.0"/>
      <point x="410.0" y="188.0" type="curve" smooth="yes"/>
      <point x="424.0" y="252.0" type="line" smooth="yes"/>
      <point x="442.0" y="334.0"/>
      <point x="400.0" y="388.0"/>
      <point x="330.0" y="388.0" type="curve" smooth="yes"/>
      <point x="266.0" y="388.0"/>
      <point x="200.0" y="330.0"/>
    </contour>
  </outline>
</glyph>
<glyph name="six" format="2">
  <advance width="1100"/>
  <unicode hex="0036"/>
  <outline>
    <contour>
      <point x="980.0" y="1300.0" type="curve" smooth="yes"/>
      <point x="548.0" y="1300.0"/>
      <point x="244.0" y="838.0"/>
      <point x="244.0" y="352.0" type="curve" smooth="yes"/>
      <point x="244.0" y="90.0"/>
      <point x="379.9012345679012" y="-30.0"/>
      <point x="588.0" y="-30.0" type="curve" smooth="yes"/>
      <point x="910.6006825938566" y="-30.0"/>
      <point x="1154.0" y="256.0"/>
      <point x="1154.0" y="530.0" type="curve" smooth="yes"/>
      <point x="1154.0" y="712.0"/>
      <point x="1044.0" y="810.0"/>
      <point x="866.0" y="810.0" type="curve" smooth="yes"/>
      <point x="628.0" y="810.0"/>
      <point x="420.0" y="648.0"/>
      <point x="362.0" y="422.0" type="curve"/>
      <point x="430.0" y="394.0" type="line"/>
      <point x="475.8188414595613" y="572.6934816922891"/>
      <point x="635.3450292397661" y="700.0"/>
      <point x="792.0" y="700.0" type="curve" smooth="yes"/>
      <point x="884.0459770114943" y="700.0"/>
      <point x="946.0" y="620.1914893617022"/>
      <point x="946.0" y="458.0" type="curve" smooth="yes"/>
      <point x="946.0" y="243.18811881188117"/>
      <point x="799.75" y="74.0"/>
      <point x="646.0" y="74.0" type="curve" smooth="yes"/>
      <point x="530.4444444444445" y="74.0"/>
      <point x="446.0" y="148.0"/>
      <point x="446.0" y="360.0" type="curve" smooth="yes"/>
      <point x="446.0" y="849.1455399061033"/>
      <point x="707.1063829787234" y="1214.0"/>
      <point x="918.0" y="1214.0" type="curve" smooth="yes"/>
      <point x="1020.5142857142857" y="1214.0"/>
      <point x="1056.0" y="1159.1692307692308"/>
      <point x="1056.0" y="1082.0" type="curve" smooth="yes"/>
      <point x="1056.0" y="1056.0"/>
      <point x="1054.0" y="1046.7450980392157"/>
      <point x="1054.0" y="1020.0" type="curve" smooth="yes"/>
      <point x="1054.0" y="966.0"/>
      <point x="1096.0" y="934.0"/>
      <point x="1154.0" y="934.0" type="curve" smooth="yes"/>
      <point x="1234.0" y="934.0"/>
      <point x="1296.0" y="1002.0"/>
      <point x="1296.0" y="1084.0" type="curve" smooth="yes"/>
      <point x="1296.0" y="1206.0"/>
      <point x="1192.0" y="1300.0"/>
    </contour>
  </outline>
</glyph>
<glyph name="seven" format="2">
  <advance width="912"/>
  <unicode hex="0037"/>
  <outline>
    <contour>
      <point x="1040.0" y="1084.0" type="curve" smooth="yes"/>
      <point x="864.0" y="904.0" type="line" smooth="yes"/>
      <point x="422.0" y="450.0"/>
      <point x="346.0" y="262.0"/>
      <point x="346.0" y="92.0" type="curve" smooth="yes"/>
      <point x="346.0" y="14.0"/>
      <point x="388.0" y="-30.0"/>
      <point x="460.0" y="-30.0" type="curve" smooth="yes"/>
      <point x="570.8191787266301" y="-30.0"/>
      <point x="638.0" y="54.0"/>
      <point x="638.0" y="134.0" type="curve" smooth="yes"/>
      <point x="638.0" y="182.0"/>
      <point x="616.0" y="228.0"/>
      <point x="616.0" y="288.0" type="curve" smooth="yes"/>
      <point x="616.0" y="432.0"/>
      <point x="704.0" y="620.0"/>
      <point x="932.0" y="858.0" type="curve" smooth="yes"/>
      <point x="1136.0" y="1070.0" type="line" smooth="yes"/>
      <point x="1201.8823529411766" y="1138.235294117647"/>
      <point x="1226.0" y="1186.0"/>
      <point x="1226.0" y="1226.0" type="curve" smooth="yes"/>
      <point x="1226.0" y="1252.0"/>
      <point x="1210.0" y="1270.0"/>
      <point x="1178.0" y="1270.0" type="curve" smooth="yes"/>
      <point x="518.0" y="1270.0" type="line" smooth="yes"/>
      <point x="472.0" y="1270.0"/>
      <point x="438.0" y="1232.0"/>
      <point x="418.0" y="1178.0" type="curve" smooth="yes"/>
      <point x="346.0" y="984.0" type="line" smooth="yes"/>
      <point x="342.0" y="974.0"/>
      <point x="340.0" y="964.0"/>
      <point x="340.0" y="956.0" type="curve" smooth="yes"/>
      <point x="340.0" y="936.0"/>
      <point x="352.0" y="926.0"/>
      <point x="370.0" y="926.0" type="curve" smooth="yes"/>
      <point x="400.0" y="926.0"/>
      <point x="428.0" y="954.0"/>
      <point x="482.0" y="1020.0" type="curve" smooth="yes"/>
      <point x="536.0" y="1088.0"/>
      <point x="576.0" y="1106.0"/>
      <point x="632.0" y="1106.0" type="curve" smooth="yes"/>
      <point x="1106.0" y="1106.0" type="line"/>
      <point x="1114.0" y="1204.0" type="line"/>
      <point x="1104.0" y="1168.0"/>
      <point x="1084.0" y="1130.0"/>
    </contour>
  </outline>
</glyph>
<glyph name="eight" format="2">
  <advance width="1060"/>
  <unicode hex="0038"/>
  <outline>
    <contour>
      <point x="518.0" y="-30.0" type="curve" smooth="yes"/>
      <point x="790.0" y="-30.0"/>
      <point x="1040.0" y="158.0"/>
      <point x="1040.0" y="386.0" type="curve" smooth="yes"/>
      <point x="1040.0" y="496.0"/>
      <point x="968.0" y="594.0"/>
      <point x="788.0" y="668.0" type="curve" smooth="yes"/>
      <point x="616.0" y="734.0"/>
      <point x="556.0" y="816.0"/>
      <point x="556.0" y="910.0" type="curve" smooth="yes"/>
      <point x="556.0" y="1054.0"/>
      <point x="680.0" y="1186.0"/>
      <point x="856.0" y="1186.0" type="curve" smooth="yes"/>
      <point x="968.0" y="1186.0"/>
      <point x="1036.0" y="1117.0"/>
      <point x="1036.0" y="1002.0" type="curve" smooth="yes"/>
      <point x="1036.0" y="839.0687830687831"/>
      <point x="936.8268376000068" y="708.2559259238117"/>
      <point x="768.0" y="656.0" type="curve"/>
      <point x="778.0" y="604.0" type="line"/>
      <point x="1039.3746685630551" y="661.8615678498367"/>
      <point x="1226.0" y="840.8995633187773"/>
      <point x="1226.0" y="1038.0" type="curve" smooth="yes"/>
      <point x="1226.0" y="1187.6"/>
      <point x="1124.0" y="1302.0"/>
      <point x="934.0" y="1302.0" type="curve" smooth="yes"/>
      <point x="616.0" y="1302.0"/>
      <point x="362.0" y="1046.0"/>
      <point x="362.0" y="826.0" type="curve" smooth="yes"/>
      <point x="362.0" y="696.0"/>
      <point x="446.0" y="600.0"/>
      <point x="624.0" y="526.0" type="curve" smooth="yes"/>
      <point x="786.0" y="460.0"/>
      <point x="842.0" y="398.0"/>
      <point x="842.0" y="316.0" type="curve" smooth="yes"/>
      <point x="842.0" y="180.0"/>
      <point x="744.0" y="76.0"/>
      <point x="582.0" y="76.0" type="curve" smooth="yes"/>
      <point x="462.0" y="76.0"/>
      <point x="400.0" y="146.0"/>
      <point x="400.0" y="258.0" type="curve" smooth="yes"/>
      <point x="400.0" y="392.0"/>
      <point x="480.0" y="522.0"/>
      <point x="626.0" y="576.0" type="curve"/>
      <point x="618.0" y="616.0" type="line"/>
      <point x="358.2350760661899" y="572.375356285925"/>
      <point x="208.0" y="401.6"/>
      <point x="208.0" y="214.0" type="curve" smooth="yes"/>
      <point x="208.0" y="66.0"/>
      <point x="308.0" y="-30.0"/>
    </contour>
  </outline>
</glyph>
<glyph name="nine" format="2">
  <advance width="1100"/>
  <unicode hex="0039"/>
  <outline>
    <contour>
      <point x="496.0" y="-28.0" type="curve" smooth="yes"/>
      <point x="928.0" y="-28.0"/>
      <point x="1232.0" y="434.0"/>
      <point x="1232.0" y="920.0" type="curve" smooth="yes"/>
      <point x="1232.0" y="1182.0"/>
      <point x="1096.0987654320988" y="1302.0"/>
      <point x="888.0" y="1302.0" type="curve" smooth="yes"/>
      <point x="565.3993174061434" y="1302.0"/>
      <point x="322.0" y="1016.0"/>
      <point x="322.0" y="742.0" type="curve" smooth="yes"/>
      <point x="322.0" y="560.0"/>
      <point x="432.0" y="462.0"/>
      <point x="610.0" y="462.0" type="curve" smooth="yes"/>
      <point x="848.0" y="462.0"/>
      <point x="1056.0" y="624.0"/>
      <point x="1114.0" y="850.0" type="curve"/>
      <point x="1046.0" y="878.0" type="line"/>
      <point x="1000.1811585404387" y="699.3065183077109"/>
      <point x="840.6549707602339" y="572.0"/>
      <point x="684.0" y="572.0" type="curve" smooth="yes"/>
      <point x="591.9540229885057" y="572.0"/>
      <point x="530.0" y="651.8085106382978"/>
      <point x="530.0" y="814.0" type="curve" smooth="yes"/>
      <point x="530.0" y="1028.8118811881188"/>
      <point x="676.25" y="1198.0"/>
      <point x="830.0" y="1198.0" type="curve" smooth="yes"/>
      <point x="945.5555555555555" y="1198.0"/>
      <point x="1030.0" y="1124.0"/>
      <point x="1030.0" y="912.0" type="curve" smooth="yes"/>
      <point x="1030.0" y="422.8544600938967"/>
      <point x="768.8936170212766" y="58.0"/>
      <point x="558.0" y="58.0" type="curve" smooth="yes"/>
      <point x="455.48571428571427" y="58.0"/>
      <point x="420.0" y="112.83076923076919"/>
      <point x="420.0" y="190.0" type="curve" smooth="yes"/>
      <point x="420.0" y="216.0"/>
      <point x="422.0" y="225.2549019607843"/>
      <point x="422.0" y="252.0" type="curve" smooth="yes"/>
      <point x="422.0" y="306.0"/>
      <point x="380.0" y="338.0"/>
      <point x="322.0" y="338.0" type="curve" smooth="yes"/>
      <point x="242.0" y="338.0"/>
      <point x="180.0" y="270.0"/>
      <point x="180.0" y="188.0" type="curve" smooth="yes"/>
      <point x="180.0" y="66.0"/>
      <point x="284.0" y="-28.0"/>
    </contour>
  </outline>
</glyph>
<glyph name="semicolon" format="2">
  <advance width="634"/>
  <unicode hex="003B"/>
  <outline>
    <contour>
      <point x="460.0" y="546.0" type="curve" smooth="yes"/>
      <point x="544.0" y="546.0"/>
      <point x="650.0" y="680.3571428571429"/>
      <point x="650.0" y="810.0" type="curve" smooth="yes"/>
      <point x="650.0" y="858.0"/>
      <point x="614.0" y="892.0"/>
      <point x="570.0" y="892.0" type="curve" smooth="yes"/>
      <point x="480.0" y="892.0"/>
      <point x="378.0" y="750.3783783783783"/>
      <point x="378.0" y="630.0" type="curve" smooth="yes"/>
      <point x="378.0" y="582.0"/>
      <point x="414.0" y="546.0"/>
    </contour>
    <contour>
      <point x="338.0" y="-24.0" type="curve" smooth="yes"/>
      <point x="362.0" y="-32.0"/>
      <point x="374.0" y="-44.0"/>
      <point x="374.0" y="-76.0" type="curve" smooth="yes"/>
      <point x="374.0" y="-150.0"/>
      <point x="304.0" y="-248.0"/>
      <point x="188.0" y="-312.0" type="curve" smooth="yes"/>
      <point x="158.0" y="-330.0"/>
      <point x="140.0" y="-346.0"/>
      <point x="140.0" y="-364.0" type="curve" smooth="yes"/>
      <point x="140.0" y="-384.0"/>
      <point x="156.0" y="-398.0"/>
      <point x="174.0" y="-398.0" type="curve" smooth="yes"/>
      <point x="190.0" y="-398.0"/>
      <point x="202.0" y="-394.0"/>
      <point x="224.0" y="-384.0" type="curve" smooth="yes"/>
      <point x="358.0" y="-322.0"/>
      <point x="498.0" y="-150.0"/>
      <point x="498.0" y="120.0" type="curve" smooth="yes"/>
      <point x="498.0" y="230.0"/>
      <point x="446.0" y="272.0"/>
      <point x="392.0" y="272.0" type="curve" smooth="yes"/>
      <point x="308.0" y="272.0"/>
      <point x="242.0" y="196.0"/>
      <point x="242.0" y="110.0" type="curve" smooth="yes"/>
      <point x="242.0" y="44.0"/>
      <point x="270.0" y="4.0"/>
    </contour>
  </outline>
</glyph>
<glyph name="less" format="2">
  <advance width="1036"/>
  <unicode hex="003C"/>
  <outline>
    <contour>
      <point x="1002.0" y="246.0" type="curve" smooth="yes"/>
      <point x="1014.0" y="288.0"/>
      <point x="992.0" y="326.0"/>
      <point x="932.0" y="360.0" type="curve" smooth="yes"/>
      <point x="790.0" y="444.0"/>
      <point x="576.0" y="548.0"/>
      <point x="332.0" y="622.0" type="curve"/>
      <point x="324.0" y="590.0" type="line"/>
      <point x="608.0" y="664.0"/>
      <point x="878.0" y="764.0"/>
      <point x="1070.0" y="854.0" type="curve" smooth="yes"/>
      <point x="1144.0" y="888.0"/>
      <point x="1184.0" y="924.0"/>
      <point x="1194.0" y="962.0" type="curve" smooth="yes"/>
      <point x="1202.0" y="996.0"/>
      <point x="1188.0" y="1022.0"/>
      <point x="1152.0" y="1022.0" type="curve" smooth="yes"/>
      <point x="1124.0" y="1022.0"/>
      <point x="1086.0" y="1008.0"/>
      <point x="1044.0" y="984.0" type="curve" smooth="yes"/>
      <point x="900.0" y="900.0"/>
      <point x="576.0" y="756.0"/>
      <point x="308.0" y="666.0" type="curve" smooth="yes"/>
      <point x="266.0" y="652.0"/>
      <point x="248.0" y="628.0"/>
      <point x="242.0" y="606.0" type="curve" smooth="yes"/>
      <point x="236.0" y="584.0"/>
      <point x="242.0" y="560.0"/>
      <point x="276.0" y="546.0" type="curve" smooth="yes"/>
      <point x="496.0" y="456.0"/>
      <point x="746.0" y="314.0"/>
      <point x="842.0" y="228.0" type="curve" smooth="yes"/>
      <point x="872.0" y="202.0"/>
      <point x="900.0" y="190.0"/>
      <point x="922.0" y="190.0" type="curve" smooth="yes"/>
      <point x="962.0" y="190.0"/>
      <point x="994.0" y="214.0"/>
    </contour>
  </outline>
</glyph>
<glyph name="greater" format="2">
  <advance width="1036"/>
  <unicode hex="003E"/>
  <outline>
    <contour>
      <point x="406.0" y="966.0" type="curve" smooth="yes"/>
      <point x="394.0" y="924.0"/>
      <point x="416.0" y="886.0"/>
      <point x="476.0" y="852.0" type="curve" smooth="yes"/>
      <point x="618.0" y="768.0"/>
      <point x="832.0" y="664.0"/>
      <point x="1076.0" y="590.0" type="curve"/>
      <point x="1084.0" y="622.0" type="line"/>
      <point x="800.0" y="548.0"/>
      <point x="530.0" y="448.0"/>
      <point x="338.0" y="358.0" type="curve" smooth="yes"/>
      <point x="264.0" y="324.0"/>
      <point x="224.0" y="288.0"/>
      <point x="214.0" y="250.0" type="curve" smooth="yes"/>
      <point x="206.0" y="216.0"/>
      <point x="220.0" y="190.0"/>
      <point x="256.0" y="190.0" type="curve" smooth="yes"/>
      <point x="284.0" y="190.0"/>
      <point x="322.0" y="204.0"/>
      <point x="364.0" y="228.0" type="curve" smooth="yes"/>
      <point x="508.0" y="312.0"/>
      <point x="832.0" y="456.0"/>
      <point x="1100.0" y="546.0" type="curve" smooth="yes"/>
      <point x="1142.0" y="560.0"/>
      <point x="1160.0" y="584.0"/>
      <point x="1166.0" y="606.0" type="curve" smooth="yes"/>
      <point x="1172.0" y="628.0"/>
      <point x="1166.0" y="652.0"/>
      <point x="1132.0" y="666.0" type="curve" smooth="yes"/>
      <point x="912.0" y="756.0"/>
      <point x="662.0" y="898.0"/>
      <point x="566.0" y="984.0" type="curve" smooth="yes"/>
      <point x="536.0" y="1010.0"/>
      <point x="508.0" y="1022.0"/>
      <point x="486.0" y="1022.0" type="curve" smooth="yes"/>
      <point x="446.0" y="1022.0"/>
      <point x="414.0" y="998.0"/>
    </contour>
  </outline>
</glyph>
<glyph name="question" format="2">
  <advance width="828"/>
  <unicode hex="003F"/>
  <outline>
    <contour>
      <point x="602.0" y="724.0" type="curve" smooth="yes"/>
      <point x="776.0" y="820.0"/>
      <point x="858.0" y="912.0"/>
      <point x="892.0" y="1084.0" type="curve" smooth="yes"/>
      <point x="926.0" y="1254.0"/>
      <point x="856.0" y="1356.0"/>
      <point x="736.0" y="1356.0" type="curve" smooth="yes"/>
      <point x="636.0" y="1356.0"/>
      <point x="572.0" y="1308.0"/>
      <point x="552.0" y="1226.0" type="curve" smooth="yes"/>
      <point x="532.0" y="1142.0" type="line" smooth="yes"/>
      <point x="516.0" y="1072.0"/>
      <point x="460.0" y="1030.0"/>
      <point x="402.0" y="1030.0" type="curve" smooth="yes"/>
      <point x="356.0" y="1030.0"/>
      <point x="328.0" y="1066.0"/>
      <point x="328.0" y="1126.0" type="curve" smooth="yes"/>
      <point x="328.0" y="1258.0"/>
      <point x="542.0" y="1430.0"/>
      <point x="786.0" y="1430.0" type="curve" smooth="yes"/>
      <point x="1008.0" y="1430.0"/>
      <point x="1130.0" y="1300.0"/>
      <point x="1086.0" y="1086.0" type="curve" smooth="yes"/>
      <point x="1056.0" y="944.0"/>
      <point x="982.0" y="850.0"/>
      <point x="790.0" y="740.0" type="curve" smooth="yes"/>
      <point x="606.0" y="634.0"/>
      <point x="540.0" y="562.0"/>
      <point x="518.0" y="448.0" type="curve" smooth="yes"/>
      <point x="512.0" y="418.0"/>
      <point x="494.0" y="400.0"/>
      <point x="470.0" y="400.0" type="curve" smooth="yes"/>
      <point x="428.0" y="400.0"/>
      <point x="396.0" y="438.0"/>
      <point x="396.0" y="500.0" type="curve" smooth="yes"/>
      <point x="396.0" y="576.0"/>
      <point x="454.0" y="642.0"/>
    </contour>
    <contour>
      <point x="329.9" y="-23.99" type="curve" smooth="yes"/>
      <point x="408.272" y="-23.99"/>
      <point x="507.16999999999996" y="101.36521428571429"/>
      <point x="507.16999999999996" y="222.32199999999997" type="curve" smooth="yes"/>
      <point x="507.16999999999996" y="267.106"/>
      <point x="473.582" y="298.828"/>
      <point x="432.53" y="298.828" type="curve" smooth="yes"/>
      <point x="348.56" y="298.828"/>
      <point x="253.39399999999998" y="166.69502702702704"/>
      <point x="253.39399999999998" y="54.382" type="curve" smooth="yes"/>
      <point x="253.39399999999998" y="9.597999999999999"/>
      <point x="286.98199999999997" y="-23.99"/>
    </contour>
  </outline>
</glyph>
<glyph name="at" format="2">
  <advance width="1534"/>
  <unicode hex="0040"/>
  <outline>
    <contour>
      <point x="696.0" y="420.0" type="curve" smooth="yes"/>
      <point x="696.0" y="657.7142857142857"/>
      <point x="840.96" y="836.0"/>
      <point x="998.0" y="836.0" type="curve" smooth="yes"/>
      <point x="1040.871794871795" y="836.0"/>
      <point x="1074.0" y="816.0"/>
      <point x="1074.0" y="752.0" type="curve" smooth="yes"/>
      <point x="1082.0" y="600.0"/>
      <point x="916.9090909090909" y="288.0"/>
      <point x="786.0" y="288.0" type="curve" smooth="yes"/>
      <point x="730.0" y="288.0"/>
      <point x="696.0" y="334.0"/>
    </contour>
    <contour>
      <point x="1202.0" y="274.0" type="curve" smooth="yes"/>
      <point x="1176.0" y="274.0"/>
      <point x="1162.0" y="302.0"/>
      <point x="1162.0" y="338.0" type="curve" smooth="yes"/>
      <point x="1162.0" y="390.0"/>
      <point x="1186.0" y="570.0"/>
      <point x="1204.0" y="686.0" type="curve" smooth="yes"/>
      <point x="1216.0" y="762.0"/>
      <point x="1264.0" y="824.0"/>
      <point x="1264.0" y="864.0" type="curve" smooth="yes"/>
      <point x="1264.0" y="920.0"/>
      <point x="1204.4123711340205" y="958.0"/>
      <point x="1094.0" y="958.0" type="curve" smooth="yes"/>
      <point x="813.4375" y="958.0"/>
      <point x="558.0" y="644.9837133550488"/>
      <point x="558.0" y="334.0" type="curve" smooth="yes"/>
      <point x="558.0" y="208.0"/>
      <point x="622.0" y="156.0"/>
      <point x="708.0" y="156.0" type="curve" smooth="yes"/>
      <point x="841.0952380952381" y="156.0"/>
      <point x="1009.7164375316098" y="279.109436622712"/>
      <point x="1138.0" y="682.0" type="curve"/>
      <point x="1060.0" y="614.0" type="line"/>
      <point x="1068.0051340041346" y="511.93454144728565"/>
      <point x="1016.0" y="340.0"/>
      <point x="1016.0" y="254.0" type="curve" smooth="yes"/>
      <point x="1016.0" y="192.0"/>
      <point x="1054.0" y="156.0"/>
      <point x="1118.0" y="156.0" type="curve" smooth="yes"/>
      <point x="1350.0" y="156.0"/>
      <point x="1610.0" y="434.0"/>
      <point x="1610.0" y="836.0" type="curve" smooth="yes"/>
      <point x="1610.0" y="1130.0"/>
      <point x="1481.3962264150944" y="1310.0"/>
      <point x="1184.0" y="1310.0" type="curve" smooth="yes"/>
      <point x="664.3906581740977" y="1310.0"/>
      <point x="228.0" y="758.0"/>
      <point x="228.0" y="262.0" type="curve" smooth="yes"/>
      <point x="228.0" y="-62.0"/>
      <point x="382.0" y="-236.0"/>
      <point x="702.0" y="-236.0" type="curve" smooth="yes"/>
      <point x="974.0" y="-236.0"/>
      <point x="1199.3728166653746" y="-151.31164941982172"/>
      <point x="1394.0" y="32.0" type="curve" smooth="yes"/>
      <point x="1474.0" y="106.0"/>
      <point x="1398.0" y="166.0"/>
      <point x="1326.0" y="94.0" type="curve" smooth="yes"/>
      <point x="1168.1507746527636" y="-63.84922534723651"/>
      <point x="954.0" y="-142.0"/>
      <point x="728.0" y="-142.0" type="curve" smooth="yes"/>
      <point x="476.0" y="-142.0"/>
      <point x="332.0" y="2.0"/>
      <point x="332.0" y="302.0" type="curve" smooth="yes"/>
      <point x="332.0" y="692.0"/>
      <point x="722.7368421052631" y="1216.0"/>
      <point x="1144.0" y="1216.0" type="curve" smooth="yes"/>
      <point x="1380.0" y="1216.0"/>
      <point x="1506.0" y="1058.0"/>
      <point x="1506.0" y="812.0" type="curve" smooth="yes"/>
      <point x="1506.0" y="476.0"/>
      <point x="1310.0" y="274.0"/>
    </contour>
  </outline>
</glyph>
<glyph name="A" format="2">
  <advance width="1272"/>
  <unicode hex="0041"/>
  <anchor x="1244.0" y="1532.0" name="center"/>
  <outline>
    <contour>
      <point x="452.0" y="548.0" type="line"/>
      <point x="424.0" y="462.0" type="line"/>
      <point x="1048.0" y="462.0" type="line"/>
      <point x="1070.0" y="548.0" type="line"/>
    </contour>
    <contour>
      <point x="222.0" y="242.0" type="line" smooth="yes"/>
      <point x="182.0" y="182.0"/>
      <point x="130.0" y="130.0"/>
      <point x="76.0" y="108.0" type="curve" smooth="yes"/>
      <point x="32.0" y="90.0"/>
      <point x="12.0" y="70.0"/>
      <point x="12.0" y="44.0" type="curve" smooth="yes"/>
      <point x="12.0" y="16.0"/>
      <point x="30.0" y="0.0"/>
      <point x="68.0" y="0.0" type="curve" smooth="yes"/>
      <point x="384.0" y="0.0" type="line" smooth="yes"/>
      <point x="432.0" y="0.0"/>
      <point x="460.0" y="14.0"/>
      <point x="460.0" y="44.0" type="curve" smooth="yes"/>
      <point x="460.0" y="72.0"/>
      <point x="442.0" y="86.0"/>
      <point x="392.0" y="114.0" type="curve" smooth="yes"/>
      <point x="352.0" y="138.0"/>
      <point x="338.0" y="164.0"/>
      <point x="338.0" y="194.0" type="curve" smooth="yes"/>
      <point x="338.0" y="222.0"/>
      <point x="342.0" y="250.0"/>
      <point x="376.0" y="298.0" type="curve" smooth="yes"/>
      <point x="566.0" y="574.0" type="line" smooth="yes"/>
      <point x="952.0" y="1136.0"/>
      <point x="1020.0" y="1232.0"/>
      <point x="1158.0" y="1302.0" type="curve"/>
      <point x="1006.0" y="1262.0" type="line"/>
      <point x="998.0" y="848.0"/>
      <point x="984.0" y="526.0"/>
      <point x="956.0" y="226.0" type="curve" smooth="yes"/>
      <point x="950.0" y="164.0"/>
      <point x="902.0" y="126.0"/>
      <point x="864.0" y="112.0" type="curve" smooth="yes"/>
      <point x="808.0" y="92.0" type="line" smooth="yes"/>
      <point x="778.0" y="82.0"/>
      <point x="744.0" y="70.0"/>
      <point x="744.0" y="42.0" type="curve" smooth="yes"/>
      <point x="744.0" y="10.0"/>
      <point x="754.0" y="0.0"/>
      <point x="802.0" y="0.0" type="curve" smooth="yes"/>
      <point x="1188.0" y="0.0" type="line" smooth="yes"/>
      <point x="1238.0" y="0.0"/>
      <point x="1264.0" y="20.0"/>
      <point x="1264.0" y="42.0" type="curve" smooth="yes"/>
      <point x="1264.0" y="66.0"/>
      <point x="1258.0" y="78.0"/>
      <point x="1222.0" y="102.0" type="curve" smooth="yes"/>
      <point x="1182.0" y="130.0"/>
      <point x="1164.0" y="166.0"/>
      <point x="1164.0" y="230.0" type="curve" smooth="yes"/>
      <point x="1168.0" y="548.0"/>
      <point x="1180.0" y="896.0"/>
      <point x="1200.0" y="1204.0" type="curve" smooth="yes"/>
      <point x="1204.0" y="1262.0"/>
      <point x="1224.0" y="1296.0"/>
      <point x="1266.0" y="1320.0" type="curve" smooth="yes"/>
      <point x="1290.0" y="1334.0"/>
      <point x="1310.0" y="1356.0"/>
      <point x="1310.0" y="1378.0" type="curve" smooth="yes"/>
      <point x="1310.0" y="1404.0"/>
      <point x="1294.0" y="1420.0"/>
      <point x="1252.0" y="1420.0" type="curve" smooth="yes"/>
      <point x="1070.0" y="1420.0"/>
      <point x="886.0" y="1238.0"/>
      <point x="468.0" y="610.0" type="curve" smooth="yes"/>
    </contour>
  </outline>
</glyph>
<glyph name="B" format="2">
  <advance width="1270"/>
  <unicode hex="0042"/>
  <outline>
    <contour>
      <point x="550.0" y="336.0"/>
      <point x="706.0" y="950.0"/>
      <point x="804.0" y="1214.0" type="curve" smooth="yes"/>
      <point x="826.0" y="1272.0"/>
      <point x="868.0" y="1308.0"/>
      <point x="974.0" y="1308.0" type="curve" smooth="yes"/>
      <point x="1106.0" y="1308.0"/>
      <point x="1196.0" y="1222.0"/>
      <point x="1196.0" y="1064.0" type="curve" smooth="yes"/>
      <point x="1196.0" y="856.0"/>
      <point x="1020.0" y="712.0"/>
      <point x="808.0" y="712.0" type="curve" smooth="yes"/>
      <point x="634.0" y="712.0" type="line"/>
      <point x="586.0" y="616.0" type="line"/>
      <point x="834.0" y="616.0" type="line" smooth="yes"/>
      <point x="998.0" y="616.0"/>
      <point x="1098.0" y="542.0"/>
      <point x="1098.0" y="420.0" type="curve" smooth="yes"/>
      <point x="1098.0" y="226.0"/>
      <point x="912.0" y="92.0"/>
      <point x="726.0" y="92.0" type="curve" smooth="yes"/>
      <point x="602.0" y="92.0"/>
      <point x="550.0" y="134.0"/>
      <point x="550.0" y="220.0" type="curve" smooth="yes"/>
    </contour>
    <contour>
      <point x="474.0" y="1400.0"/>
      <point x="454.0" y="1378.0"/>
      <point x="454.0" y="1354.0" type="curve" smooth="yes"/>
      <point x="454.0" y="1332.0"/>
      <point x="472.0" y="1324.0"/>
      <point x="500.0" y="1316.0" type="curve" smooth="yes"/>
      <point x="546.0" y="1304.0" type="line" smooth="yes"/>
      <point x="576.0" y="1296.0"/>
      <point x="590.0" y="1278.0"/>
      <point x="590.0" y="1246.0" type="curve" smooth="yes"/>
      <point x="590.0" y="1236.0"/>
      <point x="588.0" y="1226.0"/>
      <point x="586.0" y="1214.0" type="curve" smooth="yes"/>
      <point x="530.0" y="892.0"/>
      <point x="442.0" y="552.0"/>
      <point x="314.0" y="184.0" type="curve" smooth="yes"/>
      <point x="296.0" y="134.0"/>
      <point x="272.0" y="106.0"/>
      <point x="226.0" y="96.0" type="curve" smooth="yes"/>
      <point x="174.0" y="84.0" type="line" smooth="yes"/>
      <point x="124.0" y="72.0"/>
      <point x="104.0" y="54.0"/>
      <point x="104.0" y="36.0" type="curve" smooth="yes"/>
      <point x="104.0" y="14.0"/>
      <point x="120.0" y="0.0"/>
      <point x="152.0" y="0.0" type="curve" smooth="yes"/>
      <point x="690.0" y="0.0" type="line" smooth="yes"/>
      <point x="1056.0" y="0.0"/>
      <point x="1296.0" y="200.0"/>
      <point x="1296.0" y="422.0" type="curve" smooth="yes"/>
      <point x="1296.0" y="574.0"/>
      <point x="1160.0" y="680.0"/>
      <point x="858.0" y="680.0" type="curve"/>
      <point x="860.0" y="662.0" type="line"/>
      <point x="1120.0" y="662.0"/>
      <point x="1396.0" y="856.0"/>
      <point x="1396.0" y="1072.0" type="curve" smooth="yes"/>
      <point x="1396.0" y="1286.0"/>
      <point x="1246.0" y="1400.0"/>
      <point x="970.0" y="1400.0" type="curve" smooth="yes"/>
      <point x="526.0" y="1400.0" type="line" smooth="yes"/>
    </contour>
  </outline>
</glyph>
<glyph name="G" format="2">
  <advance width="1408"/>
  <unicode hex="0047"/>
  <anchor x="1184.0" y="1566.0" name="center"/>
  <outline>
    <contour>
      <point x="1094.0" y="1428.0" type="curve" smooth="yes"/>
      <point x="664.0" y="1428.0"/>
      <point x="248.0" y="940.0"/>
      <point x="248.0" y="498.0" type="curve" smooth="yes"/>
      <point x="248.0" y="182.0"/>
      <point x="438.0" y="-30.0"/>
      <point x="734.0" y="-30.0" type="curve" smooth="yes"/>
      <point x="934.0" y="-30.0"/>
      <point x="1012.0" y="52.0"/>
      <point x="1074.0" y="52.0" type="curve" smooth="yes"/>
      <point x="1114.0" y="52.0"/>
      <point x="1128.0" y="-30.0"/>
      <point x="1170.0" y="-30.0" type="curve" smooth="yes"/>
      <point x="1206.0" y="-30.0"/>
      <point x="1234.0" y="-6.0"/>
      <point x="1246.0" y="42.0" type="curve" smooth="yes"/>
      <point x="1284.0" y="186.0"/>
      <point x="1316.0" y="292.0"/>
      <point x="1364.0" y="434.0" type="curve" smooth="yes"/>
      <point x="1386.0" y="498.0"/>
      <point x="1408.0" y="526.0"/>
      <point x="1470.0" y="546.0" type="curve" smooth="yes"/>
      <point x="1526.0" y="562.0"/>
      <point x="1550.0" y="580.0"/>
      <point x="1552.0" y="608.0" type="curve" smooth="yes"/>
      <point x="1554.0" y="628.0"/>
      <point x="1544.0" y="638.0"/>
      <point x="1514.0" y="638.0" type="curve" smooth="yes"/>
      <point x="1084.0" y="638.0" type="line" smooth="yes"/>
      <point x="1046.0" y="638.0"/>
      <point x="1022.0" y="626.0"/>
      <point x="1022.0" y="600.0" type="curve" smooth="yes"/>
      <point x="1022.0" y="576.0"/>
      <point x="1032.0" y="564.0"/>
      <point x="1066.0" y="554.0" type="curve" smooth="yes"/>
      <point x="1104.0" y="542.0" type="line" smooth="yes"/>
      <point x="1152.0" y="526.0"/>
      <point x="1172.0" y="488.0"/>
      <point x="1156.0" y="388.0" type="curve" smooth="yes"/>
      <point x="1120.0" y="170.0"/>
      <point x="968.0" y="78.0"/>
      <point x="796.0" y="78.0" type="curve" smooth="yes"/>
      <point x="594.0" y="78.0"/>
      <point x="490.0" y="238.0"/>
      <point x="490.0" y="482.0" type="curve" smooth="yes"/>
      <point x="490.0" y="886.0"/>
      <point x="782.0" y="1330.0"/>
      <point x="1080.0" y="1330.0" type="curve" smooth="yes"/>
      <point x="1248.0" y="1330.0"/>
      <point x="1326.0" y="1280.0"/>
      <point x="1396.0" y="1154.0" type="curve" smooth="yes"/>
      <point x="1446.0" y="1064.0" type="line" smooth="yes"/>
      <point x="1462.0" y="1034.0"/>
      <point x="1478.0" y="1012.0"/>
      <point x="1506.0" y="1012.0" type="curve" smooth="yes"/>
      <point x="1532.0" y="1012.0"/>
      <point x="1552.0" y="1028.0"/>
      <point x="1550.0" y="1068.0" type="curve" smooth="yes"/>
      <point x="1540.0" y="1346.0" type="line" smooth="yes"/>
      <point x="1538.0" y="1386.0"/>
      <point x="1520.0" y="1410.0"/>
      <point x="1490.0" y="1410.0" type="curve" smooth="yes"/>
      <point x="1456.0" y="1410.0"/>
      <point x="1428.0" y="1358.0"/>
      <point x="1390.0" y="1358.0" type="curve" smooth="yes"/>
      <point x="1334.0" y="1358.0"/>
      <point x="1240.0" y="1428.0"/>
    </contour>
  </outline>
</glyph>
<glyph name="K" format="2">
  <advance width="1384"/>
  <unicode hex="004B"/>
  <outline>
    <contour>
      <point x="748.0" y="684.0" type="line"/>
      <point x="986.0" y="140.0" type="line" smooth="yes"/>
      <point x="1044.0" y="8.0"/>
      <point x="1110.0" y="-30.0"/>
      <point x="1202.0" y="-30.0" type="curve" smooth="yes"/>
      <point x="1294.0" y="-30.0"/>
      <point x="1390.0" y="50.0"/>
      <point x="1390.0" y="144.0" type="curve" smooth="yes"/>
      <point x="1390.0" y="174.0"/>
      <point x="1374.0" y="198.0"/>
      <point x="1352.0" y="198.0" type="curve" smooth="yes"/>
      <point x="1320.0" y="198.0"/>
      <point x="1300.0" y="176.0"/>
      <point x="1266.0" y="176.0" type="curve" smooth="yes"/>
      <point x="1220.0" y="176.0"/>
      <point x="1172.0" y="208.0"/>
      <point x="1098.0" y="366.0" type="curve" smooth="yes"/>
      <point x="896.0" y="798.0" type="line"/>
    </contour>
    <contour>
      <point x="512.0" y="374.0" type="line"/>
      <point x="1232.0" y="1122.0" type="line" smooth="yes"/>
      <point x="1284.0" y="1176.0"/>
      <point x="1360.0" y="1216.0"/>
      <point x="1410.0" y="1216.0" type="curve" smooth="yes"/>
      <point x="1458.0" y="1216.0"/>
      <point x="1486.0" y="1174.0"/>
      <point x="1548.0" y="1174.0" type="curve" smooth="yes"/>
      <point x="1608.0" y="1174.0"/>
      <point x="1668.0" y="1228.0"/>
      <point x="1668.0" y="1302.0" type="curve" smooth="yes"/>
      <point x="1668.0" y="1366.0"/>
      <point x="1616.0" y="1430.0"/>
      <point x="1546.0" y="1430.0" type="curve" smooth="yes"/>
      <point x="1452.0" y="1430.0"/>
      <point x="1358.0" y="1382.0"/>
      <point x="1202.0" y="1216.0" type="curve" smooth="yes"/>
      <point x="450.0" y="416.0" type="line"/>
    </contour>
    <contour>
      <point x="542.0" y="184.0" type="curve" smooth="yes"/>
      <point x="620.0" y="592.0"/>
      <point x="700.0" y="914.0"/>
      <point x="814.0" y="1214.0" type="curve" smooth="yes"/>
      <point x="834.0" y="1266.0"/>
      <point x="856.0" y="1294.0"/>
      <point x="902.0" y="1304.0" type="curve" smooth="yes"/>
      <point x="956.0" y="1316.0" type="line" smooth="yes"/>
      <point x="1002.0" y="1326.0"/>
      <point x="1024.0" y="1340.0"/>
      <point x="1024.0" y="1366.0" type="curve" smooth="yes"/>
      <point x="1024.0" y="1390.0"/>
      <point x="1013.3333333333334" y="1400.0"/>
      <point x="976.0" y="1400.0" type="curve" smooth="yes"/>
      <point x="520.0" y="1400.0" type="line" smooth="yes"/>
      <point x="478.0" y="1400.0"/>
      <point x="454.0" y="1385.2631578947369"/>
      <point x="454.0" y="1360.0" type="curve" smooth="yes"/>
      <point x="454.0" y="1337.0434782608695"/>
      <point x="468.76179172226534" y="1324.149097811583"/>
      <point x="500.0" y="1316.0" type="curve" smooth="yes"/>
      <point x="546.0" y="1304.0" type="line" smooth="yes"/>
      <point x="584.0" y="1294.0"/>
      <point x="596.0" y="1268.0"/>
      <point x="586.0" y="1214.0" type="curve" smooth="yes"/>
      <point x="530.0" y="892.0"/>
      <point x="442.0" y="552.0"/>
      <point x="314.0" y="184.0" type="curve" smooth="yes"/>
      <point x="296.0" y="134.0"/>
      <point x="272.0" y="106.0"/>
      <point x="226.0" y="96.0" type="curve" smooth="yes"/>
      <point x="174.0" y="84.0" type="line" smooth="yes"/>
      <point x="123.51924631044875" y="72.35059530241125"/>
      <point x="106.0" y="56.869565217391305"/>
      <point x="106.0" y="32.0" type="curve" smooth="yes"/>
      <point x="106.0" y="11.789473684210527"/>
      <point x="122.0" y="0.0"/>
      <point x="158.0" y="0.0" type="curve" smooth="yes"/>
      <point x="610.0" y="0.0" type="line" smooth="yes"/>
      <point x="648.0" y="0.0"/>
      <point x="674.0" y="15.473684210526319"/>
      <point x="674.0" y="42.0" type="curve" smooth="yes"/>
      <point x="674.0" y="65.73913043478261"/>
      <point x="661.8430488809903" y="76.03923777975241"/>
      <point x="630.0" y="84.0" type="curve" smooth="yes"/>
      <point x="582.0" y="96.0" type="line" smooth="yes"/>
      <point x="544.0" y="106.0"/>
      <point x="532.0" y="132.0"/>
    </contour>
  </outline>
</glyph>
<glyph name="O" format="2">
  <advance width="1478"/>
  <unicode hex="004F"/>
  <anchor x="1130.0" y="1546.0" name="center"/>
  <outline>
    <contour>
      <point x="1122.0" y="1428.0" type="curve" smooth="yes"/>
      <point x="720.0" y="1428.0"/>
      <point x="406.0" y="1146.0"/>
      <point x="294.0" y="724.0" type="curve" smooth="yes"/>
      <point x="176.0" y="280.0"/>
      <point x="414.0" y="-30.0"/>
      <point x="718.0" y="-30.0" type="curve" smooth="yes"/>
      <point x="1094.0" y="-30.0"/>
      <point x="1450.0" y="216.0"/>
      <point x="1566.0" y="706.0" type="curve" smooth="yes"/>
      <point x="1662.0" y="1114.0"/>
      <point x="1442.0" y="1428.0"/>
    </contour>
    <contour>
      <point x="1200.0" y="250.0"/>
      <point x="978.0" y="76.0"/>
      <point x="768.0" y="76.0" type="curve" smooth="yes"/>
      <point x="562.0" y="76.0"/>
      <point x="426.0" y="284.0"/>
      <point x="526.0" y="718.0" type="curve" smooth="yes"/>
      <point x="612.0" y="1090.0"/>
      <point x="840.0" y="1334.0"/>
      <point x="1076.0" y="1334.0" type="curve" smooth="yes"/>
      <point x="1286.0" y="1334.0"/>
      <point x="1444.0" y="1098.0"/>
      <point x="1330.0" y="700.0" type="curve" smooth="yes"/>
    </contour>
  </outline>
</glyph>
<glyph name="P" format="2">
  <advance width="1224"/>
  <unicode hex="0050"/>
  <outline>
    <contour>
      <point x="1128.0" y="442.0"/>
      <point x="1416.0" y="664.0"/>
      <point x="1416.0" y="986.0" type="curve" smooth="yes"/>
      <point x="1416.0" y="1244.0"/>
      <point x="1242.0" y="1400.0"/>
      <point x="966.0" y="1400.0" type="curve" smooth="yes"/>
      <point x="498.0" y="1400.0" type="line" smooth="yes"/>
      <point x="450.94117647058823" y="1400.0"/>
      <point x="426.0" y="1378.6666666666667"/>
      <point x="426.0" y="1352.0" type="curve" smooth="yes"/>
      <point x="426.0" y="1334.0"/>
      <point x="442.0" y="1322.0"/>
      <point x="472.0" y="1316.0" type="curve" smooth="yes"/>
      <point x="518.0" y="1304.0" type="line" smooth="yes"/>
      <point x="554.0" y="1296.0"/>
      <point x="572.0" y="1274.0"/>
      <point x="572.0" y="1242.0" type="curve" smooth="yes"/>
      <point x="572.0" y="1234.0"/>
      <point x="570.0" y="1224.0"/>
      <point x="568.0" y="1214.0" type="curve"/>
      <point x="504.0" y="866.0"/>
      <point x="412.0" y="520.0"/>
      <point x="296.0" y="184.0" type="curve" smooth="yes"/>
      <point x="280.0" y="140.0"/>
      <point x="260.0" y="106.0"/>
      <point x="218.0" y="96.0" type="curve" smooth="yes"/>
      <point x="166.0" y="84.0" type="line" smooth="yes"/>
      <point x="118.0" y="72.0"/>
      <point x="96.0" y="52.0"/>
      <point x="96.0" y="30.0" type="curve" smooth="yes"/>
      <point x="96.0" y="10.0"/>
      <point x="116.0" y="0.0"/>
      <point x="150.0" y="0.0" type="curve" smooth="yes"/>
      <point x="594.0" y="0.0" type="line" smooth="yes"/>
      <point x="638.0" y="0.0"/>
      <point x="668.0" y="22.0"/>
      <point x="668.0" y="48.0" type="curve" smooth="yes"/>
      <point x="668.0" y="66.0"/>
      <point x="652.0" y="76.0"/>
      <point x="622.0" y="84.0" type="curve" smooth="yes"/>
      <point x="574.0" y="96.0" type="line" smooth="yes"/>
      <point x="526.0" y="108.0"/>
      <point x="500.0" y="128.0"/>
      <point x="500.0" y="158.0" type="curve" smooth="yes"/>
      <point x="500.0" y="166.0"/>
      <point x="504.0" y="176.0"/>
      <point x="510.0" y="204.0" type="curve" smooth="yes"/>
      <point x="564.0" y="478.0"/>
      <point x="702.0" y="1006.0"/>
      <point x="752.0" y="1142.0" type="curve" smooth="yes"/>
      <point x="792.0" y="1250.0"/>
      <point x="856.0" y="1310.0"/>
      <point x="956.0" y="1310.0" type="curve" smooth="yes"/>
      <point x="1104.0" y="1310.0"/>
      <point x="1206.0" y="1186.0"/>
      <point x="1206.0" y="996.0" type="curve" smooth="yes"/>
      <point x="1206.0" y="720.0"/>
      <point x="1004.0" y="536.0"/>
      <point x="730.0" y="536.0" type="curve" smooth="yes"/>
      <point x="616.0" y="536.0"/>
      <point x="568.0" y="566.0"/>
      <point x="514.0" y="602.0" type="curve"/>
      <point x="474.0" y="526.0" type="line"/>
      <point x="572.0" y="462.0"/>
      <point x="646.0" y="442.0"/>
      <point x="788.0" y="442.0" type="curve" smooth="yes"/>
    </contour>
  </outline>
</glyph>
<glyph name="V" format="2">
  <advance width="1198"/>
  <unicode hex="0056"/>
  <outline>
    <contour>
      <point x="1128.0" y="1348.0" type="curve" smooth="yes"/>
      <point x="1128.0" y="1326.0"/>
      <point x="1144.0" y="1308.0"/>
      <point x="1168.0" y="1294.0" type="curve" smooth="yes"/>
      <point x="1226.0" y="1260.0" type="line" smooth="yes"/>
      <point x="1248.0" y="1246.0"/>
      <point x="1258.0" y="1230.0"/>
      <point x="1258.0" y="1208.0" type="curve" smooth="yes"/>
      <point x="1258.0" y="1188.0"/>
      <point x="1248.0" y="1158.0"/>
      <point x="1230.0" y="1128.0" type="curve" smooth="yes"/>
      <point x="604.0" y="122.0" type="line"/>
      <point x="682.0" y="158.0" type="line"/>
      <point x="674.0" y="500.0"/>
      <point x="688.0" y="962.0"/>
      <point x="688.0" y="1174.0" type="curve" smooth="yes"/>
      <point x="688.0" y="1240.0"/>
      <point x="722.0" y="1282.0"/>
      <point x="774.0" y="1292.0" type="curve" smooth="yes"/>
      <point x="824.0" y="1302.0" type="line" smooth="yes"/>
      <point x="856.0" y="1308.0"/>
      <point x="884.0" y="1324.0"/>
      <point x="884.0" y="1356.0" type="curve" smooth="yes"/>
      <point x="884.0" y="1384.0"/>
      <point x="864.0" y="1400.0"/>
      <point x="840.0" y="1400.0" type="curve" smooth="yes"/>
      <point x="452.0" y="1400.0" type="line" smooth="yes"/>
      <point x="422.0" y="1400.0"/>
      <point x="396.0" y="1378.0"/>
      <point x="396.0" y="1350.0" type="curve" smooth="yes"/>
      <point x="396.0" y="1330.0"/>
      <point x="406.0" y="1320.0"/>
      <point x="432.0" y="1302.0" type="curve" smooth="yes"/>
      <point x="450.0" y="1290.0"/>
      <point x="484.0" y="1254.0"/>
      <point x="488.0" y="1180.0" type="curve" smooth="yes"/>
      <point x="506.0" y="856.0"/>
      <point x="508.0" y="336.0"/>
      <point x="492.0" y="206.0" type="curve" smooth="yes"/>
      <point x="488.0" y="174.0"/>
      <point x="490.0" y="156.0"/>
      <point x="480.0" y="118.0" type="curve" smooth="yes"/>
      <point x="468.0" y="76.0" type="line" smooth="yes"/>
      <point x="456.0" y="32.0"/>
      <point x="476.0" y="0.0"/>
      <point x="514.0" y="0.0" type="curve" smooth="yes"/>
      <point x="618.0" y="0.0" type="line" smooth="yes"/>
      <point x="660.0" y="0.0"/>
      <point x="696.0" y="28.0"/>
      <point x="708.0" y="72.0" type="curve" smooth="yes"/>
      <point x="718.0" y="112.0" type="line" smooth="yes"/>
      <point x="728.0" y="156.0"/>
      <point x="744.0" y="192.0"/>
      <point x="766.0" y="226.0" type="curve" smooth="yes"/>
      <point x="1344.0" y="1132.0" type="line" smooth="yes"/>
      <point x="1402.0" y="1222.0"/>
      <point x="1440.0" y="1254.0"/>
      <point x="1506.0" y="1278.0" type="curve" smooth="yes"/>
      <point x="1570.0" y="1300.0"/>
      <point x="1592.0" y="1320.0"/>
      <point x="1592.0" y="1354.0" type="curve" smooth="yes"/>
      <point x="1592.0" y="1386.0"/>
      <point x="1572.0" y="1400.0"/>
      <point x="1526.0" y="1400.0" type="curve" smooth="yes"/>
      <point x="1198.0" y="1400.0" type="line" smooth="yes"/>
      <point x="1160.0" y="1400.0"/>
      <point x="1128.0" y="1378.0"/>
    </contour>
  </outline>
</glyph>
<glyph name="X" format="2">
  <advance width="1314"/>
  <unicode hex="0058"/>
  <outline>
    <contour>
      <point x="764.0" y="728.0" type="line"/>
      <point x="626.0" y="556.0" type="line" smooth="yes"/>
      <point x="350.0" y="212.0"/>
      <point x="256.0" y="140.0"/>
      <point x="130.0" y="112.0" type="curve" smooth="yes"/>
      <point x="78.0" y="100.0"/>
      <point x="62.0" y="78.0"/>
      <point x="62.0" y="46.0" type="curve" smooth="yes"/>
      <point x="62.0" y="18.0"/>
      <point x="80.0" y="0.0"/>
      <point x="116.0" y="0.0" type="curve" smooth="yes"/>
      <point x="500.0" y="0.0" type="line" smooth="yes"/>
      <point x="540.0" y="0.0"/>
      <point x="570.0" y="22.0"/>
      <point x="570.0" y="52.0" type="curve" smooth="yes"/>
      <point x="570.0" y="72.0"/>
      <point x="554.0" y="84.0"/>
      <point x="522.0" y="108.0" type="curve" smooth="yes"/>
      <point x="504.0" y="122.0"/>
      <point x="494.0" y="142.0"/>
      <point x="494.0" y="154.0" type="curve" smooth="yes"/>
      <point x="494.0" y="220.0"/>
      <point x="518.0" y="284.0"/>
      <point x="708.0" y="532.0" type="curve" smooth="yes"/>
      <point x="800.0" y="652.0" type="line"/>
    </contour>
    <contour>
      <point x="1004.0" y="560.0"/>
      <point x="832.0" y="998.0"/>
      <point x="756.0" y="1212.0" type="curve" smooth="yes"/>
      <point x="740.0" y="1256.0"/>
      <point x="766.0" y="1290.0"/>
      <point x="796.0" y="1298.0" type="curve" smooth="yes"/>
      <point x="836.0" y="1308.0" type="line" smooth="yes"/>
      <point x="868.0" y="1316.0"/>
      <point x="890.0" y="1332.0"/>
      <point x="890.0" y="1360.0" type="curve" smooth="yes"/>
      <point x="890.0" y="1386.0"/>
      <point x="874.0" y="1400.0"/>
      <point x="840.0" y="1400.0" type="curve" smooth="yes"/>
      <point x="452.0" y="1400.0" type="line" smooth="yes"/>
      <point x="412.0" y="1400.0"/>
      <point x="386.0" y="1384.0"/>
      <point x="386.0" y="1360.0" type="curve" smooth="yes"/>
      <point x="386.0" y="1336.0"/>
      <point x="400.0" y="1320.0"/>
      <point x="442.0" y="1302.0" type="curve" smooth="yes"/>
      <point x="484.0" y="1282.0"/>
      <point x="500.0" y="1274.0"/>
      <point x="526.0" y="1218.0" type="curve" smooth="yes"/>
      <point x="696.0" y="814.0"/>
      <point x="862.0" y="408.0"/>
      <point x="942.0" y="194.0" type="curve" smooth="yes"/>
      <point x="950.0" y="168.0"/>
      <point x="952.0" y="156.0"/>
      <point x="952.0" y="146.0" type="curve" smooth="yes"/>
      <point x="952.0" y="122.0"/>
      <point x="930.0" y="104.0"/>
      <point x="888.0" y="98.0" type="curve" smooth="yes"/>
      <point x="844.0" y="92.0"/>
      <point x="824.0" y="68.0"/>
      <point x="824.0" y="38.0" type="curve" smooth="yes"/>
      <point x="824.0" y="16.0"/>
      <point x="838.0" y="0.0"/>
      <point x="872.0" y="0.0" type="curve" smooth="yes"/>
      <point x="1240.0" y="0.0" type="line" smooth="yes"/>
      <point x="1280.0" y="0.0"/>
      <point x="1306.0" y="20.0"/>
      <point x="1306.0" y="46.0" type="curve" smooth="yes"/>
      <point x="1306.0" y="74.0"/>
      <point x="1296.0" y="84.0"/>
      <point x="1258.0" y="98.0" type="curve" smooth="yes"/>
      <point x="1222.0" y="110.0"/>
      <point x="1196.0" y="128.0"/>
      <point x="1174.0" y="176.0" type="curve" smooth="yes"/>
    </contour>
    <contour>
      <point x="924.0" y="708.0" type="line"/>
      <point x="1026.0" y="848.0" type="line" smooth="yes"/>
      <point x="1280.0" y="1196.0"/>
      <point x="1334.0" y="1240.0"/>
      <point x="1420.0" y="1240.0" type="curve" smooth="yes"/>
      <point x="1462.0" y="1240.0"/>
      <point x="1490.0" y="1192.0"/>
      <point x="1546.0" y="1192.0" type="curve" smooth="yes"/>
      <point x="1604.0" y="1192.0"/>
      <point x="1664.0" y="1244.0"/>
      <point x="1664.0" y="1322.0" type="curve" smooth="yes"/>
      <point x="1664.0" y="1382.0"/>
      <point x="1622.0" y="1430.0"/>
      <point x="1536.0" y="1430.0" type="curve" smooth="yes"/>
      <point x="1396.0" y="1430.0"/>
      <point x="1294.0" y="1364.0"/>
      <point x="966.0" y="896.0" type="curve" smooth="yes"/>
      <point x="886.0" y="782.0" type="line"/>
    </contour>
  </outline>
</glyph>
<glyph name="Z" format="2">
  <advance width="1164"/>
  <unicode hex="005A"/>
  <outline>
    <contour>
      <point x="812.0" y="0.0" type="line" smooth="yes"/>
      <point x="878.0" y="0.0"/>
      <point x="914.0" y="-32.0"/>
      <point x="960.0" y="-32.0" type="curve" smooth="yes"/>
      <point x="1080.0" y="-32.0"/>
      <point x="1184.0" y="126.0"/>
      <point x="1184.0" y="302.0" type="curve" smooth="yes"/>
      <point x="1184.0" y="342.0"/>
      <point x="1166.0" y="360.0"/>
      <point x="1136.0" y="360.0" type="curve" smooth="yes"/>
      <point x="1108.0" y="360.0"/>
      <point x="1094.0" y="342.0"/>
      <point x="1072.0" y="308.0" type="curve" smooth="yes"/>
      <point x="1034.0" y="252.0" type="line" smooth="yes"/>
      <point x="950.0" y="130.0"/>
      <point x="884.0" y="82.0"/>
      <point x="748.0" y="82.0" type="curve" smooth="yes"/>
      <point x="282.0" y="82.0" type="line"/>
      <point x="344.0" y="46.0" type="line"/>
      <point x="662.0" y="452.0"/>
      <point x="1036.0" y="896.0"/>
      <point x="1386.0" y="1282.0" type="curve" smooth="yes"/>
      <point x="1418.0" y="1318.0"/>
      <point x="1432.0" y="1338.0"/>
      <point x="1432.0" y="1358.0" type="curve" smooth="yes"/>
      <point x="1432.0" y="1384.0"/>
      <point x="1416.0" y="1396.0"/>
      <point x="1376.0" y="1396.0" type="curve" smooth="yes"/>
      <point x="726.0" y="1396.0" type="line" smooth="yes"/>
      <point x="660.0" y="1396.0"/>
      <point x="630.0" y="1442.0"/>
      <point x="586.0" y="1442.0" type="curve" smooth="yes"/>
      <point x="562.0" y="1442.0"/>
      <point x="544.0" y="1424.0"/>
      <point x="522.0" y="1382.0" type="curve" smooth="yes"/>
      <point x="410.0" y="1158.0" type="line" smooth="yes"/>
      <point x="398.0" y="1134.0"/>
      <point x="392.0" y="1118.0"/>
      <point x="392.0" y="1104.0" type="curve" smooth="yes"/>
      <point x="392.0" y="1084.0"/>
      <point x="402.0" y="1072.0"/>
      <point x="422.0" y="1072.0" type="curve" smooth="yes"/>
      <point x="448.0" y="1072.0"/>
      <point x="474.0" y="1084.0"/>
      <point x="516.0" y="1128.0" type="curve" smooth="yes"/>
      <point x="596.0" y="1210.0" type="line" smooth="yes"/>
      <point x="658.0" y="1276.0"/>
      <point x="682.0" y="1314.0"/>
      <point x="758.0" y="1314.0" type="curve" smooth="yes"/>
      <point x="1216.0" y="1314.0" type="line"/>
      <point x="1172.0" y="1348.0" type="line"/>
      <point x="864.0" y="946.0"/>
      <point x="486.0" y="514.0"/>
      <point x="128.0" y="126.0" type="curve" smooth="yes"/>
      <point x="86.0" y="80.0"/>
      <point x="78.0" y="66.0"/>
      <point x="78.0" y="44.0" type="curve" smooth="yes"/>
      <point x="78.0" y="14.0"/>
      <point x="96.0" y="0.0"/>
      <point x="138.0" y="0.0" type="curve" smooth="yes"/>
    </contour>
  </outline>
</glyph>
<glyph name="bracketleft" format="2">
  <advance width="696"/>
  <unicode hex="005B"/>
  <outline>
    <contour>
      <point x="762.0" y="1370.0" type="line" smooth="yes"/>
      <point x="772.0" y="1408.0"/>
      <point x="810.0" y="1438.0"/>
      <point x="846.0" y="1438.0" type="curve" smooth="yes"/>
      <point x="1006.0" y="1438.0" type="line" smooth="yes"/>
      <point x="1040.0" y="1438.0"/>
      <point x="1054.0" y="1448.0"/>
      <point x="1060.0" y="1472.0" type="curve" smooth="yes"/>
      <point x="1066.0" y="1492.0"/>
      <point x="1060.0" y="1512.0"/>
      <point x="1030.0" y="1512.0" type="curve" smooth="yes"/>
      <point x="726.0" y="1512.0" type="line" smooth="yes"/>
      <point x="680.0" y="1512.0"/>
      <point x="634.0" y="1468.0"/>
      <point x="618.0" y="1414.0" type="curve" smooth="yes"/>
      <point x="172.0" y="-256.0" type="line" smooth="yes"/>
      <point x="156.0" y="-310.0"/>
      <point x="180.0" y="-354.0"/>
      <point x="226.0" y="-354.0" type="curve" smooth="yes"/>
      <point x="530.0" y="-354.0" type="line" smooth="yes"/>
      <point x="560.0" y="-354.0"/>
      <point x="576.0" y="-334.0"/>
      <point x="582.0" y="-314.0" type="curve" smooth="yes"/>
      <point x="588.0" y="-290.0"/>
      <point x="578.0" y="-280.0"/>
      <point x="544.0" y="-280.0" type="curve" smooth="yes"/>
      <point x="384.0" y="-280.0" type="line" smooth="yes"/>
      <point x="348.0" y="-280.0"/>
      <point x="328.0" y="-250.0"/>
      <point x="338.0" y="-212.0" type="curve" smooth="yes"/>
    </contour>
  </outline>
</glyph>
<glyph name="asciicircum" format="2">
  <advance width="860"/>
  <unicode hex="005E"/>
  <outline>
    <contour>
      <point x="400.0" y="990.0" type="curve" smooth="yes"/>
      <point x="638.0" y="1304.0" type="line" smooth="yes"/>
      <point x="710.0" y="1402.0"/>
      <point x="758.0" y="1430.0"/>
      <point x="816.0" y="1430.0" type="curve" smooth="yes"/>
      <point x="868.0" y="1430.0"/>
      <point x="902.0" y="1400.0"/>
      <point x="922.0" y="1308.0" type="curve" smooth="yes"/>
      <point x="994.0" y="990.0" type="line" smooth="yes"/>
      <point x="998.0" y="972.0"/>
      <point x="1002.0" y="948.0"/>
      <point x="996.0" y="924.0" type="curve" smooth="yes"/>
      <point x="988.0" y="898.0"/>
      <point x="970.0" y="884.0"/>
      <point x="940.0" y="884.0" type="curve" smooth="yes"/>
      <point x="924.0" y="884.0"/>
      <point x="904.0" y="892.0"/>
      <point x="886.0" y="928.0" type="curve" smooth="yes"/>
      <point x="722.0" y="1288.0" type="line"/>
      <point x="832.0" y="1288.0" type="line"/>
      <point x="472.0" y="928.0" type="line" smooth="yes"/>
      <point x="436.0" y="892.0"/>
      <point x="412.0" y="884.0"/>
      <point x="394.0" y="884.0" type="curve" smooth="yes"/>
      <point x="364.0" y="884.0"/>
      <point x="352.0" y="898.0"/>
      <point x="360.0" y="924.0" type="curve" smooth="yes"/>
      <point x="366.0" y="948.0"/>
      <point x="384.0" y="972.0"/>
    </contour>
  </outline>
</glyph>
<glyph name="grave" format="2">
  <advance width="668"/>
  <unicode hex="0060"/>
  <outline>
    <contour>
      <point x="814.0" y="1110.0" type="curve" smooth="yes"/>
      <point x="702.0" y="1286.0" type="line" smooth="yes"/>
      <point x="683.8090095829573" y="1314.5858420839243"/>
      <point x="654.75" y="1334.0"/>
      <point x="618.0" y="1334.0" type="curve" smooth="yes"/>
      <point x="542.0" y="1334.0" type="line" smooth="yes"/>
      <point x="508.0" y="1334.0"/>
      <point x="492.0" y="1320.0"/>
      <point x="492.0" y="1296.0" type="curve" smooth="yes"/>
      <point x="492.0" y="1272.0"/>
      <point x="512.0" y="1260.0"/>
      <point x="546.0" y="1230.0" type="curve" smooth="yes"/>
      <point x="722.0" y="1074.0" type="line" smooth="yes"/>
      <point x="759.1362174763008" y="1041.0838072369152"/>
      <point x="784.0" y="1026.0"/>
      <point x="804.0" y="1026.0" type="curve" smooth="yes"/>
      <point x="828.0" y="1026.0"/>
      <point x="840.0" y="1036.0"/>
      <point x="840.0" y="1058.0" type="curve" smooth="yes"/>
      <point x="840.0" y="1076.0"/>
      <point x="824.0" y="1096.0"/>
    </contour>
  </outline>
</glyph>
<glyph name="g" format="2">
  <advance width="948"/>
  <unicode hex="0067"/>
  <outline>
    <contour>
      <point x="884.0" y="30.0" type="curve" smooth="yes"/>
      <point x="926.0" y="208.0"/>
      <point x="945.9443555920265" y="505.46210405625595"/>
      <point x="958.0" y="622.0" type="curve" smooth="yes"/>
      <point x="968.0" y="720.0"/>
      <point x="1050.0" y="770.0"/>
      <point x="1050.0" y="840.0" type="curve" smooth="yes"/>
      <point x="1050.0" y="918.0"/>
      <point x="968.0" y="960.0"/>
      <point x="814.0" y="960.0" type="curve" smooth="yes"/>
      <point x="471.8780487804878" y="960.0"/>
      <point x="138.0" y="558.0"/>
      <point x="138.0" y="196.0" type="curve" smooth="yes"/>
      <point x="138.0" y="46.0"/>
      <point x="215.4193548387097" y="-30.0"/>
      <point x="338.0" y="-30.0" type="curve" smooth="yes"/>
      <point x="500.2151394422311" y="-30.0"/>
      <point x="727.5757280699188" y="150.55361842017788"/>
      <point x="860.0" y="602.0" type="curve"/>
      <point x="790.0" y="524.0" type="line"/>
      <point x="790.0" y="434.0"/>
      <point x="776.0" y="256.0"/>
      <point x="708.0" y="-26.0" type="curve" smooth="yes"/>
      <point x="645.5195754730047" y="-282.16974056068057"/>
      <point x="560.0" y="-350.0"/>
      <point x="450.0" y="-350.0" type="curve" smooth="yes"/>
      <point x="338.0" y="-350.0"/>
      <point x="226.0" y="-264.0"/>
      <point x="156.0" y="-264.0" type="curve" smooth="yes"/>
      <point x="74.0" y="-264.0"/>
      <point x="16.0" y="-306.0"/>
      <point x="16.0" y="-378.0" type="curve" smooth="yes"/>
      <point x="16.0" y="-438.0"/>
      <point x="90.0" y="-490.0"/>
      <point x="256.0" y="-490.0" type="curve" smooth="yes"/>
      <point x="512.0" y="-490.0"/>
      <point x="799.9021114917496" y="-334.424183535752"/>
    </contour>
    <contour>
      <point x="334.5818181818182" y="134.0"/>
      <point x="288.0" y="182.0"/>
      <point x="288.0" y="286.0" type="curve" smooth="yes"/>
      <point x="288.0" y="578.0"/>
      <point x="529.3300492610838" y="826.0"/>
      <point x="714.0" y="826.0" type="curve" smooth="yes"/>
      <point x="776.0" y="826.0"/>
      <point x="810.0" y="772.0"/>
      <point x="810.0" y="698.0" type="curve" smooth="yes"/>
      <point x="810.0" y="510.0"/>
      <point x="586.8421052631579" y="134.0"/>
      <point x="410.0" y="134.0" type="curve" smooth="yes"/>
    </contour>
  </outline>
</glyph>
<glyph name="u" format="2">
  <advance width="1100"/>
  <unicode hex="0075"/>
  <anchor x="782.0" y="1016.0" name="center"/>
  <outline>
    <contour>
      <point x="1096.0" y="230.0" type="curve" smooth="yes"/>
      <point x="1072.0" y="230.0"/>
      <point x="1054.0" y="216.0"/>
      <point x="1036.0" y="194.0" type="curve" smooth="yes"/>
      <point x="1006.0" y="160.0"/>
      <point x="980.0" y="142.0"/>
      <point x="954.0" y="142.0" type="curve" smooth="yes"/>
      <point x="924.0" y="142.0"/>
      <point x="912.0" y="164.0"/>
      <point x="910.0" y="190.0" type="curve" smooth="yes"/>
      <point x="908.0" y="228.0"/>
      <point x="916.0" y="270.0"/>
      <point x="932.0" y="312.0" type="curve" smooth="yes"/>
      <point x="1104.0" y="728.0" type="line" smooth="yes"/>
      <point x="1122.0" y="774.0"/>
      <point x="1136.0" y="822.0"/>
      <point x="1132.0" y="870.0" type="curve" smooth="yes"/>
      <point x="1130.0" y="928.0"/>
      <point x="1102.0" y="958.0"/>
      <point x="1054.0" y="958.0" type="curve" smooth="yes"/>
      <point x="980.0" y="958.0"/>
      <point x="908.0" y="910.0"/>
      <point x="912.0" y="842.0" type="curve" smooth="yes"/>
      <point x="914.0" y="804.0"/>
      <point x="924.0" y="768.0"/>
      <point x="928.0" y="732.0" type="curve" smooth="yes"/>
      <point x="930.0" y="696.0"/>
      <point x="916.0" y="640.0"/>
      <point x="862.0" y="504.0" type="curve" smooth="yes"/>
      <point x="764.0" y="256.0"/>
      <point x="602.0" y="124.0"/>
      <point x="488.0" y="124.0" type="curve" smooth="yes"/>
      <point x="432.0" y="124.0"/>
      <point x="414.0" y="154.0"/>
      <point x="410.0" y="198.0" type="curve" smooth="yes"/>
      <point x="410.0" y="236.0"/>
      <point x="420.0" y="284.0"/>
      <point x="438.0" y="330.0" type="curve" smooth="yes"/>
      <point x="558.0" y="648.0" type="line" smooth="yes"/>
      <point x="584.0" y="716.0"/>
      <point x="610.0" y="770.0"/>
      <point x="608.0" y="828.0" type="curve" smooth="yes"/>
      <point x="604.0" y="900.0"/>
      <point x="570.0" y="958.0"/>
      <point x="502.0" y="958.0" type="curve" smooth="yes"/>
      <point x="336.0" y="958.0"/>
      <point x="212.0" y="842.0"/>
      <point x="216.0" y="754.0" type="curve" smooth="yes"/>
      <point x="218.0" y="726.0"/>
      <point x="232.0" y="716.0"/>
      <point x="250.0" y="716.0" type="curve" smooth="yes"/>
      <point x="264.0" y="716.0"/>
      <point x="276.0" y="726.0"/>
      <point x="294.0" y="752.0" type="curve" smooth="yes"/>
      <point x="314.0" y="780.0"/>
      <point x="344.0" y="796.0"/>
      <point x="370.0" y="796.0" type="curve" smooth="yes"/>
      <point x="398.0" y="796.0"/>
      <point x="420.0" y="772.0"/>
      <point x="422.0" y="732.0" type="curve" smooth="yes"/>
      <point x="426.0" y="686.0"/>
      <point x="408.0" y="636.0"/>
      <point x="390.0" y="588.0" type="curve" smooth="yes"/>
      <point x="292.0" y="330.0" type="line" smooth="yes"/>
      <point x="256.0" y="236.0"/>
      <point x="232.0" y="178.0"/>
      <point x="232.0" y="94.0" type="curve" smooth="yes"/>
      <point x="232.0" y="20.0"/>
      <point x="274.0" y="-32.0"/>
      <point x="350.0" y="-32.0" type="curve" smooth="yes"/>
      <point x="514.0" y="-32.0"/>
      <point x="672.0" y="78.0"/>
      <point x="830.0" y="318.0" type="curve"/>
      <point x="812.0" y="328.0" type="line"/>
      <point x="812.0" y="252.0"/>
      <point x="746.0" y="136.0"/>
      <point x="746.0" y="60.0" type="curve" smooth="yes"/>
      <point x="746.0" y="4.0"/>
      <point x="786.0" y="-32.0"/>
      <point x="848.0" y="-32.0" type="curve" smooth="yes"/>
      <point x="974.0" y="-32.0"/>
      <point x="1134.0" y="102.0"/>
      <point x="1128.0" y="194.0" type="curve" smooth="yes"/>
      <point x="1128.0" y="216.0"/>
      <point x="1116.0" y="230.0"/>
    </contour>
  </outline>
</glyph>
<glyph name="v" format="2">
  <advance width="1030"/>
  <unicode hex="0076"/>
  <outline>
    <contour>
      <point x="804.0" y="-30.0"/>
      <point x="1122.0" y="358.0"/>
      <point x="1122.0" y="808.0" type="curve" smooth="yes"/>
      <point x="1122.0" y="910.0"/>
      <point x="1070.0" y="960.0"/>
      <point x="996.0" y="960.0" type="curve" smooth="yes"/>
      <point x="928.0" y="960.0"/>
      <point x="876.0" y="906.0"/>
      <point x="876.0" y="840.0" type="curve" smooth="yes"/>
      <point x="876.0" y="790.0"/>
      <point x="900.0" y="752.0"/>
      <point x="938.0" y="714.0" type="curve" smooth="yes"/>
      <point x="966.0" y="686.0"/>
      <point x="982.0" y="660.0"/>
      <point x="982.0" y="630.0" type="curve" smooth="yes"/>
      <point x="982.0" y="356.0"/>
      <point x="798.0" y="136.0"/>
      <point x="646.0" y="136.0" type="curve" smooth="yes"/>
      <point x="546.0" y="136.0"/>
      <point x="502.0" y="196.0"/>
      <point x="502.0" y="284.0" type="curve" smooth="yes"/>
      <point x="502.0" y="416.0"/>
      <point x="552.0" y="528.0"/>
      <point x="708.0" y="786.0" type="curve" smooth="yes"/>
      <point x="752.0" y="862.0"/>
      <point x="782.0" y="888.0"/>
      <point x="782.0" y="922.0" type="curve" smooth="yes"/>
      <point x="782.0" y="948.0"/>
      <point x="770.0" y="960.0"/>
      <point x="748.0" y="960.0" type="curve" smooth="yes"/>
      <point x="712.0" y="960.0"/>
      <point x="688.0" y="926.0"/>
      <point x="644.0" y="926.0" type="curve" smooth="yes"/>
      <point x="592.0" y="926.0"/>
      <point x="488.0" y="942.0"/>
      <point x="444.0" y="942.0" type="curve" smooth="yes"/>
      <point x="302.0" y="942.0"/>
      <point x="208.0" y="802.0"/>
      <point x="208.0" y="662.0" type="curve" smooth="yes"/>
      <point x="208.0" y="592.0"/>
      <point x="240.0" y="552.0"/>
      <point x="288.0" y="552.0" type="curve" smooth="yes"/>
      <point x="328.0" y="552.0"/>
      <point x="366.0" y="578.0"/>
      <point x="366.0" y="628.0" type="curve" smooth="yes"/>
      <point x="366.0" y="654.0"/>
      <point x="350.0" y="680.0"/>
      <point x="316.0" y="694.0" type="curve" smooth="yes"/>
      <point x="292.0" y="704.0"/>
      <point x="284.0" y="720.0"/>
      <point x="284.0" y="734.0" type="curve" smooth="yes"/>
      <point x="284.0" y="756.0"/>
      <point x="302.0" y="774.0"/>
      <point x="342.0" y="774.0" type="curve" smooth="yes"/>
      <point x="418.0" y="774.0"/>
      <point x="548.0" y="748.0"/>
      <point x="638.0" y="748.0" type="curve" smooth="yes"/>
      <point x="696.0" y="748.0"/>
      <point x="710.0" y="822.0"/>
      <point x="678.0" y="854.0" type="curve"/>
      <point x="678.0" y="816.0"/>
      <point x="652.0" y="786.0"/>
      <point x="560.0" y="664.0" type="curve" smooth="yes"/>
      <point x="386.0" y="432.0"/>
      <point x="320.0" y="292.0"/>
      <point x="320.0" y="174.0" type="curve" smooth="yes"/>
      <point x="320.0" y="52.0"/>
      <point x="398.0" y="-30.0"/>
      <point x="528.0" y="-30.0" type="curve" smooth="yes"/>
    </contour>
  </outline>
</glyph>
<glyph name="x" format="2">
  <advance width="1070"/>
  <unicode hex="0078"/>
  <outline>
    <contour>
      <point x="338.0" y="92.0" type="curve" smooth="yes"/>
      <point x="304.0" y="92.0"/>
      <point x="284.0" y="112.0"/>
      <point x="284.0" y="136.0" type="curve" smooth="yes"/>
      <point x="284.0" y="169.22222222222223"/>
      <point x="290.0" y="202.44444444444446"/>
      <point x="290.0" y="228.0" type="curve" smooth="yes"/>
      <point x="290.0" y="276.0"/>
      <point x="254.0" y="306.0"/>
      <point x="202.0" y="306.0" type="curve" smooth="yes"/>
      <point x="142.0" y="306.0"/>
      <point x="92.0" y="250.0"/>
      <point x="92.0" y="154.0" type="curve" smooth="yes"/>
      <point x="92.0" y="62.0"/>
      <point x="156.0" y="-32.0"/>
      <point x="282.0" y="-32.0" type="curve" smooth="yes"/>
      <point x="400.8711656441718" y="-32.0"/>
      <point x="535.4889539773521" y="32.35576497061135"/>
      <point x="628.0" y="330.0" type="curve"/>
      <point x="590.0" y="332.0" type="line"/>
      <point x="574.0" y="72.0"/>
      <point x="648.0" y="-30.0"/>
      <point x="774.0" y="-30.0" type="curve" smooth="yes"/>
      <point x="908.0" y="-30.0"/>
      <point x="1054.0" y="112.0"/>
      <point x="1054.0" y="224.0" type="curve" smooth="yes"/>
      <point x="1054.0" y="252.0"/>
      <point x="1036.0" y="272.0"/>
      <point x="1022.0" y="272.0" type="curve" smooth="yes"/>
      <point x="998.516129032258" y="272.0"/>
      <point x="979.825509653389" y="253.5812231681334"/>
      <point x="970.0" y="230.0" type="curve" smooth="yes"/>
      <point x="945.9424112458239" y="168.930736239399"/>
      <point x="908.0" y="116.0"/>
      <point x="850.0" y="116.0" type="curve" smooth="yes"/>
      <point x="790.0" y="116.0"/>
      <point x="736.0" y="174.6861313868613"/>
      <point x="736.0" y="384.0" type="curve" smooth="yes"/>
      <point x="736.0" y="630.7272727272727"/>
      <point x="854.0" y="844.0"/>
      <point x="980.0" y="844.0" type="curve" smooth="yes"/>
      <point x="1014.0" y="844.0"/>
      <point x="1034.0" y="824.0"/>
      <point x="1034.0" y="800.0" type="curve" smooth="yes"/>
      <point x="1034.0" y="765.0"/>
      <point x="1024.0" y="727.5"/>
      <point x="1024.0" y="700.0" type="curve" smooth="yes"/>
      <point x="1024.0" y="652.0"/>
      <point x="1060.0" y="622.0"/>
      <point x="1112.0" y="622.0" type="curve" smooth="yes"/>
      <point x="1172.0" y="622.0"/>
      <point x="1222.0" y="678.0"/>
      <point x="1222.0" y="774.0" type="curve" smooth="yes"/>
      <point x="1222.0" y="866.0"/>
      <point x="1158.0" y="960.0"/>
      <point x="1032.0" y="960.0" type="curve" smooth="yes"/>
      <point x="880.4697986577181" y="960.0"/>
      <point x="754.0800195506903" y="850.4641133940038"/>
      <point x="714.0" y="618.0" type="curve"/>
      <point x="728.0" y="622.0" type="line"/>
      <point x="729.9999867760764" y="877.9983073377738"/>
      <point x="676.6666666666666" y="960.0"/>
      <point x="574.0" y="960.0" type="curve" smooth="yes"/>
      <point x="396.7074829931973" y="960.0"/>
      <point x="260.0" y="814.0"/>
      <point x="260.0" y="704.0" type="curve" smooth="yes"/>
      <point x="260.0" y="676.0"/>
      <point x="278.0" y="656.0"/>
      <point x="292.0" y="656.0" type="curve" smooth="yes"/>
      <point x="315.48387096774195" y="656.0"/>
      <point x="336.0791476586231" y="680.2968037198367"/>
      <point x="344.0" y="710.0" type="curve" smooth="yes"/>
      <point x="360.0875456067562" y="774.3501824270247"/>
      <point x="409.69230769230774" y="830.0"/>
      <point x="466.0" y="830.0" type="curve" smooth="yes"/>
      <point x="536.0" y="830.0"/>
      <point x="592.0" y="770.0"/>
      <point x="592.0" y="566.0" type="curve" smooth="yes"/>
      <point x="592.0" y="279.9295154185022"/>
      <point x="466.0" y="92.0"/>
    </contour>
  </outline>
</glyph>
<glyph name="z" format="2">
  <advance width="878"/>
  <unicode hex="007A"/>
  <outline>
    <contour>
      <point x="368.0" y="158.0" type="curve"/>
      <point x="334.0" y="222.0" type="line"/>
      <point x="396.22857142857146" y="222.0"/>
      <point x="575.3714285714286" y="156.0"/>
      <point x="664.0" y="156.0" type="curve" smooth="yes"/>
      <point x="724.0" y="156.0"/>
      <point x="758.0" y="180.0"/>
      <point x="782.0" y="240.0" type="curve" smooth="yes"/>
      <point x="796.0" y="278.0"/>
      <point x="818.0" y="294.0"/>
      <point x="838.0" y="294.0" type="curve" smooth="yes"/>
      <point x="860.0" y="294.0"/>
      <point x="872.0" y="278.0"/>
      <point x="872.0" y="244.0" type="curve" smooth="yes"/>
      <point x="872.0" y="80.0"/>
      <point x="754.0" y="-30.0"/>
      <point x="614.0" y="-30.0" type="curve" smooth="yes"/>
      <point x="466.0" y="-30.0"/>
      <point x="406.47058823529414" y="124.0"/>
      <point x="362.0" y="124.0" type="curve" smooth="yes"/>
      <point x="308.2857142857143" y="124.0"/>
      <point x="290.3809523809524" y="-30.0"/>
      <point x="174.0" y="-30.0" type="curve" smooth="yes"/>
      <point x="122.0" y="-30.0"/>
      <point x="88.0" y="0.0"/>
      <point x="88.0" y="56.0" type="curve" smooth="yes"/>
      <point x="88.0" y="108.0"/>
      <point x="132.0" y="152.0"/>
      <point x="190.0" y="182.0" type="curve" smooth="yes"/>
      <point x="236.0" y="206.0"/>
      <point x="404.0" y="322.0"/>
      <point x="632.0" y="524.0" type="curve" smooth="yes"/>
      <point x="738.2752637870856" y="614.5953068348925"/>
      <point x="784.0" y="672.5"/>
      <point x="784.0" y="722.0" type="curve"/>
      <point x="794.0" y="672.0" type="line"/>
      <point x="710.1904761904761" y="672.0"/>
      <point x="493.04761904761904" y="754.0"/>
      <point x="394.0" y="754.0" type="curve" smooth="yes"/>
      <point x="354.0" y="754.0"/>
      <point x="336.0" y="736.0"/>
      <point x="336.0" y="714.0" type="curve" smooth="yes"/>
      <point x="336.0" y="700.0"/>
      <point x="344.0" y="684.0"/>
      <point x="368.0" y="674.0" type="curve" smooth="yes"/>
      <point x="402.0" y="660.0"/>
      <point x="418.0" y="634.0"/>
      <point x="418.0" y="608.0" type="curve" smooth="yes"/>
      <point x="418.0" y="558.0"/>
      <point x="380.0" y="532.0"/>
      <point x="340.0" y="532.0" type="curve" smooth="yes"/>
      <point x="292.0" y="532.0"/>
      <point x="260.0" y="572.0"/>
      <point x="260.0" y="642.0" type="curve" smooth="yes"/>
      <point x="260.0" y="804.0"/>
      <point x="372.0" y="960.0"/>
      <point x="540.0" y="960.0" type="curve" smooth="yes"/>
      <point x="688.0" y="960.0"/>
      <point x="712.0" y="760.0"/>
      <point x="776.0" y="760.0" type="curve" smooth="yes"/>
      <point x="802.0" y="760.0"/>
      <point x="818.0" y="772.0"/>
      <point x="828.0" y="840.0" type="curve" smooth="yes"/>
      <point x="838.0" y="908.0"/>
      <point x="879.6170212765958" y="960.0"/>
      <point x="946.0" y="960.0" type="curve" smooth="yes"/>
      <point x="992.8571428571429" y="960.0"/>
      <point x="1028.0" y="909.8909090909091"/>
      <point x="1028.0" y="854.0" type="curve" smooth="yes"/>
      <point x="1028.0" y="762.1632653061224"/>
      <point x="985.6410429627288" y="712.8319223043446"/>
      <point x="910.0" y="654.0" type="curve" smooth="yes"/>
      <point x="846.0" y="604.0"/>
      <point x="730.0" y="504.0"/>
      <point x="620.0" y="412.0" type="curve" smooth="yes"/>
      <point x="419.8596984623731" y="246.11794827512006"/>
      <point x="368.0" y="187.37414965986395"/>
    </contour>
  </outline>
</glyph>
<glyph name="braceleft" format="2">
  <advance width="818"/>
  <unicode hex="007B"/>
  <outline>
    <contour>
      <point x="576.0" y="578.0" type="curve" smooth="yes"/>
      <point x="580.0" y="590.0"/>
      <point x="592.0" y="600.0"/>
      <point x="606.0" y="600.0" type="curve" smooth="yes"/>
      <point x="676.0" y="600.0"/>
      <point x="740.0" y="662.0"/>
      <point x="762.0" y="750.0" type="curve" smooth="yes"/>
      <point x="806.0" y="910.0"/>
      <point x="728.0" y="1050.0"/>
      <point x="766.0" y="1196.0" type="curve" smooth="yes"/>
      <point x="802.0" y="1330.0"/>
      <point x="920.0" y="1436.0"/>
      <point x="1026.0" y="1436.0" type="curve" smooth="yes"/>
      <point x="1126.0" y="1436.0" type="line" smooth="yes"/>
      <point x="1154.0" y="1436.0"/>
      <point x="1176.0" y="1450.0"/>
      <point x="1182.0" y="1474.0" type="curve" smooth="yes"/>
      <point x="1188.0" y="1494.0"/>
      <point x="1178.0" y="1510.0"/>
      <point x="1150.0" y="1510.0" type="curve" smooth="yes"/>
      <point x="1046.0" y="1510.0" type="line" smooth="yes"/>
      <point x="824.0" y="1510.0"/>
      <point x="632.0" y="1384.0"/>
      <point x="584.0" y="1200.0" type="curve" smooth="yes"/>
      <point x="532.0" y="1004.0"/>
      <point x="656.0" y="878.0"/>
      <point x="612.0" y="718.0" type="curve" smooth="yes"/>
      <point x="600.0" y="668.0"/>
      <point x="550.0" y="642.0"/>
      <point x="496.0" y="642.0" type="curve" smooth="yes"/>
      <point x="458.0" y="642.0"/>
      <point x="412.0" y="668.0"/>
      <point x="372.0" y="668.0" type="curve" smooth="yes"/>
      <point x="326.0" y="668.0"/>
      <point x="272.0" y="622.0"/>
      <point x="262.0" y="580.0" type="curve" smooth="yes"/>
      <point x="250.0" y="534.0"/>
      <point x="276.0" y="492.0"/>
      <point x="330.0" y="492.0" type="curve" smooth="yes"/>
      <point x="368.0" y="492.0"/>
      <point x="424.0" y="518.0"/>
      <point x="462.0" y="518.0" type="curve" smooth="yes"/>
      <point x="520.0" y="518.0"/>
      <point x="550.0" y="486.0"/>
      <point x="536.0" y="432.0" type="curve" smooth="yes"/>
      <point x="496.0" y="282.0"/>
      <point x="302.0" y="152.0"/>
      <point x="246.0" y="-60.0" type="curve" smooth="yes"/>
      <point x="198.0" y="-240.0"/>
      <point x="320.0" y="-370.0"/>
      <point x="542.0" y="-370.0" type="curve" smooth="yes"/>
      <point x="646.0" y="-370.0" type="line" smooth="yes"/>
      <point x="674.0" y="-370.0"/>
      <point x="694.0" y="-350.0"/>
      <point x="698.0" y="-334.0" type="curve" smooth="yes"/>
      <point x="706.0" y="-306.0"/>
      <point x="690.0" y="-296.0"/>
      <point x="662.0" y="-296.0" type="curve" smooth="yes"/>
      <point x="562.0" y="-296.0" type="line" smooth="yes"/>
      <point x="456.0" y="-296.0"/>
      <point x="396.0" y="-186.0"/>
      <point x="430.0" y="-56.0" type="curve" smooth="yes"/>
      <point x="472.0" y="100.0"/>
      <point x="628.0" y="248.0"/>
      <point x="670.0" y="402.0" type="curve" smooth="yes"/>
      <point x="692.0" y="488.0"/>
      <point x="672.0" y="558.0"/>
      <point x="596.0" y="558.0" type="curve" smooth="yes"/>
      <point x="582.0" y="558.0"/>
      <point x="574.0" y="564.0"/>
    </contour>
  </outline>
</glyph>
<glyph name="braceright" format="2">
  <advance width="818"/>
  <unicode hex="007D"/>
  <outline>
    <contour>
      <point x="520.0" y="552.0" type="curve" smooth="yes"/>
      <point x="516.0" y="540.0"/>
      <point x="504.0" y="530.0"/>
      <point x="490.0" y="530.0" type="curve" smooth="yes"/>
      <point x="420.0" y="530.0"/>
      <point x="356.0" y="468.0"/>
      <point x="334.0" y="380.0" type="curve" smooth="yes"/>
      <point x="290.0" y="220.0"/>
      <point x="368.0" y="80.0"/>
      <point x="330.0" y="-66.0" type="curve" smooth="yes"/>
      <point x="294.0" y="-200.0"/>
      <point x="176.0" y="-306.0"/>
      <point x="70.0" y="-306.0" type="curve" smooth="yes"/>
      <point x="-30.0" y="-306.0" type="line" smooth="yes"/>
      <point x="-58.0" y="-306.0"/>
      <point x="-80.0" y="-320.0"/>
      <point x="-86.0" y="-344.0" type="curve" smooth="yes"/>
      <point x="-92.0" y="-364.0"/>
      <point x="-82.0" y="-380.0"/>
      <point x="-54.0" y="-380.0" type="curve" smooth="yes"/>
      <point x="50.0" y="-380.0" type="line" smooth="yes"/>
      <point x="272.0" y="-380.0"/>
      <point x="464.0" y="-254.0"/>
      <point x="512.0" y="-70.0" type="curve" smooth="yes"/>
      <point x="564.0" y="126.0"/>
      <point x="440.0" y="252.0"/>
      <point x="484.0" y="412.0" type="curve" smooth="yes"/>
      <point x="496.0" y="462.0"/>
      <point x="546.0" y="488.0"/>
      <point x="600.0" y="488.0" type="curve" smooth="yes"/>
      <point x="638.0" y="488.0"/>
      <point x="684.0" y="462.0"/>
      <point x="724.0" y="462.0" type="curve" smooth="yes"/>
      <point x="770.0" y="462.0"/>
      <point x="824.0" y="508.0"/>
      <point x="834.0" y="550.0" type="curve" smooth="yes"/>
      <point x="846.0" y="596.0"/>
      <point x="820.0" y="638.0"/>
      <point x="766.0" y="638.0" type="curve" smooth="yes"/>
      <point x="728.0" y="638.0"/>
      <point x="672.0" y="612.0"/>
      <point x="634.0" y="612.0" type="curve" smooth="yes"/>
      <point x="576.0" y="612.0"/>
      <point x="546.0" y="644.0"/>
      <point x="560.0" y="698.0" type="curve" smooth="yes"/>
      <point x="600.0" y="848.0"/>
      <point x="794.0" y="978.0"/>
      <point x="850.0" y="1190.0" type="curve" smooth="yes"/>
      <point x="898.0" y="1370.0"/>
      <point x="776.0" y="1500.0"/>
      <point x="554.0" y="1500.0" type="curve" smooth="yes"/>
      <point x="450.0" y="1500.0" type="line" smooth="yes"/>
      <point x="422.0" y="1500.0"/>
      <point x="402.0" y="1480.0"/>
      <point x="398.0" y="1464.0" type="curve" smooth="yes"/>
      <point x="390.0" y="1436.0"/>
      <point x="406.0" y="1426.0"/>
      <point x="434.0" y="1426.0" type="curve" smooth="yes"/>
      <point x="534.0" y="1426.0" type="line" smooth="yes"/>
      <point x="640.0" y="1426.0"/>
      <point x="700.0" y="1316.0"/>
      <point x="666.0" y="1186.0" type="curve" smooth="yes"/>
      <point x="624.0" y="1030.0"/>
      <point x="468.0" y="882.0"/>
      <point x="426.0" y="728.0" type="curve" smooth="yes"/>
      <point x="404.0" y="642.0"/>
      <point x="424.0" y="572.0"/>
      <point x="500.0" y="572.0" type="curve" smooth="yes"/>
      <point x="514.0" y="572.0"/>
      <point x="522.0" y="566.0"/>
    </contour>
  </outline>
</glyph>
<glyph name="asciitilde" format="2">
  <advance width="1016"/>
  <unicode hex="007E"/>
  <outline>
    <contour>
      <point x="328.125" y="452.0400000000002" type="curve" smooth="yes"/>
      <point x="371.875" y="580.3000000000002"/>
      <point x="493.75" y="674.6800000000003"/>
      <point x="653.125" y="674.6800000000003" type="curve" smooth="yes"/>
      <point x="728.125" y="674.6800000000003"/>
      <point x="793.75" y="650.4800000000002"/>
      <point x="850.0" y="580.3000000000002" type="curve" smooth="yes"/>
      <point x="900.0" y="517.3800000000001"/>
      <point x="931.25" y="500.4400000000003"/>
      <point x="975.0" y="500.4400000000003" type="curve" smooth="yes"/>
      <point x="1015.625" y="500.4400000000003"/>
      <point x="1053.125" y="536.7400000000002"/>
      <point x="1078.125" y="611.7600000000002" type="curve" smooth="yes"/>
      <point x="1093.75" y="652.9000000000003"/>
      <point x="1121.875" y="674.6800000000003"/>
      <point x="1159.375" y="674.6800000000003" type="curve" smooth="yes"/>
      <point x="1190.625" y="674.6800000000003"/>
      <point x="1212.5" y="657.7400000000002"/>
      <point x="1190.625" y="589.9800000000002" type="curve" smooth="yes"/>
      <point x="1137.5" y="439.9400000000003"/>
      <point x="1015.625" y="367.34000000000015"/>
      <point x="881.25" y="369.7600000000002" type="curve" smooth="yes"/>
      <point x="771.875" y="372.1800000000003"/>
      <point x="703.125" y="403.6400000000001"/>
      <point x="659.375" y="461.72000000000025" type="curve" smooth="yes"/>
      <point x="606.25" y="527.0600000000002"/>
      <point x="578.125" y="544.0000000000002"/>
      <point x="543.75" y="544.0000000000002" type="curve" smooth="yes"/>
      <point x="503.125" y="544.0000000000002"/>
      <point x="465.625" y="502.8600000000001"/>
      <point x="434.375" y="413.32000000000016" type="curve" smooth="yes"/>
      <point x="421.875" y="377.0200000000002"/>
      <point x="387.5" y="357.6600000000001"/>
      <point x="353.125" y="357.6600000000001" type="curve" smooth="yes"/>
      <point x="325.0" y="357.6600000000001"/>
      <point x="300.0" y="377.0200000000002"/>
    </contour>
    <contour>
      <point x="328.125" y="452.0400000000002" type="curve" smooth="yes"/>
      <point x="371.875" y="580.3000000000002"/>
      <point x="493.75" y="674.6800000000003"/>
      <point x="653.125" y="674.6800000000003" type="curve" smooth="yes"/>
      <point x="728.125" y="674.6800000000003"/>
      <point x="793.75" y="650.4800000000002"/>
      <point x="850.0" y="580.3000000000002" type="curve" smooth="yes"/>
      <point x="900.0" y="517.3800000000001"/>
      <point x="931.25" y="500.4400000000003"/>
      <point x="975.0" y="500.4400000000003" type="curve" smooth="yes"/>
      <point x="1015.625" y="500.4400000000003"/>
      <point x="1053.125" y="536.7400000000002"/>
      <point x="1078.125" y="611.7600000000002" type="curve" smooth="yes"/>
      <point x="1093.75" y="652.9000000000003"/>
      <point x="1121.875" y="674.6800000000003"/>
      <point x="1159.375" y="674.6800000000003" type="curve" smooth="yes"/>
      <point x="1190.625" y="674.6800000000003"/>
      <point x="1212.5" y="657.7400000000002"/>
      <point x="1190.625" y="589.9800000000002" type="curve" smooth="yes"/>
      <point x="1137.5" y="439.9400000000003"/>
      <point x="1015.625" y="367.34000000000015"/>
      <point x="881.25" y="369.7600000000002" type="curve" smooth="yes"/>
      <point x="771.875" y="372.1800000000003"/>
      <point x="703.125" y="403.6400000000001"/>
      <point x="659.375" y="461.72000000000025" type="curve" smooth="yes"/>
      <point x="606.25" y="527.0600000000002"/>
      <point x="578.125" y="544.0000000000002"/>
      <point x="543.75" y="544.0000000000002" type="curve" smooth="yes"/>
      <point x="503.125" y="544.0000000000002"/>
      <point x="465.625" y="502.8600000000001"/>
      <point x="434.375" y="413.32000000000016" type="curve" smooth="yes"/>
      <point x="421.875" y="377.0200000000002"/>
      <point x="387.5" y="357.6600000000001"/>
      <point x="353.125" y="357.6600000000001" type="curve" smooth="yes"/>
      <point x="325.0" y="357.6600000000001"/>
      <point x="300.0" y="377.0200000000002"/>
    </contour>
    <contour>
      <point x="328.125" y="452.0400000000002" type="curve" smooth="yes"/>
      <point x="371.875" y="580.3000000000002"/>
      <point x="493.75" y="674.6800000000003"/>
      <point x="653.125" y="674.6800000000003" type="curve" smooth="yes"/>
      <point x="728.125" y="674.6800000000003"/>
      <point x="793.75" y="650.4800000000002"/>
      <point x="850.0" y="580.3000000000002" type="curve" smooth="yes"/>
      <point x="900.0" y="517.3800000000001"/>
      <point x="931.25" y="500.4400000000003"/>
      <point x="975.0" y="500.4400000000003" type="curve" smooth="yes"/>
      <point x="1015.625" y="500.4400000000003"/>
      <point x="1053.125" y="536.7400000000002"/>
      <point x="1078.125" y="611.7600000000002" type="curve" smooth="yes"/>
      <point x="1093.75" y="652.9000000000003"/>
      <point x="1121.875" y="674.6800000000003"/>
      <point x="1159.375" y="674.6800000000003" type="curve" smooth="yes"/>
      <point x="1190.625" y="674.6800000000003"/>
      <point x="1212.5" y="657.7400000000002"/>
      <point x="1190.625" y="589.9800000000002" type="curve" smooth="yes"/>
      <point x="1137.5" y="439.9400000000003"/>
      <point x="1015.625" y="367.34000000000015"/>
      <point x="881.25" y="369.7600000000002" type="curve" smooth="yes"/>
      <point x="771.875" y="372.1800000000003"/>
      <point x="703.125" y="403.6400000000001"/>
      <point x="659.375" y="461.72000000000025" type="curve" smooth="yes"/>
      <point x="606.25" y="527.0600000000002"/>
      <point x="578.125" y="544.0000000000002"/>
      <point x="543.75" y="544.0000000000002" type="curve" smooth="yes"/>
      <point x="503.125" y="544.0000000000002"/>
      <point x="465.625" y="502.8600000000001"/>
      <point x="434.375" y="413.32000000000016" type="curve" smooth="yes"/>
      <point x="421.875" y="377.0200000000002"/>
      <point x="387.5" y="357.6600000000001"/>
      <point x="353.125" y="357.6600000000001" type="curve" smooth="yes"/>
      <point x="325.0" y="357.6600000000001"/>
      <point x="300.0" y="377.0200000000002"/>
    </contour>
    <contour>
      <point x="328.125" y="452.0400000000002" type="curve" smooth="yes"/>
      <point x="371.875" y="580.3000000000002"/>
      <point x="493.75" y="674.6800000000003"/>
      <point x="653.125" y="674.6800000000003" type="curve" smooth="yes"/>
      <point x="728.125" y="674.6800000000003"/>
      <point x="793.75" y="650.4800000000002"/>
      <point x="850.0" y="580.3000000000002" type="curve" smooth="yes"/>
      <point x="900.0" y="517.3800000000001"/>
      <point x="931.25" y="500.4400000000003"/>
      <point x="975.0" y="500.4400000000003" type="curve" smooth="yes"/>
      <point x="1015.625" y="500.4400000000003"/>
      <point x="1053.125" y="536.7400000000002"/>
      <point x="1078.125" y="611.7600000000002" type="curve" smooth="yes"/>
      <point x="1093.75" y="652.9000000000003"/>
      <point x="1121.875" y="674.6800000000003"/>
      <point x="1159.375" y="674.6800000000003" type="curve" smooth="yes"/>
      <point x="1190.625" y="674.6800000000003"/>
      <point x="1212.5" y="657.7400000000002"/>
      <point x="1190.625" y="589.9800000000002" type="curve" smooth="yes"/>
      <point x="1137.5" y="439.9400000000003"/>
      <point x="1015.625" y="367.34000000000015"/>
      <point x="881.25" y="369.7600000000002" type="curve" smooth="yes"/>
      <point x="771.875" y="372.1800000000003"/>
      <point x="703.125" y="403.6400000000001"/>
      <point x="659.375" y="461.72000000000025" type="curve" smooth="yes"/>
      <point x="606.25" y="527.0600000000002"/>
      <point x="578.125" y="544.0000000000002"/>
      <point x="543.75" y="544.0000000000002" type="curve" smooth="yes"/>
      <point x="503.125" y="544.0000000000002"/>
      <point x="465.625" y="502.8600000000001"/>
      <point x="434.375" y="413.32000000000016" type="curve" smooth="yes"/>
      <point x="421.875" y="377.0200000000002"/>
      <point x="387.5" y="357.6600000000001"/>
      <point x="353.125" y="357.6600000000001" type="curve" smooth="yes"/>
      <point x="325.0" y="357.6600000000001"/>
      <point x="300.0" y="377.0200000000002"/>
    </contour>
  </outline>
</glyph>
<glyph name="cent" format="2">
  <advance width="848"/>
  <unicode hex="00A2"/>
  <outline>
    <contour>
      <point x="404.0" y="46.0" type="curve" smooth="yes"/>
      <point x="390.0" y="-6.0"/>
      <point x="414.0" y="-34.0"/>
      <point x="446.0" y="-34.0" type="curve" smooth="yes"/>
      <point x="488.0" y="-34.0"/>
      <point x="524.0" y="-4.0"/>
      <point x="540.0" y="46.0" type="curve" smooth="yes"/>
      <point x="562.0" y="120.0"/>
      <point x="544.0" y="208.0"/>
      <point x="666.0" y="664.0" type="curve" smooth="yes"/>
      <point x="776.0" y="1074.0"/>
      <point x="832.0" y="1148.0"/>
      <point x="850.0" y="1220.0" type="curve" smooth="yes"/>
      <point x="864.0" y="1270.0"/>
      <point x="838.0" y="1300.0"/>
      <point x="804.0" y="1300.0" type="curve" smooth="yes"/>
      <point x="768.0" y="1300.0"/>
      <point x="726.0" y="1272.0"/>
      <point x="714.0" y="1224.0" type="curve" smooth="yes"/>
      <point x="696.0" y="1160.0"/>
      <point x="714.0" y="1082.0"/>
      <point x="602.0" y="664.0" type="curve" smooth="yes"/>
      <point x="480.0" y="212.0"/>
      <point x="424.0" y="120.0"/>
    </contour>
    <contour>
      <point x="1002.0" y="874.0" type="curve" smooth="yes"/>
      <point x="1030.0" y="980.0"/>
      <point x="942.0" y="1068.0"/>
      <point x="800.0" y="1068.0" type="curve" smooth="yes"/>
      <point x="560.0" y="1068.0"/>
      <point x="314.0" y="872.0"/>
      <point x="246.0" y="616.0" type="curve" smooth="yes"/>
      <point x="186.0" y="396.0"/>
      <point x="302.0" y="220.0"/>
      <point x="512.0" y="220.0" type="curve" smooth="yes"/>
      <point x="692.0" y="220.0"/>
      <point x="858.0" y="342.0"/>
      <point x="880.0" y="424.0" type="curve" smooth="yes"/>
      <point x="884.0" y="440.0"/>
      <point x="878.0" y="448.0"/>
      <point x="862.0" y="448.0" type="curve" smooth="yes"/>
      <point x="848.0" y="448.0"/>
      <point x="834.0" y="440.0"/>
      <point x="808.0" y="424.0" type="curve" smooth="yes"/>
      <point x="762.0" y="388.0"/>
      <point x="708.0" y="362.0"/>
      <point x="628.0" y="362.0" type="curve" smooth="yes"/>
      <point x="450.0" y="362.0"/>
      <point x="340.0" y="500.0"/>
      <point x="392.0" y="696.0" type="curve" smooth="yes"/>
      <point x="434.0" y="854.0"/>
      <point x="576.0" y="972.0"/>
      <point x="716.0" y="972.0" type="curve" smooth="yes"/>
      <point x="802.0" y="972.0"/>
      <point x="846.0" y="940.0"/>
      <point x="834.0" y="896.0" type="curve" smooth="yes"/>
      <point x="828.0" y="870.0" type="line" smooth="yes"/>
      <point x="814.0" y="818.0"/>
      <point x="844.0" y="784.0"/>
      <point x="892.0" y="784.0" type="curve" smooth="yes"/>
      <point x="938.0" y="784.0"/>
      <point x="988.0" y="824.0"/>
    </contour>
  </outline>
</glyph>
<glyph name="yen" format="2">
  <advance width="1182"/>
  <unicode hex="00A5"/>
  <outline>
    <contour>
      <point x="236.0" y="484.0" type="curve" smooth="yes"/>
      <point x="188.0" y="484.0"/>
      <point x="156.0" y="450.0"/>
      <point x="146.0" y="416.0" type="curve" smooth="yes"/>
      <point x="138.0" y="388.0"/>
      <point x="154.0" y="362.0"/>
      <point x="200.0" y="362.0" type="curve" smooth="yes"/>
      <point x="251.82258064516128" y="362.0"/>
      <point x="324.758064516129" y="386.0"/>
      <point x="676.0" y="386.0" type="curve" smooth="yes"/>
      <point x="1041.2140077821011" y="386.0"/>
      <point x="1110.4124513618676" y="370.0"/>
      <point x="1170.0" y="370.0" type="curve" smooth="yes"/>
      <point x="1220.0" y="370.0"/>
      <point x="1250.0" y="396.0"/>
      <point x="1256.0" y="424.0" type="curve" smooth="yes"/>
      <point x="1266.0" y="462.0"/>
      <point x="1250.0" y="488.0"/>
      <point x="1202.0" y="490.0" type="curve" smooth="yes"/>
      <point x="1142.3549155367082" y="491.9240349826868"/>
      <point x="1063.4752851711028" y="460.0"/>
      <point x="696.0" y="460.0" type="curve" smooth="yes"/>
      <point x="351.0" y="460.0"/>
      <point x="295.4166666666667" y="484.0"/>
    </contour>
    <contour>
      <point x="296.0" y="706.0" type="curve" smooth="yes"/>
      <point x="248.0" y="706.0"/>
      <point x="216.0" y="672.0"/>
      <point x="206.0" y="638.0" type="curve" smooth="yes"/>
      <point x="198.0" y="610.0"/>
      <point x="214.0" y="584.0"/>
      <point x="260.0" y="584.0" type="curve" smooth="yes"/>
      <point x="307.5728155339806" y="584.0"/>
      <point x="370.36624162144517" y="604.1941384002898"/>
      <point x="652.0" y="608.0" type="curve"/>
      <point x="630.0" y="684.0" type="line"/>
      <point x="396.00754633133863" y="687.7740718333655"/>
      <point x="346.9491525423729" y="706.0"/>
    </contour>
    <contour>
      <point x="870.0" y="608.0" type="line"/>
      <point x="1120.1085407819896" y="604.2104766548183"/>
      <point x="1178.842105263158" y="592.0"/>
      <point x="1230.0" y="592.0" type="curve" smooth="yes"/>
      <point x="1280.0" y="592.0"/>
      <point x="1308.0" y="618.0"/>
      <point x="1316.0" y="646.0" type="curve" smooth="yes"/>
      <point x="1326.0" y="684.0"/>
      <point x="1310.0" y="710.0"/>
      <point x="1262.0" y="712.0" type="curve" smooth="yes"/>
      <point x="1212.9169049511913" y="713.887811348031"/>
      <point x="1152.5322634308388" y="691.5510754476946"/>
      <point x="926.0" y="684.0" type="curve"/>
    </contour>
    <contour>
      <point x="735.9053836932541" y="405.6016578827365" type="curve"/>
      <point x="746.8675906630577" y="385.5042784380964" type="line"/>
      <point x="752.8620732971634" y="407.4840480964841"/>
      <point x="752.3486941479596" y="526.5731206687158"/>
      <point x="752.3486941479596" y="624.8457972788102" type="curve" smooth="yes"/>
      <point x="752.3486941479596" y="929.2324408702411"/>
      <point x="735.0531071645198" y="1079.6142901729047"/>
      <point x="690.229521319072" y="1171.1291112740273" type="curve" smooth="yes"/>
      <point x="643.2444195555619" y="1263.4212754523508"/>
      <point x="589.5198150111194" y="1297.19449142677"/>
      <point x="483.77462338776917" y="1297.19449142677" type="curve" smooth="yes"/>
      <point x="421.1571684238906" y="1297.19449142677"/>
      <point x="365.0173812148959" y="1275.2700774871623"/>
      <point x="365.0173812148959" y="1231.4212496079476" type="curve" smooth="yes"/>
      <point x="365.0173812148959" y="1207.6698011733731"/>
      <point x="381.46069166960143" y="1189.3994562237"/>
      <point x="416.1743470739798" y="1189.3994562237" type="curve" smooth="yes"/>
      <point x="514.834209802213" y="1189.3994562237"/>
      <point x="608.0129690455443" y="1001.2149032420702"/>
      <point x="608.0129690455443" y="496.95338263110057" type="curve" smooth="yes"/>
      <point x="608.0129690455443" y="420.21793384247474"/>
      <point x="608.0129690455443" y="381.8502094481618"/>
      <point x="597.0507620757406" y="339.82841606391435" type="curve" smooth="yes"/>
      <point x="556.8560031864604" y="186.3575184866627" type="line" smooth="yes"/>
      <point x="542.2397272267222" y="127.8924146477097"/>
      <point x="509.35310631731113" y="98.6598627282332"/>
      <point x="461.8502094481618" y="87.6976557584295" type="curve" smooth="yes"/>
      <point x="414.3473125790125" y="76.73544878862582" type="line" smooth="yes"/>
      <point x="379.63365717463415" y="69.4273108087567"/>
      <point x="359.5362777299941" y="60.292138333920285"/>
      <point x="352.2281397501249" y="34.71365540437835" type="curve" smooth="yes"/>
      <point x="346.7470362652231" y="10.962206969803688"/>
      <point x="359.5362777299941" y="0.0"/>
      <point x="397.90400212430694" y="0.0" type="curve" smooth="yes"/>
      <point x="805.3326945020108" y="0.0" type="line" smooth="yes"/>
      <point x="843.7004188963236" y="0.0"/>
      <point x="863.7977983409637" y="10.962206969803688"/>
      <point x="869.2789018258655" y="34.71365540437835" type="curve" smooth="yes"/>
      <point x="876.5870398057347" y="60.292138333920285"/>
      <point x="860.1437293510292" y="69.4273108087567"/>
      <point x="829.0841429365854" y="76.73544878862582" type="curve" smooth="yes"/>
      <point x="785.2353150573706" y="87.6976557584295" type="line" smooth="yes"/>
      <point x="745.0405561680905" y="96.83282823326591"/>
      <point x="730.4242802083522" y="118.75724217287329"/>
      <point x="741.3864871781559" y="168.0871735369899" type="curve" smooth="yes"/>
      <point x="774.2731080875669" y="306.94179515450327" type="line" smooth="yes"/>
      <point x="785.2353150573706" y="356.27172651861986"/>
      <point x="808.9867634919453" y="394.6394509129328"/>
      <point x="880.2411087956692" y="549.9373829851517" type="curve" smooth="yes"/>
      <point x="1103.1393171816776" y="1032.274489656514"/>
      <point x="1210.9343523847472" y="1123.626214404878"/>
      <point x="1291.3238701633077" y="1123.626214404878" type="curve" smooth="yes"/>
      <point x="1329.6915945576204" y="1123.626214404878"/>
      <point x="1358.924146477097" y="1090.739593495467"/>
      <point x="1406.4270433462464" y="1090.739593495467" type="curve" smooth="yes"/>
      <point x="1459.4110437002976" y="1090.739593495467"/>
      <point x="1506.9139405694468" y="1143.7235938495182"/>
      <point x="1506.9139405694468" y="1216.8049736482094" type="curve" smooth="yes"/>
      <point x="1506.9139405694468" y="1260.653801527424"/>
      <point x="1472.2002851650684" y="1306.3296639016062"/>
      <point x="1395.4648363764427" y="1306.3296639016062" type="curve" smooth="yes"/>
      <point x="1215.9180964793525" y="1306.3296639016062"/>
      <point x="1062.9445582923975" y="1156.512835314289"/>
    </contour>
  </outline>
</glyph>
<glyph name="section" format="2">
  <advance width="1056"/>
  <unicode hex="00A7"/>
  <outline>
    <contour>
      <point x="794.0" y="76.0" type="line"/>
      <point x="960.0" y="140.0"/>
      <point x="1062.0" y="274.0"/>
      <point x="1062.0" y="420.0" type="curve" smooth="yes"/>
      <point x="1062.0" y="570.0"/>
      <point x="986.0" y="672.0"/>
      <point x="822.0" y="776.0" type="curve" smooth="yes"/>
      <point x="686.0" y="874.0"/>
      <point x="604.0" y="954.0"/>
      <point x="604.0" y="1066.0" type="curve" smooth="yes"/>
      <point x="604.0" y="1202.0615384615385"/>
      <point x="724.0" y="1330.0"/>
      <point x="900.0" y="1330.0" type="curve" smooth="yes"/>
      <point x="988.0" y="1330.0"/>
      <point x="1050.0" y="1278.0"/>
      <point x="1090.0" y="1188.0" type="curve" smooth="yes"/>
      <point x="1128.0" y="1102.0" type="line" smooth="yes"/>
      <point x="1146.0" y="1060.0"/>
      <point x="1172.0" y="1044.0"/>
      <point x="1212.0" y="1044.0" type="curve" smooth="yes"/>
      <point x="1272.0" y="1044.0"/>
      <point x="1312.0" y="1098.0"/>
      <point x="1312.0" y="1178.0" type="curve" smooth="yes"/>
      <point x="1312.0" y="1306.0"/>
      <point x="1182.0" y="1426.0"/>
      <point x="948.0" y="1426.0" type="curve" smooth="yes"/>
      <point x="624.0" y="1426.0"/>
      <point x="426.0" y="1168.0"/>
      <point x="426.0" y="982.0" type="curve" smooth="yes"/>
      <point x="426.0" y="872.0"/>
      <point x="502.0" y="756.0"/>
      <point x="676.0" y="640.0" type="curve" smooth="yes"/>
      <point x="812.0" y="546.0"/>
      <point x="878.0" y="476.0"/>
      <point x="878.0" y="372.0" type="curve" smooth="yes"/>
      <point x="878.0" y="270.0"/>
      <point x="808.0" y="182.0"/>
      <point x="710.0" y="152.0" type="curve"/>
    </contour>
    <contour>
      <point x="448.0" y="-386.0" type="curve" smooth="yes"/>
      <point x="350.92783505154637" y="-386.0"/>
      <point x="278.45470627034194" y="-328.6080194539318"/>
      <point x="234.0" y="-228.0" type="curve" smooth="yes"/>
      <point x="196.0" y="-142.0" type="line" smooth="yes"/>
      <point x="176.0" y="-98.0"/>
      <point x="156.0" y="-84.0"/>
      <point x="112.0" y="-84.0" type="curve" smooth="yes"/>
      <point x="68.0" y="-84.0"/>
      <point x="12.0" y="-134.0"/>
      <point x="12.0" y="-218.0" type="curve" smooth="yes"/>
      <point x="12.0" y="-352.0"/>
      <point x="153.36263736263737" y="-486.0"/>
      <point x="396.0" y="-486.0" type="curve" smooth="yes"/>
      <point x="720.0" y="-486.0"/>
      <point x="918.0" y="-228.0"/>
      <point x="918.0" y="-42.0" type="curve" smooth="yes"/>
      <point x="918.0" y="68.0"/>
      <point x="842.0" y="184.0"/>
      <point x="668.0" y="300.0" type="curve" smooth="yes"/>
      <point x="532.0" y="394.0"/>
      <point x="466.0" y="464.0"/>
      <point x="466.0" y="568.0" type="curve" smooth="yes"/>
      <point x="466.0" y="670.0"/>
      <point x="536.0" y="758.0"/>
      <point x="634.0" y="788.0" type="curve"/>
      <point x="550.0" y="864.0" type="line"/>
      <point x="384.0" y="800.0"/>
      <point x="282.0" y="666.0"/>
      <point x="282.0" y="520.0" type="curve" smooth="yes"/>
      <point x="282.0" y="370.0"/>
      <point x="358.0" y="268.0"/>
      <point x="522.0" y="164.0" type="curve" smooth="yes"/>
      <point x="658.0" y="66.0"/>
      <point x="740.0" y="-14.0"/>
      <point x="740.0" y="-126.0" type="curve" smooth="yes"/>
      <point x="740.0" y="-260.0"/>
      <point x="622.0" y="-386.0"/>
    </contour>
  </outline>
</glyph>
<glyph name="dieresis" format="2">
  <advance width="776"/>
  <unicode hex="00A8"/>
  <outline>
    <contour>
      <point x="482.56000000000006" y="1101.289" type="curve" smooth="yes"/>
      <point x="556.48" y="1101.289"/>
      <point x="649.7600000000001" y="1214.4055"/>
      <point x="649.7600000000001" y="1323.553" type="curve" smooth="yes"/>
      <point x="649.7600000000001" y="1371.181"/>
      <point x="618.08" y="1404.9175"/>
      <point x="579.3600000000001" y="1404.9175" type="curve" smooth="yes"/>
      <point x="500.1600000000001" y="1404.9175"/>
      <point x="410.40000000000003" y="1285.8475"/>
      <point x="410.40000000000003" y="1184.6380000000001" type="curve" smooth="yes"/>
      <point x="410.40000000000003" y="1137.01"/>
      <point x="442.08000000000004" y="1101.289"/>
    </contour>
    <contour>
      <point x="856.5600000000001" y="1101.289" type="curve" smooth="yes"/>
      <point x="930.48" y="1101.289"/>
      <point x="1023.7600000000001" y="1214.4055"/>
      <point x="1023.7600000000001" y="1323.553" type="curve" smooth="yes"/>
      <point x="1023.7600000000001" y="1371.181"/>
      <point x="992.08" y="1404.9175"/>
      <point x="953.3600000000001" y="1404.9175" type="curve" smooth="yes"/>
      <point x="874.1600000000001" y="1404.9175"/>
      <point x="784.4000000000001" y="1285.8475"/>
      <point x="784.4000000000001" y="1184.6380000000001" type="curve" smooth="yes"/>
      <point x="784.4000000000001" y="1137.01"/>
      <point x="816.08" y="1101.289"/>
    </contour>
  </outline>
</glyph>
<glyph name="copyright" format="2">
  <advance width="1504"/>
  <unicode hex="00A9"/>
  <outline>
    <contour>
      <point x="764.0" y="-30.0" type="curve" smooth="yes"/>
      <point x="490.0" y="-30.0"/>
      <point x="300.0" y="164.0"/>
      <point x="300.0" y="442.0" type="curve" smooth="yes"/>
      <point x="300.0" y="932.0"/>
      <point x="650.0" y="1298.0"/>
      <point x="1120.0" y="1298.0" type="curve" smooth="yes"/>
      <point x="1398.0" y="1298.0"/>
      <point x="1590.0" y="1102.0"/>
      <point x="1590.0" y="818.0" type="curve" smooth="yes"/>
      <point x="1590.0" y="332.0"/>
      <point x="1236.0" y="-30.0"/>
    </contour>
    <contour>
      <point x="796.0" y="74.0" type="curve" smooth="yes"/>
      <point x="1194.0" y="74.0"/>
      <point x="1494.0" y="378.0"/>
      <point x="1494.0" y="784.0" type="curve" smooth="yes"/>
      <point x="1494.0" y="1028.0"/>
      <point x="1330.0" y="1200.0"/>
      <point x="1098.0" y="1200.0" type="curve" smooth="yes"/>
      <point x="702.0" y="1200.0"/>
      <point x="408.0" y="890.0"/>
      <point x="408.0" y="470.0" type="curve" smooth="yes"/>
      <point x="408.0" y="236.0"/>
      <point x="568.0" y="74.0"/>
    </contour>
    <contour>
      <point x="1190.0" y="454.0" type="curve" smooth="yes"/>
      <point x="1190.0" y="468.0"/>
      <point x="1180.0" y="476.0"/>
      <point x="1166.0" y="476.0" type="curve" smooth="yes"/>
      <point x="1154.0" y="476.0"/>
      <point x="1138.0" y="466.0"/>
      <point x="1120.0" y="438.0" type="curve" smooth="yes"/>
      <point x="1060.0" y="358.0"/>
      <point x="996.0" y="326.0"/>
      <point x="898.0" y="326.0" type="curve" smooth="yes"/>
      <point x="786.0" y="326.0"/>
      <point x="710.0" y="416.0"/>
      <point x="710.0" y="552.0" type="curve" smooth="yes"/>
      <point x="710.0" y="748.0"/>
      <point x="876.0" y="966.0"/>
      <point x="1046.0" y="966.0" type="curve" smooth="yes"/>
      <point x="1132.0" y="966.0"/>
      <point x="1162.0" y="932.0"/>
      <point x="1206.0" y="856.0" type="curve" smooth="yes"/>
      <point x="1234.0" y="806.0" type="line" smooth="yes"/>
      <point x="1244.0" y="788.0"/>
      <point x="1252.0" y="776.0"/>
      <point x="1268.0" y="776.0" type="curve" smooth="yes"/>
      <point x="1282.0" y="776.0"/>
      <point x="1294.0" y="786.0"/>
      <point x="1294.0" y="808.0" type="curve" smooth="yes"/>
      <point x="1288.0" y="1004.0" type="line" smooth="yes"/>
      <point x="1288.0" y="1026.0"/>
      <point x="1276.0" y="1040.0"/>
      <point x="1260.0" y="1040.0" type="curve" smooth="yes"/>
      <point x="1240.0" y="1040.0"/>
      <point x="1224.0" y="1010.0"/>
      <point x="1202.0" y="1010.0" type="curve" smooth="yes"/>
      <point x="1176.0" y="1010.0"/>
      <point x="1128.0" y="1044.0"/>
      <point x="1058.0" y="1044.0" type="curve" smooth="yes"/>
      <point x="818.0" y="1044.0"/>
      <point x="588.0" y="758.0"/>
      <point x="588.0" y="498.0" type="curve" smooth="yes"/>
      <point x="588.0" y="334.0"/>
      <point x="686.0" y="224.0"/>
      <point x="838.0" y="224.0" type="curve" smooth="yes"/>
      <point x="1004.0" y="224.0"/>
      <point x="1134.0" y="306.0"/>
      <point x="1178.0" y="404.0" type="curve" smooth="yes"/>
      <point x="1186.0" y="424.0"/>
      <point x="1190.0" y="436.0"/>
    </contour>
  </outline>
</glyph>
<glyph name="ordfeminine" format="2">
  <advance width="964"/>
  <unicode hex="00AA"/>
  <outline>
    <contour>
      <point x="950.7704594333973" y="799.9290502717749" type="curve" smooth="yes"/>
      <point x="947.2230593007704" y="858.4611524601187"/>
      <point x="965.6414946624378" y="973.4244612772482"/>
      <point x="1011.9069375972307" y="1186.5759662268295" type="curve" smooth="yes"/>
      <point x="1018.9259643848576" y="1216.4068300742438"/>
      <point x="1028.4303100739426" y="1251.0171188860052"/>
      <point x="1044.953682550654" y="1270.8451658580593" type="curve" smooth="yes"/>
      <point x="1063.129392275037" y="1293.9778873254559"/>
      <point x="1076.3480902564065" y="1308.8924051136455"/>
      <point x="1076.3480902564065" y="1328.6769695265502" type="curve" smooth="yes"/>
      <point x="1076.3480902564065" y="1394.1745345244012"/>
      <point x="998.6882396158613" y="1431.121878882163"/>
      <point x="886.3293067742215" y="1431.121878882163" type="curve" smooth="yes"/>
      <point x="600.4749629271085" y="1431.121878882163"/>
      <point x="327.839317061365" y="1092.3927431095726"/>
      <point x="327.839317061365" y="788.3626895380768" type="curve" smooth="yes"/>
      <point x="327.839317061365" y="662.7850587150676"/>
      <point x="388.97579522519845" y="613.2149412849324"/>
      <point x="473.24499485642826" y="613.2149412849324" type="curve" smooth="yes"/>
      <point x="600.4749629271085" y="613.2149412849324"/>
      <point x="759.0993387035412" y="717.3121878882164"/>
      <point x="869.8059342975098" y="960.2057632958788" type="curve"/>
      <point x="841.7162010870999" y="966.8151122865634" type="line"/>
      <point x="846.6732128301134" y="864.3702029309507"/>
      <point x="808.6694561336764" y="770.1869798136938"/>
      <point x="811.9741306290188" y="694.1794664208198" type="curve" smooth="yes"/>
      <point x="815.278805124361" y="646.2616862383559"/>
      <point x="851.6302245731268" y="611.5626040372613"/>
      <point x="916.0713772323027" y="611.5626040372613" type="curve" smooth="yes"/>
      <point x="1011.9069375972307" y="611.5626040372613"/>
      <point x="1079.6527647517487" y="705.7458271545181"/>
      <point x="1078.0004275040776" y="771.839317061365" type="curve" smooth="yes"/>
      <point x="1078.0004275040776" y="794.9720385287615"/>
      <point x="1068.0864040180504" y="803.2337247671173"/>
      <point x="1054.8677060366813" y="803.2337247671173" type="curve" smooth="yes"/>
      <point x="1038.3443335599695" y="803.2337247671173"/>
      <point x="1031.7349845692847" y="793.3197012810903"/>
      <point x="1020.1686238355866" y="775.1439915567073" type="curve" smooth="yes"/>
      <point x="1006.9499258542171" y="753.6636073369821"/>
      <point x="992.0788906251765" y="742.0972466032839"/>
      <point x="977.207855396136" y="742.0972466032839" type="curve" smooth="yes"/>
      <point x="959.0321456717531" y="742.0972466032839"/>
      <point x="952.4227966810685" y="768.5346425660227"/>
    </contour>
    <contour>
      <point x="468.2879831134147" y="880.8935754076624" type="curve" smooth="yes"/>
      <point x="468.2879831134147" y="1099.0020921002574"/>
      <point x="631.8693706328609" y="1318.7629460405233"/>
      <point x="793.7984209046358" y="1318.7629460405233" type="curve" smooth="yes"/>
      <point x="859.8919108114827" y="1318.7629460405233"/>
      <point x="892.9386557649062" y="1275.8021776010728"/>
      <point x="892.9386557649062" y="1203.0993387035412" type="curve" smooth="yes"/>
      <point x="892.9386557649062" y="1039.5179511840952"/>
      <point x="711.1815585210771" y="738.7925721079415"/>
      <point x="570.7328924690274" y="738.7925721079415" type="curve" smooth="yes"/>
      <point x="516.2057632958788" y="738.7925721079415"/>
      <point x="468.2879831134147" y="771.839317061365"/>
    </contour>
  </outline>
</glyph>
<glyph name="guillemetleft" format="2">
  <advance width="1140"/>
  <unicode hex="00AB"/>
  <outline>
    <contour>
      <point x="282.0" y="496.0" type="curve" smooth="yes"/>
      <point x="276.0" y="470.0"/>
      <point x="276.0" y="436.0"/>
      <point x="322.0" y="406.0" type="curve" smooth="yes"/>
      <point x="414.0" y="346.0"/>
      <point x="492.0" y="250.0"/>
      <point x="542.0" y="154.0" type="curve" smooth="yes"/>
      <point x="554.0" y="128.0"/>
      <point x="570.0" y="118.0"/>
      <point x="590.0" y="118.0" type="curve" smooth="yes"/>
      <point x="608.0" y="118.0"/>
      <point x="622.0" y="130.0"/>
      <point x="628.0" y="152.0" type="curve" smooth="yes"/>
      <point x="636.0" y="178.0"/>
      <point x="624.0" y="198.0"/>
      <point x="608.0" y="232.0" type="curve" smooth="yes"/>
      <point x="548.0" y="372.0"/>
      <point x="494.0" y="450.0"/>
      <point x="430.0" y="522.0" type="curve"/>
      <point x="416.0" y="470.0" type="line"/>
      <point x="520.0" y="538.0"/>
      <point x="616.0" y="618.0"/>
      <point x="750.0" y="760.0" type="curve" smooth="yes"/>
      <point x="782.0" y="794.0"/>
      <point x="806.0" y="814.0"/>
      <point x="814.0" y="840.0" type="curve" smooth="yes"/>
      <point x="818.0" y="862.0"/>
      <point x="810.0" y="874.0"/>
      <point x="792.0" y="874.0" type="curve" smooth="yes"/>
      <point x="774.0" y="874.0"/>
      <point x="756.0" y="864.0"/>
      <point x="726.0" y="838.0" type="curve" smooth="yes"/>
      <point x="622.0" y="744.0"/>
      <point x="496.0" y="652.0"/>
      <point x="372.0" y="586.0" type="curve" smooth="yes"/>
      <point x="308.0" y="554.0"/>
      <point x="290.0" y="522.0"/>
    </contour>
    <contour>
      <point x="654.0" y="496.0" type="curve" smooth="yes"/>
      <point x="648.0" y="470.0"/>
      <point x="648.0" y="436.0"/>
      <point x="694.0" y="406.0" type="curve" smooth="yes"/>
      <point x="786.0" y="346.0"/>
      <point x="864.0" y="250.0"/>
      <point x="914.0" y="154.0" type="curve" smooth="yes"/>
      <point x="926.0" y="128.0"/>
      <point x="942.0" y="118.0"/>
      <point x="962.0" y="118.0" type="curve" smooth="yes"/>
      <point x="980.0" y="118.0"/>
      <point x="994.0" y="130.0"/>
      <point x="1000.0" y="152.0" type="curve" smooth="yes"/>
      <point x="1008.0" y="178.0"/>
      <point x="996.0" y="198.0"/>
      <point x="980.0" y="232.0" type="curve" smooth="yes"/>
      <point x="920.0" y="372.0"/>
      <point x="866.0" y="450.0"/>
      <point x="802.0" y="522.0" type="curve"/>
      <point x="788.0" y="470.0" type="line"/>
      <point x="892.0" y="538.0"/>
      <point x="988.0" y="618.0"/>
      <point x="1122.0" y="760.0" type="curve" smooth="yes"/>
      <point x="1154.0" y="794.0"/>
      <point x="1178.0" y="814.0"/>
      <point x="1186.0" y="840.0" type="curve" smooth="yes"/>
      <point x="1190.0" y="862.0"/>
      <point x="1182.0" y="874.0"/>
      <point x="1164.0" y="874.0" type="curve" smooth="yes"/>
      <point x="1146.0" y="874.0"/>
      <point x="1128.0" y="864.0"/>
      <point x="1098.0" y="838.0" type="curve" smooth="yes"/>
      <point x="994.0" y="744.0"/>
      <point x="868.0" y="652.0"/>
      <point x="744.0" y="586.0" type="curve" smooth="yes"/>
      <point x="680.0" y="554.0"/>
      <point x="662.0" y="522.0"/>
    </contour>
  </outline>
</glyph>
<glyph name="logicalnot" format="2">
  <advance width="1016"/>
  <unicode hex="00AC"/>
  <outline>
    <contour>
      <point x="918.0" y="368.0" type="curve" smooth="yes"/>
      <point x="952.0" y="368.0"/>
      <point x="980.0" y="390.0"/>
      <point x="990.0" y="428.0" type="curve" smooth="yes"/>
      <point x="1086.0" y="786.0" type="line" smooth="yes"/>
      <point x="1096.0" y="818.0"/>
      <point x="1080.0" y="838.0"/>
      <point x="1050.0" y="838.0" type="curve" smooth="yes"/>
      <point x="1012.0" y="838.0"/>
      <point x="980.0" y="816.0"/>
      <point x="972.0" y="786.0" type="curve" smooth="yes"/>
      <point x="878.0" y="430.0" type="line" smooth="yes"/>
      <point x="868.0" y="394.0"/>
      <point x="884.0" y="368.0"/>
    </contour>
    <contour>
      <point x="290.0" y="784.0" type="curve" smooth="yes"/>
      <point x="280.0" y="748.0"/>
      <point x="306.0" y="720.0"/>
      <point x="344.0" y="720.0" type="curve" smooth="yes"/>
      <point x="458.0" y="720.0"/>
      <point x="598.0" y="738.0"/>
      <point x="682.0" y="738.0" type="curve" smooth="yes"/>
      <point x="768.0" y="738.0"/>
      <point x="890.0" y="720.0"/>
      <point x="996.0" y="720.0" type="curve" smooth="yes"/>
      <point x="1040.0" y="720.0"/>
      <point x="1076.0" y="748.0"/>
      <point x="1086.0" y="784.0" type="curve" smooth="yes"/>
      <point x="1096.0" y="822.0"/>
      <point x="1074.0" y="852.0"/>
      <point x="1032.0" y="852.0" type="curve" smooth="yes"/>
      <point x="926.0" y="852.0"/>
      <point x="794.0" y="834.0"/>
      <point x="708.0" y="834.0" type="curve" smooth="yes"/>
      <point x="610.0" y="834.0"/>
      <point x="494.0" y="852.0"/>
      <point x="382.0" y="852.0" type="curve" smooth="yes"/>
      <point x="346.0" y="852.0"/>
      <point x="300.0" y="822.0"/>
    </contour>
  </outline>
</glyph>
<glyph name="hyphensoft" format="2">
  <advance width="788"/>
  <unicode hex="00AD"/>
  <outline>
    <contour>
      <point x="786.0" y="558.0" type="curve" smooth="yes"/>
      <point x="340.0" y="558.0" type="line" smooth="yes"/>
      <point x="302.0" y="558.0"/>
      <point x="282.0" y="544.0"/>
      <point x="266.0" y="508.0" type="curve" smooth="yes"/>
      <point x="256.0" y="486.0" type="line" smooth="yes"/>
      <point x="250.0" y="472.0"/>
      <point x="248.0" y="464.0"/>
      <point x="248.0" y="456.0" type="curve" smooth="yes"/>
      <point x="248.0" y="430.0"/>
      <point x="270.0" y="414.0"/>
      <point x="298.0" y="414.0" type="curve" smooth="yes"/>
      <point x="744.0" y="414.0" type="line" smooth="yes"/>
      <point x="782.0" y="414.0"/>
      <point x="802.0" y="428.0"/>
      <point x="818.0" y="464.0" type="curve" smooth="yes"/>
      <point x="828.0" y="486.0" type="line" smooth="yes"/>
      <point x="834.0" y="500.0"/>
      <point x="836.0" y="508.0"/>
      <point x="836.0" y="516.0" type="curve" smooth="yes"/>
      <point x="836.0" y="542.0"/>
      <point x="814.0" y="558.0"/>
    </contour>
  </outline>
</glyph>
<glyph name="degree" format="2">
  <advance width="728"/>
  <unicode hex="00B0"/>
  <outline>
    <contour>
      <point x="716.0" y="1300.0" type="curve" smooth="yes"/>
      <point x="556.0" y="1300.0"/>
      <point x="420.0" y="1192.0"/>
      <point x="384.0" y="1058.0" type="curve" smooth="yes"/>
      <point x="346.0" y="920.0"/>
      <point x="428.0" y="820.0"/>
      <point x="576.0" y="820.0" type="curve" smooth="yes"/>
      <point x="730.0" y="820.0"/>
      <point x="876.0" y="922.0"/>
      <point x="916.0" y="1072.0" type="curve" smooth="yes"/>
      <point x="952.0" y="1206.0"/>
      <point x="868.0" y="1300.0"/>
    </contour>
    <contour>
      <point x="772.0" y="1234.0"/>
      <point x="810.0" y="1144.0"/>
      <point x="780.0" y="1030.0" type="curve" smooth="yes"/>
      <point x="756.0" y="942.0"/>
      <point x="692.0" y="888.0"/>
      <point x="618.0" y="888.0" type="curve" smooth="yes"/>
      <point x="528.0" y="888.0"/>
      <point x="482.0" y="976.0"/>
      <point x="512.0" y="1088.0" type="curve" smooth="yes"/>
      <point x="534.0" y="1174.0"/>
      <point x="604.0" y="1234.0"/>
      <point x="678.0" y="1234.0" type="curve" smooth="yes"/>
    </contour>
  </outline>
</glyph>
<glyph name="twosuperior" format="2">
  <advance width="738"/>
  <unicode hex="00B2"/>
  <outline>
    <contour>
      <point x="598.0" y="946.0" type="curve" smooth="yes"/>
      <point x="394.0" y="842.0"/>
      <point x="312.0" y="750.0"/>
      <point x="288.0" y="656.0" type="curve" smooth="yes"/>
      <point x="278.0" y="618.0"/>
      <point x="296.0" y="594.0"/>
      <point x="330.0" y="594.0" type="curve" smooth="yes"/>
      <point x="362.0" y="594.0"/>
      <point x="390.0" y="638.0"/>
      <point x="450.0" y="638.0" type="curve" smooth="yes"/>
      <point x="480.0" y="638.0"/>
      <point x="544.0" y="590.0"/>
      <point x="612.0" y="590.0" type="curve" smooth="yes"/>
      <point x="724.0" y="590.0"/>
      <point x="796.0" y="660.0"/>
      <point x="820.0" y="748.0" type="curve" smooth="yes"/>
      <point x="826.0" y="770.0"/>
      <point x="822.0" y="786.0"/>
      <point x="804.0" y="786.0" type="curve" smooth="yes"/>
      <point x="788.0" y="786.0"/>
      <point x="776.0" y="780.0"/>
      <point x="754.0" y="752.0" type="curve" smooth="yes"/>
      <point x="730.0" y="720.0"/>
      <point x="704.0" y="714.0"/>
      <point x="652.0" y="714.0" type="curve" smooth="yes"/>
      <point x="604.0" y="714.0"/>
      <point x="540.0" y="750.0"/>
      <point x="498.0" y="750.0" type="curve" smooth="yes"/>
      <point x="404.0" y="750.0"/>
      <point x="352.0" y="704.0"/>
      <point x="340.0" y="654.0" type="curve"/>
      <point x="376.0" y="656.0" type="line"/>
      <point x="400.0" y="750.0"/>
      <point x="456.0" y="802.0"/>
      <point x="668.0" y="914.0" type="curve" smooth="yes"/>
      <point x="806.0" y="986.0"/>
      <point x="862.0" y="1042.0"/>
      <point x="886.0" y="1134.0" type="curve" smooth="yes"/>
      <point x="912.0" y="1230.0"/>
      <point x="860.0" y="1300.0"/>
      <point x="744.0" y="1300.0" type="curve" smooth="yes"/>
      <point x="576.0" y="1300.0"/>
      <point x="440.0" y="1194.0"/>
      <point x="420.0" y="1118.0" type="curve" smooth="yes"/>
      <point x="406.0" y="1064.0"/>
      <point x="426.0" y="1034.0"/>
      <point x="474.0" y="1034.0" type="curve" smooth="yes"/>
      <point x="510.0" y="1034.0"/>
      <point x="552.0" y="1064.0"/>
      <point x="562.0" y="1108.0" type="curve" smooth="yes"/>
      <point x="574.0" y="1146.0" type="line" smooth="yes"/>
      <point x="584.0" y="1190.0"/>
      <point x="616.0" y="1222.0"/>
      <point x="674.0" y="1222.0" type="curve" smooth="yes"/>
      <point x="732.0" y="1222.0"/>
      <point x="772.0" y="1188.0"/>
      <point x="754.0" y="1122.0" type="curve" smooth="yes"/>
      <point x="734.0" y="1042.0"/>
      <point x="690.0" y="994.0"/>
    </contour>
  </outline>
</glyph>
<glyph name="threesuperior" format="2">
  <advance width="700"/>
  <unicode hex="00B3"/>
  <outline>
    <contour>
      <point x="586.0" y="964.0" type="line"/>
      <point x="914.0" y="1228.0" type="line" smooth="yes"/>
      <point x="934.0" y="1246.0"/>
      <point x="940.0" y="1258.0"/>
      <point x="942.0" y="1268.0" type="curve" smooth="yes"/>
      <point x="948.0" y="1288.0"/>
      <point x="940.0" y="1302.0"/>
      <point x="914.0" y="1302.0" type="curve" smooth="yes"/>
      <point x="522.0" y="1302.0" type="line" smooth="yes"/>
      <point x="496.0" y="1302.0"/>
      <point x="476.0" y="1280.0"/>
      <point x="466.0" y="1250.0" type="curve" smooth="yes"/>
      <point x="426.0" y="1142.0" type="line" smooth="yes"/>
      <point x="418.0" y="1122.0"/>
      <point x="428.0" y="1110.0"/>
      <point x="440.0" y="1110.0" type="curve" smooth="yes"/>
      <point x="456.0" y="1110.0"/>
      <point x="474.0" y="1124.0"/>
      <point x="484.0" y="1138.0" type="curve" smooth="yes"/>
      <point x="510.0" y="1172.0" type="line" smooth="yes"/>
      <point x="534.0" y="1200.0"/>
      <point x="554.0" y="1210.0"/>
      <point x="586.0" y="1210.0" type="curve" smooth="yes"/>
      <point x="822.0" y="1210.0" type="line"/>
      <point x="832.0" y="1244.0" type="line"/>
      <point x="528.0" y="1002.0" type="line" smooth="yes"/>
      <point x="510.0" y="988.0"/>
      <point x="498.0" y="974.0"/>
      <point x="496.0" y="960.0" type="curve" smooth="yes"/>
      <point x="490.0" y="940.0"/>
      <point x="502.0" y="930.0"/>
      <point x="522.0" y="930.0" type="curve" smooth="yes"/>
      <point x="572.0" y="930.0" type="line" smooth="yes"/>
      <point x="660.0" y="930.0"/>
      <point x="706.0" y="882.0"/>
      <point x="682.0" y="792.0" type="curve" smooth="yes"/>
      <point x="660.0" y="712.0"/>
      <point x="598.0" y="660.0"/>
      <point x="526.0" y="660.0" type="curve" smooth="yes"/>
      <point x="464.0" y="660.0"/>
      <point x="430.0" y="696.0"/>
      <point x="442.0" y="740.0" type="curve" smooth="yes"/>
      <point x="448.0" y="760.0" type="line" smooth="yes"/>
      <point x="458.0" y="802.0"/>
      <point x="434.0" y="832.0"/>
      <point x="392.0" y="832.0" type="curve" smooth="yes"/>
      <point x="356.0" y="832.0"/>
      <point x="316.0" y="798.0"/>
      <point x="304.0" y="754.0" type="curve" smooth="yes"/>
      <point x="280.0" y="662.0"/>
      <point x="346.0" y="590.0"/>
      <point x="494.0" y="590.0" type="curve" smooth="yes"/>
      <point x="640.0" y="590.0"/>
      <point x="776.0" y="678.0"/>
      <point x="812.0" y="814.0" type="curve" smooth="yes"/>
      <point x="846.0" y="940.0"/>
      <point x="766.0" y="1000.0"/>
      <point x="612.0" y="1000.0" type="curve" smooth="yes"/>
      <point x="610.0" y="1000.0"/>
      <point x="584.0" y="1000.0"/>
      <point x="578.0" y="1000.0" type="curve"/>
    </contour>
  </outline>
</glyph>
<glyph name="paragraph" format="2">
  <advance width="1222"/>
  <unicode hex="00B6"/>
  <outline>
    <contour>
      <point x="874.0" y="142.0" type="curve" smooth="yes"/>
      <point x="1160.0" y="1214.0" type="line" smooth="yes"/>
      <point x="1174.0" y="1268.0"/>
      <point x="1162.0" y="1308.0"/>
      <point x="1094.0" y="1308.0" type="curve" smooth="yes"/>
      <point x="1028.0" y="1308.0"/>
      <point x="992.0" y="1260.0"/>
      <point x="980.0" y="1214.0" type="curve" smooth="yes"/>
      <point x="648.0" y="-28.0" type="line" smooth="yes"/>
      <point x="570.0" y="-322.0"/>
      <point x="380.0" y="-490.0"/>
      <point x="116.0" y="-490.0" type="curve" smooth="yes"/>
      <point x="-20.0" y="-490.0"/>
      <point x="-96.0" y="-424.0"/>
      <point x="-96.0" y="-338.0" type="curve" smooth="yes"/>
      <point x="-96.0" y="-288.0"/>
      <point x="-62.0" y="-234.0"/>
      <point x="-2.0" y="-234.0" type="curve" smooth="yes"/>
      <point x="36.0" y="-234.0"/>
      <point x="68.0" y="-246.0"/>
      <point x="102.0" y="-272.0" type="curve" smooth="yes"/>
      <point x="148.0" y="-306.0"/>
      <point x="200.0" y="-350.0"/>
      <point x="262.0" y="-350.0" type="curve" smooth="yes"/>
      <point x="348.0" y="-350.0"/>
      <point x="436.0" y="-274.0"/>
      <point x="472.0" y="-136.0" type="curve" smooth="yes"/>
      <point x="698.0" y="714.0" type="line"/>
      <point x="664.0" y="708.0"/>
      <point x="626.0" y="700.0"/>
      <point x="576.0" y="700.0" type="curve" smooth="yes"/>
      <point x="364.0" y="700.0"/>
      <point x="254.0" y="834.0"/>
      <point x="306.0" y="1032.0" type="curve" smooth="yes"/>
      <point x="366.0" y="1252.0"/>
      <point x="564.0" y="1400.0"/>
      <point x="800.0" y="1400.0" type="curve" smooth="yes"/>
      <point x="1476.0" y="1400.0" type="line" smooth="yes"/>
      <point x="1520.0" y="1400.0"/>
      <point x="1534.0" y="1388.0"/>
      <point x="1526.0" y="1362.0" type="curve" smooth="yes"/>
      <point x="1520.0" y="1334.0"/>
      <point x="1496.0" y="1324.0"/>
      <point x="1458.0" y="1316.0" type="curve" smooth="yes"/>
      <point x="1406.0" y="1304.0" type="line" smooth="yes"/>
      <point x="1354.0" y="1292.0"/>
      <point x="1322.0" y="1268.0"/>
      <point x="1308.0" y="1214.0" type="curve" smooth="yes"/>
      <point x="1050.0" y="250.0" type="line" smooth="yes"/>
      <point x="956.0" y="-100.0"/>
      <point x="734.0653594771242" y="-258.0"/>
      <point x="440.0" y="-258.0" type="curve"/>
      <point x="586.0" y="-118.0" type="line"/>
      <point x="695.8620689655172" y="-118.0"/>
      <point x="822.0" y="-52.0"/>
    </contour>
  </outline>
</glyph>
<glyph name="onesuperior" format="2">
  <advance width="626"/>
  <unicode hex="00B9"/>
  <outline>
    <contour>
      <point x="450.0" y="1156.0" type="line" smooth="yes"/>
      <point x="428.0" y="1156.0"/>
      <point x="422.0" y="1172.0"/>
      <point x="428.0" y="1194.0" type="curve" smooth="yes"/>
      <point x="434.0" y="1216.0"/>
      <point x="452.0" y="1232.0"/>
      <point x="474.0" y="1232.0" type="curve" smooth="yes"/>
      <point x="498.0" y="1232.0" type="line" smooth="yes"/>
      <point x="556.0" y="1232.0"/>
      <point x="602.0" y="1242.0"/>
      <point x="654.0" y="1282.0" type="curve" smooth="yes"/>
      <point x="672.0" y="1296.0"/>
      <point x="684.0" y="1302.0"/>
      <point x="702.0" y="1302.0" type="curve" smooth="yes"/>
      <point x="720.0" y="1302.0"/>
      <point x="730.0" y="1292.0"/>
      <point x="724.0" y="1266.0" type="curve" smooth="yes"/>
      <point x="584.0" y="746.0" type="line" smooth="yes"/>
      <point x="576.0" y="714.0"/>
      <point x="592.0" y="690.0"/>
      <point x="622.0" y="688.0" type="curve" smooth="yes"/>
      <point x="678.0" y="684.0" type="line" smooth="yes"/>
      <point x="696.0" y="682.0"/>
      <point x="706.0" y="670.0"/>
      <point x="700.0" y="650.0" type="curve" smooth="yes"/>
      <point x="692.0" y="620.0"/>
      <point x="680.0" y="610.0"/>
      <point x="658.0" y="610.0" type="curve" smooth="yes"/>
      <point x="298.0" y="610.0" type="line" smooth="yes"/>
      <point x="276.0" y="610.0"/>
      <point x="266.0" y="620.0"/>
      <point x="274.0" y="650.0" type="curve" smooth="yes"/>
      <point x="280.0" y="672.0"/>
      <point x="296.0" y="686.0"/>
      <point x="318.0" y="688.0" type="curve" smooth="yes"/>
      <point x="372.0" y="692.0" type="line" smooth="yes"/>
      <point x="408.0" y="694.0"/>
      <point x="444.0" y="714.0"/>
      <point x="452.0" y="746.0" type="curve" smooth="yes"/>
      <point x="544.0" y="1092.0" type="line" smooth="yes"/>
      <point x="556.0" y="1138.0"/>
      <point x="540.0" y="1156.0"/>
      <point x="502.0" y="1156.0" type="curve" smooth="yes"/>
    </contour>
  </outline>
</glyph>
<glyph name="ordmasculine" format="2">
  <advance width="730"/>
  <unicode hex="00BA"/>
  <outline>
    <contour>
      <point x="814.4077698953205" y="1429.121878882163" type="curve" smooth="yes"/>
      <point x="583.0805552213562" y="1429.121878882163"/>
      <point x="340.1869798136938" y="1168.0525937501177"/>
      <point x="340.1869798136938" y="882.1982499030048" type="curve" smooth="yes"/>
      <point x="340.1869798136938" y="707.0505016498604"/>
      <point x="432.71786568327957" y="611.2149412849324"/>
      <point x="566.5571827446445" y="611.2149412849324" type="curve" smooth="yes"/>
      <point x="776.4040131988835" y="611.2149412849324"/>
      <point x="1034.1686238355865" y="839.2374814635543"/>
      <point x="1034.1686238355865" y="1161.4432447594331" type="curve" smooth="yes"/>
      <point x="1034.1686238355865" y="1339.8956675079198"/>
      <point x="933.376051727645" y="1429.121878882163"/>
    </contour>
    <contour>
      <point x="883.8059342975098" y="870.7464075924125"/>
      <point x="712.6199303224075" y="690.5271291731488"/>
      <point x="599.603927698068" y="690.5271291731488" type="curve" smooth="yes"/>
      <point x="539.3799342829486" y="690.5271291731488"/>
      <point x="490.5496693517706" y="740.0784700436512"/>
      <point x="490.5496693517706" y="840.8898187112254" type="curve" smooth="yes"/>
      <point x="490.5496693517706" y="1130.2817895181065"/>
      <point x="643.4433957143148" y="1348.1573537462755"/>
      <point x="778.0563504465547" y="1348.1573537462755" type="curve" smooth="yes"/>
      <point x="833.3715173839773" y="1348.1573537462755"/>
      <point x="883.8059342975098" y="1299.1747340042011"/>
      <point x="883.8059342975098" y="1196.1423269605277" type="curve" smooth="yes"/>
    </contour>
  </outline>
</glyph>
<glyph name="guillemetright" format="2">
  <advance width="1140"/>
  <unicode hex="00BB"/>
  <outline>
    <contour>
      <point x="1134.0" y="496.0" type="curve" smooth="yes"/>
      <point x="1140.0" y="522.0"/>
      <point x="1140.0" y="556.0"/>
      <point x="1094.0" y="586.0" type="curve" smooth="yes"/>
      <point x="1002.0" y="646.0"/>
      <point x="924.0" y="742.0"/>
      <point x="874.0" y="838.0" type="curve" smooth="yes"/>
      <point x="862.0" y="864.0"/>
      <point x="846.0" y="874.0"/>
      <point x="826.0" y="874.0" type="curve" smooth="yes"/>
      <point x="808.0" y="874.0"/>
      <point x="794.0" y="862.0"/>
      <point x="788.0" y="840.0" type="curve" smooth="yes"/>
      <point x="780.0" y="814.0"/>
      <point x="792.0" y="794.0"/>
      <point x="808.0" y="760.0" type="curve" smooth="yes"/>
      <point x="868.0" y="620.0"/>
      <point x="922.0" y="542.0"/>
      <point x="986.0" y="470.0" type="curve"/>
      <point x="1000.0" y="522.0" type="line"/>
      <point x="896.0" y="454.0"/>
      <point x="800.0" y="374.0"/>
      <point x="666.0" y="232.0" type="curve" smooth="yes"/>
      <point x="634.0" y="198.0"/>
      <point x="610.0" y="178.0"/>
      <point x="602.0" y="152.0" type="curve" smooth="yes"/>
      <point x="598.0" y="130.0"/>
      <point x="606.0" y="118.0"/>
      <point x="624.0" y="118.0" type="curve" smooth="yes"/>
      <point x="642.0" y="118.0"/>
      <point x="660.0" y="128.0"/>
      <point x="690.0" y="154.0" type="curve" smooth="yes"/>
      <point x="794.0" y="248.0"/>
      <point x="920.0" y="340.0"/>
      <point x="1044.0" y="406.0" type="curve" smooth="yes"/>
      <point x="1108.0" y="438.0"/>
      <point x="1126.0" y="470.0"/>
    </contour>
    <contour>
      <point x="762.0" y="496.0" type="curve" smooth="yes"/>
      <point x="768.0" y="522.0"/>
      <point x="768.0" y="556.0"/>
      <point x="722.0" y="586.0" type="curve" smooth="yes"/>
      <point x="630.0" y="646.0"/>
      <point x="552.0" y="742.0"/>
      <point x="502.0" y="838.0" type="curve" smooth="yes"/>
      <point x="490.0" y="864.0"/>
      <point x="474.0" y="874.0"/>
      <point x="454.0" y="874.0" type="curve" smooth="yes"/>
      <point x="436.0" y="874.0"/>
      <point x="422.0" y="862.0"/>
      <point x="416.0" y="840.0" type="curve" smooth="yes"/>
      <point x="408.0" y="814.0"/>
      <point x="420.0" y="794.0"/>
      <point x="436.0" y="760.0" type="curve" smooth="yes"/>
      <point x="496.0" y="620.0"/>
      <point x="550.0" y="542.0"/>
      <point x="614.0" y="470.0" type="curve"/>
      <point x="628.0" y="522.0" type="line"/>
      <point x="524.0" y="454.0"/>
      <point x="428.0" y="374.0"/>
      <point x="294.0" y="232.0" type="curve" smooth="yes"/>
      <point x="262.0" y="198.0"/>
      <point x="238.0" y="178.0"/>
      <point x="230.0" y="152.0" type="curve" smooth="yes"/>
      <point x="226.0" y="130.0"/>
      <point x="234.0" y="118.0"/>
      <point x="252.0" y="118.0" type="curve" smooth="yes"/>
      <point x="270.0" y="118.0"/>
      <point x="288.0" y="128.0"/>
      <point x="318.0" y="154.0" type="curve" smooth="yes"/>
      <point x="422.0" y="248.0"/>
      <point x="548.0" y="340.0"/>
      <point x="672.0" y="406.0" type="curve" smooth="yes"/>
      <point x="736.0" y="438.0"/>
      <point x="754.0" y="470.0"/>
    </contour>
  </outline>
</glyph>
<glyph name="onequarter" format="2">
  <advance width="1500"/>
  <unicode hex="00BC"/>
  <outline>
    <contour>
      <point x="1576.0" y="1160.0" type="curve" smooth="yes"/>
      <point x="1610.0" y="1188.0"/>
      <point x="1628.0" y="1214.0"/>
      <point x="1634.0" y="1240.0" type="curve" smooth="yes"/>
      <point x="1642.0" y="1270.0"/>
      <point x="1624.0" y="1300.0"/>
      <point x="1590.0" y="1300.0" type="curve" smooth="yes"/>
      <point x="1560.0" y="1300.0"/>
      <point x="1530.0" y="1286.0"/>
      <point x="1502.0" y="1256.0" type="curve" smooth="yes"/>
      <point x="1352.0" y="1100.0"/>
      <point x="1040.0" y="790.0"/>
      <point x="954.0" y="710.0" type="curve" smooth="yes"/>
      <point x="860.0" y="620.0"/>
      <point x="482.0" y="278.0"/>
      <point x="248.0" y="80.0" type="curve" smooth="yes"/>
      <point x="230.0" y="64.0"/>
      <point x="220.0" y="48.0"/>
      <point x="218.0" y="34.0" type="curve" smooth="yes"/>
      <point x="210.0" y="8.0"/>
      <point x="220.0" y="-32.0"/>
      <point x="272.0" y="-32.0" type="curve" smooth="yes"/>
      <point x="300.0" y="-32.0"/>
      <point x="328.0" y="-24.0"/>
      <point x="360.0" y="10.0" type="curve" smooth="yes"/>
      <point x="546.0" y="198.0"/>
      <point x="866.0" y="528.0"/>
      <point x="1002.0" y="656.0" type="curve" smooth="yes"/>
      <point x="1108.0" y="756.0"/>
      <point x="1414.0" y="1024.0"/>
    </contour>
    <contour>
      <point x="450.0" y="1156.0" type="line" smooth="yes"/>
      <point x="428.0" y="1156.0"/>
      <point x="422.0" y="1172.0"/>
      <point x="428.0" y="1194.0" type="curve" smooth="yes"/>
      <point x="434.0" y="1216.0"/>
      <point x="452.0" y="1232.0"/>
      <point x="474.0" y="1232.0" type="curve" smooth="yes"/>
      <point x="498.0" y="1232.0" type="line" smooth="yes"/>
      <point x="556.0" y="1232.0"/>
      <point x="602.0" y="1242.0"/>
      <point x="654.0" y="1282.0" type="curve" smooth="yes"/>
      <point x="672.0" y="1296.0"/>
      <point x="684.0" y="1302.0"/>
      <point x="702.0" y="1302.0" type="curve" smooth="yes"/>
      <point x="720.0" y="1302.0"/>
      <point x="730.0" y="1292.0"/>
      <point x="724.0" y="1266.0" type="curve" smooth="yes"/>
      <point x="584.0" y="746.0" type="line" smooth="yes"/>
      <point x="576.0" y="714.0"/>
      <point x="592.0" y="690.0"/>
      <point x="622.0" y="688.0" type="curve" smooth="yes"/>
      <point x="678.0" y="684.0" type="line" smooth="yes"/>
      <point x="696.0" y="682.0"/>
      <point x="706.0" y="670.0"/>
      <point x="700.0" y="650.0" type="curve" smooth="yes"/>
      <point x="692.0" y="620.0"/>
      <point x="680.0" y="610.0"/>
      <point x="658.0" y="610.0" type="curve" smooth="yes"/>
      <point x="298.0" y="610.0" type="line" smooth="yes"/>
      <point x="276.0" y="610.0"/>
      <point x="266.0" y="620.0"/>
      <point x="274.0" y="650.0" type="curve" smooth="yes"/>
      <point x="280.0" y="672.0"/>
      <point x="296.0" y="686.0"/>
      <point x="318.0" y="688.0" type="curve" smooth="yes"/>
      <point x="372.0" y="692.0" type="line" smooth="yes"/>
      <point x="408.0" y="694.0"/>
      <point x="444.0" y="714.0"/>
      <point x="452.0" y="746.0" type="curve" smooth="yes"/>
      <point x="544.0" y="1092.0" type="line" smooth="yes"/>
      <point x="556.0" y="1138.0"/>
      <point x="540.0" y="1156.0"/>
      <point x="502.0" y="1156.0" type="curve" smooth="yes"/>
    </contour>
    <contour>
      <point x="1248.0" y="350.0"/>
      <point x="1236.0" y="332.0"/>
      <point x="1230.0" y="310.0" type="curve" smooth="yes"/>
      <point x="1184.0" y="138.0" type="line" smooth="yes"/>
      <point x="1174.0" y="96.0"/>
      <point x="1146.0" y="74.0"/>
      <point x="1094.0" y="68.0" type="curve" smooth="yes"/>
      <point x="1056.0" y="64.0"/>
      <point x="1038.0" y="52.0"/>
      <point x="1032.0" y="32.0" type="curve" smooth="yes"/>
      <point x="1026.0" y="12.0"/>
      <point x="1038.0" y="0.0"/>
      <point x="1072.0" y="0.0" type="curve" smooth="yes"/>
      <point x="1334.0" y="0.0" type="line" smooth="yes"/>
      <point x="1366.0" y="0.0"/>
      <point x="1382.0" y="12.0"/>
      <point x="1388.0" y="32.0" type="curve" smooth="yes"/>
      <point x="1394.0" y="52.0"/>
      <point x="1380.0" y="60.0"/>
      <point x="1356.0" y="66.0" type="curve" smooth="yes"/>
      <point x="1312.0" y="76.0"/>
      <point x="1296.0" y="94.0"/>
      <point x="1308.0" y="136.0" type="curve" smooth="yes"/>
      <point x="1378.0" y="394.0" type="line" smooth="yes"/>
      <point x="1384.0" y="418.0"/>
      <point x="1378.0" y="428.0"/>
      <point x="1360.0" y="428.0" type="curve" smooth="yes"/>
      <point x="1348.0" y="428.0"/>
      <point x="1336.0" y="422.0"/>
      <point x="1314.0" y="404.0" type="curve" smooth="yes"/>
      <point x="1270.0" y="368.0" type="line" smooth="yes"/>
    </contour>
    <contour>
      <point x="1166.0" y="474.0" type="curve" smooth="yes"/>
      <point x="944.0" y="302.0" type="line" smooth="yes"/>
      <point x="912.0" y="276.0"/>
      <point x="888.0" y="252.0"/>
      <point x="880.0" y="226.0" type="curve" smooth="yes"/>
      <point x="872.0" y="194.0"/>
      <point x="886.0" y="176.0"/>
      <point x="920.0" y="176.0" type="curve" smooth="yes"/>
      <point x="1402.0" y="176.0" type="line" smooth="yes"/>
      <point x="1432.0" y="176.0"/>
      <point x="1450.0" y="188.0"/>
      <point x="1456.0" y="214.0" type="curve" smooth="yes"/>
      <point x="1464.0" y="242.0"/>
      <point x="1450.0" y="252.0"/>
      <point x="1422.0" y="252.0" type="curve" smooth="yes"/>
      <point x="934.0" y="252.0" type="line"/>
      <point x="950.0" y="218.0" type="line"/>
      <point x="1302.0" y="492.0" type="line" smooth="yes"/>
      <point x="1352.0" y="530.0"/>
      <point x="1380.0" y="566.0"/>
      <point x="1390.0" y="604.0" type="curve" smooth="yes"/>
      <point x="1402.0" y="654.0"/>
      <point x="1376.0" y="690.0"/>
      <point x="1322.0" y="690.0" type="curve" smooth="yes"/>
      <point x="1268.0" y="690.0"/>
      <point x="1218.0" y="648.0"/>
      <point x="1210.0" y="612.0" type="curve" smooth="yes"/>
      <point x="1200.0" y="578.0"/>
      <point x="1216.0" y="558.0"/>
      <point x="1210.0" y="530.0" type="curve" smooth="yes"/>
      <point x="1204.0" y="508.0"/>
      <point x="1192.0" y="492.0"/>
    </contour>
  </outline>
</glyph>
<glyph name="onehalf" format="2">
  <advance width="1500"/>
  <unicode hex="00BD"/>
  <outline>
    <contour>
      <point x="1570.0" y="1160.0" type="curve" smooth="yes"/>
      <point x="1604.0" y="1188.0"/>
      <point x="1622.0" y="1214.0"/>
      <point x="1628.0" y="1240.0" type="curve" smooth="yes"/>
      <point x="1636.0" y="1270.0"/>
      <point x="1618.0" y="1300.0"/>
      <point x="1584.0" y="1300.0" type="curve" smooth="yes"/>
      <point x="1554.0" y="1300.0"/>
      <point x="1524.0" y="1286.0"/>
      <point x="1496.0" y="1256.0" type="curve" smooth="yes"/>
      <point x="1346.0" y="1100.0"/>
      <point x="1034.0" y="790.0"/>
      <point x="948.0" y="710.0" type="curve" smooth="yes"/>
      <point x="854.0" y="620.0"/>
      <point x="476.0" y="278.0"/>
      <point x="242.0" y="80.0" type="curve" smooth="yes"/>
      <point x="224.0" y="64.0"/>
      <point x="214.0" y="48.0"/>
      <point x="212.0" y="34.0" type="curve" smooth="yes"/>
      <point x="204.0" y="8.0"/>
      <point x="214.0" y="-32.0"/>
      <point x="266.0" y="-32.0" type="curve" smooth="yes"/>
      <point x="294.0" y="-32.0"/>
      <point x="322.0" y="-24.0"/>
      <point x="354.0" y="10.0" type="curve" smooth="yes"/>
      <point x="540.0" y="198.0"/>
      <point x="860.0" y="528.0"/>
      <point x="996.0" y="656.0" type="curve" smooth="yes"/>
      <point x="1102.0" y="756.0"/>
      <point x="1408.0" y="1024.0"/>
    </contour>
    <contour>
      <point x="450.0" y="1156.0" type="line" smooth="yes"/>
      <point x="428.0" y="1156.0"/>
      <point x="422.0" y="1172.0"/>
      <point x="428.0" y="1194.0" type="curve" smooth="yes"/>
      <point x="434.0" y="1216.0"/>
      <point x="452.0" y="1232.0"/>
      <point x="474.0" y="1232.0" type="curve" smooth="yes"/>
      <point x="498.0" y="1232.0" type="line" smooth="yes"/>
      <point x="556.0" y="1232.0"/>
      <point x="602.0" y="1242.0"/>
      <point x="654.0" y="1282.0" type="curve" smooth="yes"/>
      <point x="672.0" y="1296.0"/>
      <point x="684.0" y="1302.0"/>
      <point x="702.0" y="1302.0" type="curve" smooth="yes"/>
      <point x="720.0" y="1302.0"/>
      <point x="730.0" y="1292.0"/>
      <point x="724.0" y="1266.0" type="curve" smooth="yes"/>
      <point x="584.0" y="746.0" type="line" smooth="yes"/>
      <point x="576.0" y="714.0"/>
      <point x="592.0" y="690.0"/>
      <point x="622.0" y="688.0" type="curve" smooth="yes"/>
      <point x="678.0" y="684.0" type="line" smooth="yes"/>
      <point x="696.0" y="682.0"/>
      <point x="706.0" y="670.0"/>
      <point x="700.0" y="650.0" type="curve" smooth="yes"/>
      <point x="692.0" y="620.0"/>
      <point x="680.0" y="610.0"/>
      <point x="658.0" y="610.0" type="curve" smooth="yes"/>
      <point x="298.0" y="610.0" type="line" smooth="yes"/>
      <point x="276.0" y="610.0"/>
      <point x="266.0" y="620.0"/>
      <point x="274.0" y="650.0" type="curve" smooth="yes"/>
      <point x="280.0" y="672.0"/>
      <point x="296.0" y="686.0"/>
      <point x="318.0" y="688.0" type="curve" smooth="yes"/>
      <point x="372.0" y="692.0" type="line" smooth="yes"/>
      <point x="408.0" y="694.0"/>
      <point x="444.0" y="714.0"/>
      <point x="452.0" y="746.0" type="curve" smooth="yes"/>
      <point x="544.0" y="1092.0" type="line" smooth="yes"/>
      <point x="556.0" y="1138.0"/>
      <point x="540.0" y="1156.0"/>
      <point x="502.0" y="1156.0" type="curve" smooth="yes"/>
    </contour>
    <contour>
      <point x="1216.0" y="336.0" type="curve" smooth="yes"/>
      <point x="1012.0" y="232.0"/>
      <point x="930.0" y="140.0"/>
      <point x="906.0" y="46.0" type="curve" smooth="yes"/>
      <point x="896.0" y="8.0"/>
      <point x="914.0" y="-16.0"/>
      <point x="948.0" y="-16.0" type="curve" smooth="yes"/>
      <point x="980.0" y="-16.0"/>
      <point x="1008.0" y="28.0"/>
      <point x="1068.0" y="28.0" type="curve" smooth="yes"/>
      <point x="1098.0" y="28.0"/>
      <point x="1162.0" y="-20.0"/>
      <point x="1230.0" y="-20.0" type="curve" smooth="yes"/>
      <point x="1342.0" y="-20.0"/>
      <point x="1414.0" y="50.0"/>
      <point x="1438.0" y="138.0" type="curve" smooth="yes"/>
      <point x="1444.0" y="160.0"/>
      <point x="1440.0" y="176.0"/>
      <point x="1422.0" y="176.0" type="curve" smooth="yes"/>
      <point x="1406.0" y="176.0"/>
      <point x="1394.0" y="170.0"/>
      <point x="1372.0" y="142.0" type="curve" smooth="yes"/>
      <point x="1348.0" y="110.0"/>
      <point x="1322.0" y="104.0"/>
      <point x="1270.0" y="104.0" type="curve" smooth="yes"/>
      <point x="1222.0" y="104.0"/>
      <point x="1158.0" y="140.0"/>
      <point x="1116.0" y="140.0" type="curve" smooth="yes"/>
      <point x="1022.0" y="140.0"/>
      <point x="970.0" y="94.0"/>
      <point x="958.0" y="44.0" type="curve"/>
      <point x="994.0" y="46.0" type="line"/>
      <point x="1018.0" y="140.0"/>
      <point x="1074.0" y="192.0"/>
      <point x="1286.0" y="304.0" type="curve" smooth="yes"/>
      <point x="1424.0" y="376.0"/>
      <point x="1480.0" y="432.0"/>
      <point x="1504.0" y="524.0" type="curve" smooth="yes"/>
      <point x="1530.0" y="620.0"/>
      <point x="1478.0" y="690.0"/>
      <point x="1362.0" y="690.0" type="curve" smooth="yes"/>
      <point x="1194.0" y="690.0"/>
      <point x="1058.0" y="584.0"/>
      <point x="1038.0" y="508.0" type="curve" smooth="yes"/>
      <point x="1024.0" y="454.0"/>
      <point x="1044.0" y="424.0"/>
      <point x="1092.0" y="424.0" type="curve" smooth="yes"/>
      <point x="1128.0" y="424.0"/>
      <point x="1170.0" y="454.0"/>
      <point x="1180.0" y="498.0" type="curve" smooth="yes"/>
      <point x="1192.0" y="536.0" type="line" smooth="yes"/>
      <point x="1202.0" y="580.0"/>
      <point x="1234.0" y="612.0"/>
      <point x="1292.0" y="612.0" type="curve" smooth="yes"/>
      <point x="1350.0" y="612.0"/>
      <point x="1390.0" y="578.0"/>
      <point x="1372.0" y="512.0" type="curve" smooth="yes"/>
      <point x="1352.0" y="432.0"/>
      <point x="1308.0" y="384.0"/>
    </contour>
  </outline>
</glyph>
<glyph name="AE" format="2">
  <advance width="1766"/>
  <unicode hex="00C6"/>
  <outline>
    <contour>
      <point x="482.0" y="588.0" type="line"/>
      <point x="1052.0" y="588.0" type="line"/>
      <point x="1030.0" y="502.0" type="line"/>
      <point x="454.0" y="502.0" type="line"/>
    </contour>
    <contour>
      <point x="1478.0" y="1400.0" type="curve" smooth="yes"/>
      <point x="1846.0" y="1400.0" type="line" smooth="yes"/>
      <point x="1866.0" y="1400.0"/>
      <point x="1894.0" y="1410.0"/>
      <point x="1912.0" y="1426.0" type="curve" smooth="yes"/>
      <point x="1934.0" y="1444.0"/>
      <point x="1954.0" y="1454.0"/>
      <point x="1974.0" y="1454.0" type="curve" smooth="yes"/>
      <point x="2006.0" y="1454.0"/>
      <point x="2012.0" y="1440.0"/>
      <point x="2012.0" y="1404.0" type="curve" smooth="yes"/>
      <point x="2016.0" y="1146.0" type="line" smooth="yes"/>
      <point x="2016.0" y="1104.0"/>
      <point x="1992.0" y="1082.0"/>
      <point x="1970.0" y="1082.0" type="curve" smooth="yes"/>
      <point x="1940.0" y="1082.0"/>
      <point x="1926.0" y="1096.0"/>
      <point x="1906.0" y="1136.0" type="curve" smooth="yes"/>
      <point x="1870.0" y="1204.0" type="line" smooth="yes"/>
      <point x="1834.0" y="1274.0"/>
      <point x="1772.0" y="1308.0"/>
      <point x="1688.0" y="1308.0" type="curve" smooth="yes"/>
      <point x="1424.0" y="1308.0" type="line"/>
      <point x="1288.0" y="888.0"/>
      <point x="1202.0" y="520.0"/>
      <point x="1138.0" y="210.0" type="curve" smooth="yes"/>
      <point x="1122.0" y="134.0"/>
      <point x="1158.0" y="82.0"/>
      <point x="1248.0" y="82.0" type="curve" smooth="yes"/>
      <point x="1364.0" y="82.0" type="line" smooth="yes"/>
      <point x="1504.0" y="82.0"/>
      <point x="1580.0" y="116.0"/>
      <point x="1642.0" y="208.0" type="curve" smooth="yes"/>
      <point x="1680.0" y="264.0" type="line" smooth="yes"/>
      <point x="1704.0" y="298.0"/>
      <point x="1718.0" y="316.0"/>
      <point x="1748.0" y="316.0" type="curve" smooth="yes"/>
      <point x="1776.0" y="316.0"/>
      <point x="1792.0" y="298.0"/>
      <point x="1792.0" y="258.0" type="curve" smooth="yes"/>
      <point x="1792.0" y="106.0"/>
      <point x="1692.0" y="-32.0"/>
      <point x="1576.0" y="-32.0" type="curve" smooth="yes"/>
      <point x="1530.0" y="-32.0"/>
      <point x="1494.0" y="0.0"/>
      <point x="1428.0" y="0.0" type="curve" smooth="yes"/>
      <point x="744.0" y="0.0" type="line" smooth="yes"/>
      <point x="706.0" y="0.0"/>
      <point x="686.0" y="14.0"/>
      <point x="694.0" y="42.0" type="curve" smooth="yes"/>
      <point x="700.0" y="70.0"/>
      <point x="724.0" y="80.0"/>
      <point x="772.0" y="94.0" type="curve" smooth="yes"/>
      <point x="814.0" y="104.0" type="line" smooth="yes"/>
      <point x="864.0" y="116.0"/>
      <point x="890.0" y="148.0"/>
      <point x="906.0" y="208.0" type="curve"/>
      <point x="1014.0" y="532.0"/>
      <point x="1112.0" y="874.0"/>
      <point x="1200.0" y="1362.0" type="curve"/>
      <point x="1270.0" y="1330.0" type="line"/>
      <point x="1068.0" y="1226.0"/>
      <point x="966.0" y="1148.0"/>
      <point x="570.0" y="574.0" type="curve" smooth="yes"/>
      <point x="380.0" y="298.0" type="line" smooth="yes"/>
      <point x="346.0" y="250.0"/>
      <point x="342.0" y="222.0"/>
      <point x="342.0" y="194.0" type="curve" smooth="yes"/>
      <point x="342.0" y="160.0"/>
      <point x="368.0" y="130.0"/>
      <point x="430.0" y="102.0" type="curve" smooth="yes"/>
      <point x="472.0" y="82.0"/>
      <point x="484.0" y="68.0"/>
      <point x="484.0" y="44.0" type="curve" smooth="yes"/>
      <point x="484.0" y="14.0"/>
      <point x="456.0" y="0.0"/>
      <point x="408.0" y="0.0" type="curve" smooth="yes"/>
      <point x="74.0" y="0.0" type="line" smooth="yes"/>
      <point x="42.0" y="0.0"/>
      <point x="24.0" y="16.0"/>
      <point x="24.0" y="44.0" type="curve" smooth="yes"/>
      <point x="24.0" y="68.0"/>
      <point x="36.0" y="82.0"/>
      <point x="68.0" y="102.0" type="curve" smooth="yes"/>
      <point x="128.0" y="140.0"/>
      <point x="178.0" y="196.0"/>
      <point x="210.0" y="242.0" type="curve" smooth="yes"/>
      <point x="464.0" y="610.0" type="line" smooth="yes"/>
      <point x="900.0" y="1242.0"/>
      <point x="1110.0" y="1420.0"/>
      <point x="1296.0" y="1420.0" type="curve" smooth="yes"/>
      <point x="1364.0" y="1420.0"/>
      <point x="1402.0" y="1400.0"/>
    </contour>
    <contour>
      <point x="1214.0" y="732.0" type="line"/>
      <point x="1474.0" y="732.0" type="line" smooth="yes"/>
      <point x="1532.0" y="732.0"/>
      <point x="1588.0" y="752.0"/>
      <point x="1624.0" y="816.0" type="curve" smooth="yes"/>
      <point x="1646.0" y="852.0"/>
      <point x="1662.0" y="874.0"/>
      <point x="1684.0" y="874.0" type="curve" smooth="yes"/>
      <point x="1706.0" y="874.0"/>
      <point x="1716.0" y="852.0"/>
      <point x="1720.0" y="826.0" type="curve" smooth="yes"/>
      <point x="1768.0" y="576.0" type="line" smooth="yes"/>
      <point x="1774.0" y="540.0"/>
      <point x="1752.0" y="522.0"/>
      <point x="1730.0" y="522.0" type="curve" smooth="yes"/>
      <point x="1706.0" y="522.0"/>
      <point x="1692.0" y="536.0"/>
      <point x="1670.0" y="574.0" type="curve" smooth="yes"/>
      <point x="1642.0" y="622.0"/>
      <point x="1594.0" y="648.0"/>
      <point x="1532.0" y="648.0" type="curve" smooth="yes"/>
      <point x="1178.0" y="648.0" type="line"/>
    </contour>
  </outline>
</glyph>
